<svg xmlns="http://www.w3.org/2000/svg" xmlns:xlink="http://www.w3.org/1999/xlink" width="500" zoomAndPan="magnify" viewBox="0 0 375 374.999991" height="500" preserveAspectRatio="xMidYMid meet" version="1.0"><defs><g/><clipPath id="98e4183905"><path d="M 167.820312 131.453125 L 206.820312 131.453125 L 206.820312 170.453125 L 167.820312 170.453125 Z M 167.820312 131.453125 " clip-rule="nonzero"/></clipPath></defs><g clip-path="url(#98e4183905)"><path fill="#303c47" d="M 168.261719 131.453125 L 170.929688 131.453125 C 171.152344 131.453125 171.375 131.675781 171.375 131.898438 C 171.375 142.785156 171.375 159.117188 171.375 170.007812 C 171.375 170.230469 171.152344 170.453125 170.929688 170.453125 L 168.261719 170.453125 C 168.042969 170.453125 167.820312 170.230469 167.820312 170.007812 C 167.820312 159.117188 167.820312 142.785156 167.820312 131.898438 C 167.820312 131.675781 168.042969 131.453125 168.261719 131.453125 Z M 172.597656 140.117188 C 180.820312 140.117188 201.042969 140.117188 205.484375 140.117188 L 206.261719 140.117188 C 206.597656 140.117188 206.820312 140.339844 206.820312 140.675781 L 206.820312 169.898438 C 206.820312 170.230469 206.597656 170.453125 206.261719 170.453125 L 204.597656 170.453125 C 204.261719 170.453125 204.042969 170.230469 204.042969 169.898438 L 204.042969 163.453125 L 172.597656 163.453125 L 172.597656 159.785156 L 204.042969 159.785156 L 204.042969 144.453125 L 172.597656 144.453125 Z M 172.597656 140.117188 " fill-opacity="1" fill-rule="evenodd"/></g><path fill="#303c47" d="M 185.707031 134.453125 C 184.707031 134.007812 181.042969 133.5625 179.929688 134.339844 C 179.261719 134.898438 178.597656 136.898438 179.042969 137.898438 C 179.597656 139.117188 181.484375 139.117188 183.152344 139.117188 L 185.261719 139.007812 C 185.707031 139.007812 185.929688 138.785156 185.929688 138.5625 L 185.929688 134.675781 C 185.929688 134.5625 185.820312 134.453125 185.707031 134.453125 Z M 185.707031 134.453125 " fill-opacity="1" fill-rule="evenodd"/><path fill="#0070b7" d="M 187.261719 134.007812 L 198.820312 134.785156 C 201.152344 135.117188 203.042969 135.785156 203.042969 138.453125 C 203.042969 138.785156 202.707031 139.117188 202.375 139.117188 L 187.152344 139.117188 C 186.820312 139.117188 186.597656 138.785156 186.597656 138.453125 L 186.597656 134.5625 C 186.597656 134.339844 186.597656 134.230469 186.820312 134.117188 C 186.929688 134.007812 187.042969 133.898438 187.261719 134.007812 Z M 187.261719 134.007812 " fill-opacity="1" fill-rule="evenodd"/><path fill="#303c47" d="M 173.375 136.230469 C 173.375 137.453125 174.261719 138.453125 175.484375 138.5625 C 177.484375 138.5625 178.152344 137.453125 178.484375 135.898438 C 178.707031 135.117188 178.597656 134.230469 177.597656 134.117188 L 175.707031 134.007812 C 174.484375 134.007812 173.484375 135.007812 173.375 136.230469 Z M 173.375 136.230469 " fill-opacity="1" fill-rule="evenodd"/><path fill="#303c47" d="M 185.707031 154.007812 C 184.707031 153.5625 181.042969 153.117188 179.929688 153.898438 C 179.261719 154.453125 178.597656 156.453125 179.042969 157.453125 C 179.597656 158.675781 181.484375 158.785156 183.152344 158.675781 L 185.261719 158.5625 C 185.707031 158.5625 185.929688 158.339844 185.929688 158.117188 L 185.929688 154.230469 C 185.929688 154.117188 185.820312 154.007812 185.707031 154.007812 Z M 185.707031 154.007812 " fill-opacity="1" fill-rule="evenodd"/><path fill="#0070b7" d="M 187.261719 153.5625 L 198.820312 154.339844 C 201.152344 154.675781 203.042969 155.339844 203.042969 158.007812 C 203.042969 158.453125 202.707031 158.675781 202.375 158.675781 L 187.152344 158.675781 C 186.820312 158.675781 186.597656 158.453125 186.597656 158.007812 L 186.597656 154.117188 C 186.597656 154.007812 186.597656 153.785156 186.820312 153.675781 C 186.929688 153.5625 187.042969 153.5625 187.261719 153.5625 Z M 187.261719 153.5625 " fill-opacity="1" fill-rule="evenodd"/><path fill="#303c47" d="M 173.375 155.785156 C 173.375 157.007812 174.261719 158.117188 175.484375 158.117188 C 177.484375 158.230469 178.152344 157.007812 178.484375 155.453125 C 178.707031 154.675781 178.597656 153.785156 177.597656 153.675781 L 175.707031 153.5625 C 174.484375 153.5625 173.484375 154.5625 173.375 155.785156 Z M 173.375 155.785156 " fill-opacity="1" fill-rule="evenodd"/><g fill="#545454" fill-opacity="1"><g transform="translate(109.527462, 195.749987)"><g><path d="M 15.9375 -14.859375 C 15.9375 -13.972656 15.710938 -13.179688 15.265625 -12.484375 C 14.828125 -11.796875 14.257812 -11.320312 13.5625 -11.0625 C 15.738281 -10.945312 17.328125 -10.09375 18.328125 -8.5 C 18.828125 -7.6875 19.078125 -6.691406 19.078125 -5.515625 C 19.078125 -4.335938 18.625 -3.257812 17.71875 -2.28125 C 16.8125 -1.300781 15.648438 -0.601562 14.234375 -0.1875 C 12.828125 0.21875 11.347656 0.421875 9.796875 0.421875 C 5.910156 0.421875 3.132812 -0.609375 1.46875 -2.671875 C 0.394531 -3.984375 -0.140625 -5.753906 -0.140625 -7.984375 C -0.140625 -8.367188 -0.117188 -8.75 -0.078125 -9.125 L 0.203125 -9.140625 C 0.328125 -5.921875 1.476562 -3.613281 3.65625 -2.21875 L 3.65625 -17.671875 C 3.644531 -18.367188 3.335938 -18.875 2.734375 -19.1875 C 2.472656 -19.34375 2.179688 -19.421875 1.859375 -19.421875 L 1.5 -19.421875 L 1.5 -19.703125 L 8.640625 -19.703125 C 10.722656 -19.703125 12.457031 -19.28125 13.84375 -18.4375 C 15.238281 -17.601562 15.9375 -16.410156 15.9375 -14.859375 Z M 8.671875 -0.90625 C 10.410156 -0.90625 11.773438 -1.363281 12.765625 -2.28125 C 13.753906 -3.195312 14.25 -4.40625 14.25 -5.90625 C 14.25 -6.84375 14.070312 -7.632812 13.71875 -8.28125 C 13.375 -8.9375 12.921875 -9.421875 12.359375 -9.734375 C 11.328125 -10.359375 10.15625 -10.671875 8.84375 -10.671875 L 8.84375 -10.921875 C 9.4375 -10.921875 9.941406 -11.132812 10.359375 -11.5625 C 11.066406 -12.3125 11.421875 -13.332031 11.421875 -14.625 C 11.421875 -15.925781 11.132812 -16.882812 10.5625 -17.5 C 10 -18.125 9.101562 -18.453125 7.875 -18.484375 L 7.875 -0.921875 C 8.144531 -0.910156 8.410156 -0.90625 8.671875 -0.90625 Z M 8.671875 -0.90625 "/></g></g></g><g fill="#545454" fill-opacity="1"><g transform="translate(128.857379, 195.749987)"><g><path d="M 1.546875 -0.28125 C 2.035156 -0.28125 2.453125 -0.453125 2.796875 -0.796875 C 3.148438 -1.148438 3.332031 -1.566406 3.34375 -2.046875 L 3.34375 -17.734375 C 3.289062 -18.390625 2.984375 -18.875 2.421875 -19.1875 C 2.140625 -19.34375 1.847656 -19.421875 1.546875 -19.421875 L 1.1875 -19.421875 L 1.1875 -19.703125 L 11.953125 -19.703125 C 12.535156 -19.703125 13.175781 -19.753906 13.875 -19.859375 C 14.570312 -19.972656 15.0625 -20.085938 15.34375 -20.203125 L 15.34375 -15.28125 L 15.0625 -15.28125 L 15.0625 -15.625 C 15.0625 -16.46875 14.8125 -17.144531 14.3125 -17.65625 C 13.8125 -18.175781 13.140625 -18.453125 12.296875 -18.484375 L 7.5625 -18.484375 L 7.5625 -10.296875 L 11.28125 -10.296875 C 11.976562 -10.316406 12.550781 -10.554688 13 -11.015625 C 13.445312 -11.472656 13.671875 -12.039062 13.671875 -12.71875 L 13.671875 -12.96875 L 13.953125 -12.96875 L 13.953125 -6.46875 L 13.671875 -6.46875 L 13.671875 -6.703125 C 13.671875 -7.640625 13.296875 -8.332031 12.546875 -8.78125 C 12.171875 -8.988281 11.757812 -9.101562 11.3125 -9.125 L 7.5625 -9.125 L 7.5625 -1.203125 L 11.25 -1.203125 C 12.625 -1.203125 13.773438 -1.597656 14.703125 -2.390625 C 15.628906 -3.179688 16.316406 -4.296875 16.765625 -5.734375 L 17.046875 -5.734375 L 15.765625 0 L 1.1875 0 L 1.1875 -0.28125 Z M 1.546875 -0.28125 "/></g></g></g><g fill="#545454" fill-opacity="1"><g transform="translate(146.499086, 195.749987)"><g><path d="M 11.390625 -19.703125 C 14.710938 -19.703125 17.335938 -18.816406 19.265625 -17.046875 C 21.203125 -15.285156 22.171875 -12.882812 22.171875 -9.84375 C 22.171875 -6.8125 21.203125 -4.410156 19.265625 -2.640625 C 17.335938 -0.878906 14.710938 0 11.390625 0 L 1.1875 0 L 1.1875 -0.28125 L 1.546875 -0.28125 C 2.035156 -0.28125 2.453125 -0.453125 2.796875 -0.796875 C 3.148438 -1.148438 3.332031 -1.566406 3.34375 -2.046875 L 3.34375 -17.8125 C 3.289062 -18.257812 3.09375 -18.640625 2.75 -18.953125 C 2.414062 -19.265625 2.015625 -19.421875 1.546875 -19.421875 L 1.1875 -19.421875 L 1.1875 -19.703125 Z M 11.03125 -1.1875 C 12.382812 -1.1875 13.550781 -1.535156 14.53125 -2.234375 C 15.519531 -2.941406 16.273438 -3.945312 16.796875 -5.25 C 17.328125 -6.550781 17.59375 -8.082031 17.59375 -9.84375 C 17.59375 -12.507812 17.003906 -14.617188 15.828125 -16.171875 C 14.648438 -17.734375 13.050781 -18.515625 11.03125 -18.515625 L 7.5625 -18.515625 L 7.5625 -1.1875 Z M 11.03125 -1.1875 "/></g></g></g><g fill="#545454" fill-opacity="1"><g transform="translate(169.177223, 195.749987)"><g><path d="M 11.515625 -18.546875 L 11.515625 -2.03125 C 11.523438 -1.539062 11.703125 -1.125 12.046875 -0.78125 C 12.398438 -0.445312 12.820312 -0.28125 13.3125 -0.28125 L 13.640625 -0.28125 L 13.671875 0 L 5.125 0 L 5.125 -0.28125 L 5.484375 -0.28125 C 5.953125 -0.28125 6.359375 -0.445312 6.703125 -0.78125 C 7.054688 -1.125 7.25 -1.53125 7.28125 -2 L 7.28125 -18.546875 L 3.484375 -18.546875 C 2.617188 -18.523438 1.929688 -18.25 1.421875 -17.71875 C 0.921875 -17.195312 0.671875 -16.515625 0.671875 -15.671875 L 0.671875 -15.34375 L 0.390625 -15.34375 L 0.390625 -20.234375 C 0.648438 -20.117188 1.125 -20.003906 1.8125 -19.890625 C 2.5 -19.773438 3.132812 -19.71875 3.71875 -19.71875 L 15.0625 -19.71875 C 15.976562 -19.738281 16.722656 -19.816406 17.296875 -19.953125 C 17.878906 -20.085938 18.238281 -20.179688 18.375 -20.234375 L 18.375 -15.34375 L 18.09375 -15.34375 L 18.09375 -15.671875 C 18.09375 -16.515625 17.835938 -17.195312 17.328125 -17.71875 C 16.828125 -18.25 16.144531 -18.523438 15.28125 -18.546875 Z M 11.515625 -18.546875 "/></g></g></g><g fill="#545454" fill-opacity="1"><g transform="translate(187.634883, 195.749987)"><g><path d="M 12.375 -20.09375 C 15.851562 -20.09375 18.613281 -19.171875 20.65625 -17.328125 C 22.695312 -15.492188 23.71875 -13 23.71875 -9.84375 C 23.71875 -6.695312 22.695312 -4.203125 20.65625 -2.359375 C 18.613281 -0.523438 15.851562 0.390625 12.375 0.390625 C 8.90625 0.390625 6.148438 -0.523438 4.109375 -2.359375 C 2.066406 -4.203125 1.046875 -6.695312 1.046875 -9.84375 C 1.046875 -11.925781 1.507812 -13.738281 2.4375 -15.28125 C 3.363281 -16.832031 4.679688 -18.019531 6.390625 -18.84375 C 8.097656 -19.675781 10.09375 -20.09375 12.375 -20.09375 Z M 7.46875 -3.21875 C 8.675781 -1.59375 10.3125 -0.78125 12.375 -0.78125 C 14.445312 -0.78125 16.085938 -1.59375 17.296875 -3.21875 C 18.503906 -4.84375 19.109375 -7.050781 19.109375 -9.84375 C 19.109375 -11.6875 18.832031 -13.289062 18.28125 -14.65625 C 17.738281 -16.03125 16.960938 -17.082031 15.953125 -17.8125 C 14.941406 -18.539062 13.75 -18.90625 12.375 -18.90625 C 10.3125 -18.90625 8.675781 -18.09375 7.46875 -16.46875 C 6.257812 -14.851562 5.65625 -12.644531 5.65625 -9.84375 C 5.65625 -7.050781 6.257812 -4.84375 7.46875 -3.21875 Z M 7.46875 -3.21875 "/></g></g></g><g fill="#545454" fill-opacity="1"><g transform="translate(211.804265, 195.749987)"><g><path d="M 1.546875 -0.28125 C 2.035156 -0.28125 2.453125 -0.453125 2.796875 -0.796875 C 3.148438 -1.148438 3.332031 -1.566406 3.34375 -2.046875 L 3.34375 -17.640625 C 3.332031 -18.128906 3.148438 -18.546875 2.796875 -18.890625 C 2.453125 -19.242188 2.035156 -19.421875 1.546875 -19.421875 L 1.1875 -19.421875 L 1.1875 -19.703125 L 9.734375 -19.703125 L 9.703125 -19.421875 L 9.375 -19.421875 C 8.882812 -19.421875 8.457031 -19.242188 8.09375 -18.890625 C 7.738281 -18.546875 7.5625 -18.128906 7.5625 -17.640625 L 7.5625 -1.203125 L 11.25 -1.203125 C 12.625 -1.203125 13.773438 -1.597656 14.703125 -2.390625 C 15.628906 -3.179688 16.316406 -4.296875 16.765625 -5.734375 L 17.046875 -5.734375 L 15.765625 0 L 1.1875 0 L 1.1875 -0.28125 Z M 1.546875 -0.28125 "/></g></g></g><g fill="#545454" fill-opacity="1"><g transform="translate(228.967654, 195.749987)"><g><path d="M 1.546875 -0.28125 C 2.035156 -0.28125 2.453125 -0.453125 2.796875 -0.796875 C 3.148438 -1.148438 3.332031 -1.566406 3.34375 -2.046875 L 3.34375 -17.734375 C 3.289062 -18.390625 2.984375 -18.875 2.421875 -19.1875 C 2.140625 -19.34375 1.847656 -19.421875 1.546875 -19.421875 L 1.1875 -19.421875 L 1.1875 -19.703125 L 11.953125 -19.703125 C 12.535156 -19.703125 13.175781 -19.753906 13.875 -19.859375 C 14.570312 -19.972656 15.0625 -20.085938 15.34375 -20.203125 L 15.34375 -15.28125 L 15.0625 -15.28125 L 15.0625 -15.625 C 15.0625 -16.46875 14.8125 -17.144531 14.3125 -17.65625 C 13.8125 -18.175781 13.140625 -18.453125 12.296875 -18.484375 L 7.5625 -18.484375 L 7.5625 -10.296875 L 11.28125 -10.296875 C 11.976562 -10.316406 12.550781 -10.554688 13 -11.015625 C 13.445312 -11.472656 13.671875 -12.039062 13.671875 -12.71875 L 13.671875 -12.96875 L 13.953125 -12.96875 L 13.953125 -6.46875 L 13.671875 -6.46875 L 13.671875 -6.703125 C 13.671875 -7.640625 13.296875 -8.332031 12.546875 -8.78125 C 12.171875 -8.988281 11.757812 -9.101562 11.3125 -9.125 L 7.5625 -9.125 L 7.5625 -1.203125 L 11.25 -1.203125 C 12.625 -1.203125 13.773438 -1.597656 14.703125 -2.390625 C 15.628906 -3.179688 16.316406 -4.296875 16.765625 -5.734375 L 17.046875 -5.734375 L 15.765625 0 L 1.1875 0 L 1.1875 -0.28125 Z M 1.546875 -0.28125 "/></g></g></g><g fill="#545454" fill-opacity="1"><g transform="translate(246.721926, 195.749987)"><g><path d="M 11.515625 -18.546875 L 11.515625 -2.03125 C 11.523438 -1.539062 11.703125 -1.125 12.046875 -0.78125 C 12.398438 -0.445312 12.820312 -0.28125 13.3125 -0.28125 L 13.640625 -0.28125 L 13.671875 0 L 5.125 0 L 5.125 -0.28125 L 5.484375 -0.28125 C 5.953125 -0.28125 6.359375 -0.445312 6.703125 -0.78125 C 7.054688 -1.125 7.25 -1.53125 7.28125 -2 L 7.28125 -18.546875 L 3.484375 -18.546875 C 2.617188 -18.523438 1.929688 -18.25 1.421875 -17.71875 C 0.921875 -17.195312 0.671875 -16.515625 0.671875 -15.671875 L 0.671875 -15.34375 L 0.390625 -15.34375 L 0.390625 -20.234375 C 0.648438 -20.117188 1.125 -20.003906 1.8125 -19.890625 C 2.5 -19.773438 3.132812 -19.71875 3.71875 -19.71875 L 15.0625 -19.71875 C 15.976562 -19.738281 16.722656 -19.816406 17.296875 -19.953125 C 17.878906 -20.085938 18.238281 -20.179688 18.375 -20.234375 L 18.375 -15.34375 L 18.09375 -15.34375 L 18.09375 -15.671875 C 18.09375 -16.515625 17.835938 -17.195312 17.328125 -17.71875 C 16.828125 -18.25 16.144531 -18.523438 15.28125 -18.546875 Z M 11.515625 -18.546875 "/></g></g></g></svg>