<svg xmlns="http://www.w3.org/2000/svg" xmlns:xlink="http://www.w3.org/1999/xlink" width="500" zoomAndPan="magnify" viewBox="0 0 375 374.999991" height="500" preserveAspectRatio="xMidYMid meet" version="1.0"><defs><filter x="0%" y="0%" width="100%" height="100%" id="69bab986ca"><feColorMatrix values="0 0 0 0 1 0 0 0 0 1 0 0 0 0 1 0 0 0 1 0" color-interpolation-filters="sRGB"/></filter><g/><clipPath id="0ec275d1ba"><path d="M 155.246094 140 L 194 140 L 194 161 L 155.246094 161 Z M 155.246094 140 " clip-rule="nonzero"/></clipPath><clipPath id="100b5746a7"><path d="M 174 131 L 219.746094 131 L 219.746094 168.988281 L 174 168.988281 Z M 174 131 " clip-rule="nonzero"/></clipPath><clipPath id="c78c0ffe48"><path d="M 18.402344 79.5 L 356.652344 79.5 L 356.652344 295.5 L 18.402344 295.5 Z M 18.402344 79.5 " clip-rule="nonzero"/></clipPath><clipPath id="9875871e9f"><path d="M 0.402344 0.5 L 338.652344 0.5 L 338.652344 216.5 L 0.402344 216.5 Z M 0.402344 0.5 " clip-rule="nonzero"/></clipPath><clipPath id="2913c3a2b6"><path d="M 0.402344 5.75 L 337.902344 5.75 L 337.902344 209.75 L 0.402344 209.75 Z M 0.402344 5.75 " clip-rule="nonzero"/></clipPath><linearGradient x1="118.469002" gradientTransform="matrix(0.749596, 0, 0, 0.749083, 80.36052, 80.408827)" y1="-99.666985" x2="118.469002" gradientUnits="userSpaceOnUse" y2="172.66601" id="ba7f5a6a38"><stop stop-opacity="1" stop-color="rgb(42.749023%, 45.489502%, 52.549744%)" offset="0"/><stop stop-opacity="1" stop-color="rgb(42.749023%, 45.489502%, 52.549744%)" offset="0.25"/><stop stop-opacity="1" stop-color="rgb(42.749023%, 45.489502%, 52.549744%)" offset="0.375"/><stop stop-opacity="1" stop-color="rgb(42.749023%, 45.489502%, 52.549744%)" offset="0.390625"/><stop stop-opacity="1" stop-color="rgb(42.14325%, 44.859314%, 51.846313%)" offset="0.394531"/><stop stop-opacity="1" stop-color="rgb(41.537476%, 44.229126%, 51.142883%)" offset="0.398438"/><stop stop-opacity="1" stop-color="rgb(40.837097%, 43.499756%, 50.32959%)" offset="0.402344"/><stop stop-opacity="1" stop-color="rgb(40.138245%, 42.771912%, 49.516296%)" offset="0.40625"/><stop stop-opacity="1" stop-color="rgb(39.437866%, 42.044067%, 48.703003%)" offset="0.410156"/><stop stop-opacity="1" stop-color="rgb(38.737488%, 41.316223%, 47.889709%)" offset="0.414062"/><stop stop-opacity="1" stop-color="rgb(38.037109%, 40.586853%, 47.076416%)" offset="0.417969"/><stop stop-opacity="1" stop-color="rgb(37.336731%, 39.859009%, 46.263123%)" offset="0.421875"/><stop stop-opacity="1" stop-color="rgb(36.636353%, 39.131165%, 45.449829%)" offset="0.425781"/><stop stop-opacity="1" stop-color="rgb(35.9375%, 38.40332%, 44.636536%)" offset="0.429688"/><stop stop-opacity="1" stop-color="rgb(35.237122%, 37.67395%, 43.823242%)" offset="0.433594"/><stop stop-opacity="1" stop-color="rgb(34.536743%, 36.946106%, 43.009949%)" offset="0.4375"/><stop stop-opacity="1" stop-color="rgb(33.836365%, 36.218262%, 42.196655%)" offset="0.441406"/><stop stop-opacity="1" stop-color="rgb(33.135986%, 35.490417%, 41.383362%)" offset="0.445312"/><stop stop-opacity="1" stop-color="rgb(32.435608%, 34.761047%, 40.570068%)" offset="0.449219"/><stop stop-opacity="1" stop-color="rgb(31.736755%, 34.033203%, 39.758301%)" offset="0.453125"/><stop stop-opacity="1" stop-color="rgb(31.036377%, 33.305359%, 38.945007%)" offset="0.457031"/><stop stop-opacity="1" stop-color="rgb(30.335999%, 32.577515%, 38.131714%)" offset="0.460938"/><stop stop-opacity="1" stop-color="rgb(29.63562%, 31.848145%, 37.31842%)" offset="0.464844"/><stop stop-opacity="1" stop-color="rgb(28.935242%, 31.1203%, 36.505127%)" offset="0.46875"/><stop stop-opacity="1" stop-color="rgb(28.234863%, 30.392456%, 35.691833%)" offset="0.472656"/><stop stop-opacity="1" stop-color="rgb(27.536011%, 29.664612%, 34.87854%)" offset="0.476563"/><stop stop-opacity="1" stop-color="rgb(26.835632%, 28.935242%, 34.065247%)" offset="0.480469"/><stop stop-opacity="1" stop-color="rgb(26.135254%, 28.207397%, 33.251953%)" offset="0.484375"/><stop stop-opacity="1" stop-color="rgb(25.434875%, 27.479553%, 32.43866%)" offset="0.488281"/><stop stop-opacity="1" stop-color="rgb(24.734497%, 26.751709%, 31.625366%)" offset="0.492188"/><stop stop-opacity="1" stop-color="rgb(24.034119%, 26.022339%, 30.812073%)" offset="0.496094"/><stop stop-opacity="1" stop-color="rgb(23.335266%, 25.294495%, 30.000305%)" offset="0.5"/><stop stop-opacity="1" stop-color="rgb(22.634888%, 24.56665%, 29.187012%)" offset="0.503906"/><stop stop-opacity="1" stop-color="rgb(21.934509%, 23.838806%, 28.373718%)" offset="0.507812"/><stop stop-opacity="1" stop-color="rgb(21.234131%, 23.109436%, 27.560425%)" offset="0.511719"/><stop stop-opacity="1" stop-color="rgb(20.533752%, 22.381592%, 26.747131%)" offset="0.515625"/><stop stop-opacity="1" stop-color="rgb(19.833374%, 21.652222%, 25.933838%)" offset="0.519531"/><stop stop-opacity="1" stop-color="rgb(19.134521%, 20.924377%, 25.120544%)" offset="0.523438"/><stop stop-opacity="1" stop-color="rgb(18.434143%, 20.196533%, 24.307251%)" offset="0.527344"/><stop stop-opacity="1" stop-color="rgb(17.733765%, 19.468689%, 23.493958%)" offset="0.53125"/><stop stop-opacity="1" stop-color="rgb(17.033386%, 18.739319%, 22.680664%)" offset="0.535156"/><stop stop-opacity="1" stop-color="rgb(16.333008%, 18.011475%, 21.867371%)" offset="0.539062"/><stop stop-opacity="1" stop-color="rgb(15.632629%, 17.28363%, 21.054077%)" offset="0.542969"/><stop stop-opacity="1" stop-color="rgb(14.933777%, 16.555786%, 20.240784%)" offset="0.546875"/><stop stop-opacity="1" stop-color="rgb(14.233398%, 15.826416%, 19.42749%)" offset="0.550781"/><stop stop-opacity="1" stop-color="rgb(13.53302%, 15.098572%, 18.615723%)" offset="0.554688"/><stop stop-opacity="1" stop-color="rgb(12.832642%, 14.370728%, 17.802429%)" offset="0.558594"/><stop stop-opacity="1" stop-color="rgb(12.132263%, 13.642883%, 16.989136%)" offset="0.5625"/><stop stop-opacity="1" stop-color="rgb(11.431885%, 12.913513%, 16.175842%)" offset="0.566406"/><stop stop-opacity="1" stop-color="rgb(10.733032%, 12.185669%, 15.362549%)" offset="0.570312"/><stop stop-opacity="1" stop-color="rgb(10.032654%, 11.457825%, 14.549255%)" offset="0.574219"/><stop stop-opacity="1" stop-color="rgb(9.332275%, 10.72998%, 13.735962%)" offset="0.578125"/><stop stop-opacity="1" stop-color="rgb(8.631897%, 10.00061%, 12.922668%)" offset="0.582031"/><stop stop-opacity="1" stop-color="rgb(7.931519%, 9.272766%, 12.109375%)" offset="0.585938"/><stop stop-opacity="1" stop-color="rgb(7.23114%, 8.544922%, 11.296082%)" offset="0.589844"/><stop stop-opacity="1" stop-color="rgb(6.532288%, 7.817078%, 10.482788%)" offset="0.59375"/><stop stop-opacity="1" stop-color="rgb(5.831909%, 7.087708%, 9.669495%)" offset="0.597656"/><stop stop-opacity="1" stop-color="rgb(5.131531%, 6.359863%, 8.857727%)" offset="0.601562"/><stop stop-opacity="1" stop-color="rgb(4.525757%, 5.729675%, 8.152771%)" offset="0.605469"/><stop stop-opacity="1" stop-color="rgb(3.919983%, 5.099487%, 7.449341%)" offset="0.609375"/><stop stop-opacity="1" stop-color="rgb(3.919983%, 5.099487%, 7.449341%)" offset="0.625"/><stop stop-opacity="1" stop-color="rgb(3.919983%, 5.099487%, 7.449341%)" offset="0.75"/><stop stop-opacity="1" stop-color="rgb(3.919983%, 5.099487%, 7.449341%)" offset="1"/></linearGradient><clipPath id="b87a63baba"><rect x="0" width="339" y="0" height="217"/></clipPath><clipPath id="0407067068"><path d="M 0.402344 0.5 L 338.652344 0.5 L 338.652344 216.5 L 0.402344 216.5 Z M 0.402344 0.5 " clip-rule="nonzero"/></clipPath><clipPath id="31f47e9618"><rect x="0" width="339" y="0" height="217"/></clipPath><clipPath id="28c15a211e"><rect x="0" width="339" y="0" height="217"/></clipPath><mask id="361579813b"><g filter="url(#69bab986ca)"><g><g clip-path="url(#28c15a211e)"><g clip-path="url(#0407067068)"><g><g clip-path="url(#31f47e9618)"><g fill="#000000" fill-opacity="1"><g transform="translate(80.652339, 121.249987)"><g><path d="M 22.96875 -20.21875 C 22.96875 -19.664062 22.875 -19.054688 22.6875 -18.390625 C 22.507812 -17.722656 22.210938 -17.070312 21.796875 -16.4375 C 21.390625 -15.800781 20.835938 -15.265625 20.140625 -14.828125 C 20.835938 -14.535156 21.4375 -14.144531 21.9375 -13.65625 C 22.445312 -13.175781 22.859375 -12.640625 23.171875 -12.046875 C 23.484375 -11.453125 23.71875 -10.847656 23.875 -10.234375 C 24.03125 -9.617188 24.113281 -9.039062 24.125 -8.5 C 24.164062 -7.257812 23.957031 -6.117188 23.5 -5.078125 C 23.050781 -4.046875 22.410156 -3.148438 21.578125 -2.390625 C 20.742188 -1.640625 19.785156 -1.054688 18.703125 -0.640625 C 17.617188 -0.222656 16.457031 -0.015625 15.21875 -0.015625 L 0.609375 -0.015625 L 0.609375 -28.65625 L 14.03125 -28.65625 C 15.257812 -28.65625 16.410156 -28.445312 17.484375 -28.03125 C 18.566406 -27.625 19.519531 -27.046875 20.34375 -26.296875 C 21.164062 -25.546875 21.804688 -24.65625 22.265625 -23.625 C 22.734375 -22.601562 22.96875 -21.46875 22.96875 -20.21875 Z M 15.625 -19.203125 C 15.625 -19.898438 15.460938 -20.441406 15.140625 -20.828125 C 14.816406 -21.210938 14.421875 -21.40625 13.953125 -21.40625 L 7.59375 -21.40625 L 7.59375 -17.28125 L 13.953125 -17.28125 C 14.421875 -17.28125 14.816406 -17.453125 15.140625 -17.796875 C 15.460938 -18.148438 15.625 -18.617188 15.625 -19.203125 Z M 16.859375 -9.359375 C 16.859375 -9.671875 16.78125 -9.972656 16.625 -10.265625 C 16.476562 -10.566406 16.273438 -10.816406 16.015625 -11.015625 C 15.765625 -11.210938 15.484375 -11.3125 15.171875 -11.3125 L 7.59375 -11.3125 L 7.59375 -7.28125 L 15.171875 -7.28125 C 15.484375 -7.28125 15.765625 -7.390625 16.015625 -7.609375 C 16.273438 -7.828125 16.476562 -8.09375 16.625 -8.40625 C 16.78125 -8.726562 16.859375 -9.046875 16.859375 -9.359375 Z M 16.859375 -9.359375 "/></g></g></g><g fill="#000000" fill-opacity="1"><g transform="translate(105.845189, 121.249987)"><g><path d="M 0.40625 0 L 0.40625 -9.578125 C 0.40625 -10.835938 0.625 -12.023438 1.0625 -13.140625 C 1.507812 -14.253906 2.15625 -15.234375 3 -16.078125 C 3.851562 -16.929688 4.878906 -17.597656 6.078125 -18.078125 C 7.285156 -18.566406 8.648438 -18.8125 10.171875 -18.8125 L 10.171875 -11.71875 C 9.234375 -11.71875 8.550781 -11.503906 8.125 -11.078125 C 7.707031 -10.648438 7.5 -10.132812 7.5 -9.53125 L 7.5 0 Z M 0.40625 0 "/></g></g></g><g fill="#000000" fill-opacity="1"><g transform="translate(116.176182, 121.249987)"><g><path d="M 19.625 0.140625 C 18.5625 -0.109375 17.578125 -0.53125 16.671875 -1.125 C 15.765625 -1.71875 14.972656 -2.4375 14.296875 -3.28125 C 13.628906 -4.125 13.113281 -5.0625 12.75 -6.09375 C 12.382812 -7.125 12.210938 -8.191406 12.234375 -9.296875 C 12.253906 -9.703125 12.171875 -10.070312 11.984375 -10.40625 C 11.804688 -10.75 11.550781 -11.019531 11.21875 -11.21875 C 10.882812 -11.425781 10.519531 -11.53125 10.125 -11.53125 C 9.726562 -11.53125 9.367188 -11.425781 9.046875 -11.21875 C 8.722656 -11.019531 8.460938 -10.753906 8.265625 -10.421875 C 8.066406 -10.097656 7.96875 -9.75 7.96875 -9.375 C 7.96875 -8.96875 8.066406 -8.597656 8.265625 -8.265625 C 8.460938 -7.941406 8.722656 -7.679688 9.046875 -7.484375 C 9.367188 -7.285156 9.726562 -7.1875 10.125 -7.1875 C 10.414062 -7.1875 10.695312 -7.242188 10.96875 -7.359375 C 11.25 -7.484375 11.472656 -7.664062 11.640625 -7.90625 C 11.679688 -7.625 11.757812 -7.242188 11.875 -6.765625 C 11.988281 -6.296875 12.175781 -5.765625 12.4375 -5.171875 C 12.695312 -4.578125 13.054688 -3.957031 13.515625 -3.3125 C 13.972656 -2.664062 14.5625 -2.019531 15.28125 -1.375 C 14.507812 -0.90625 13.695312 -0.535156 12.84375 -0.265625 C 12 0.00390625 11.09375 0.140625 10.125 0.140625 C 8.851562 0.140625 7.640625 -0.101562 6.484375 -0.59375 C 5.335938 -1.082031 4.320312 -1.757812 3.4375 -2.625 C 2.550781 -3.488281 1.847656 -4.5 1.328125 -5.65625 C 0.816406 -6.8125 0.5625 -8.050781 0.5625 -9.375 C 0.5625 -10.707031 0.804688 -11.945312 1.296875 -13.09375 C 1.796875 -14.25 2.484375 -15.257812 3.359375 -16.125 C 4.234375 -17 5.242188 -17.679688 6.390625 -18.171875 C 7.546875 -18.671875 8.789062 -18.921875 10.125 -18.921875 C 11.4375 -18.921875 12.664062 -18.671875 13.8125 -18.171875 C 14.957031 -17.679688 15.960938 -17 16.828125 -16.125 C 17.703125 -15.257812 18.382812 -14.25 18.875 -13.09375 C 19.375 -11.945312 19.625 -10.707031 19.625 -9.375 Z M 19.625 0.140625 "/></g></g></g><g fill="#000000" fill-opacity="1"><g transform="translate(136.955401, 121.249987)"><g><path d="M 0.484375 0 L 0.484375 -18.828125 C 1.878906 -18.523438 3.09375 -17.941406 4.125 -17.078125 C 4.945312 -17.710938 5.851562 -18.195312 6.84375 -18.53125 C 7.84375 -18.863281 8.859375 -19.03125 9.890625 -19.03125 C 11.191406 -19.03125 12.40625 -18.785156 13.53125 -18.296875 C 14.664062 -17.804688 15.660156 -17.128906 16.515625 -16.265625 C 17.367188 -15.410156 18.035156 -14.410156 18.515625 -13.265625 C 18.992188 -12.128906 19.234375 -10.90625 19.234375 -9.59375 L 19.234375 0 L 12.125 0 L 12.125 -9.625 C 12.125 -10.019531 12.015625 -10.382812 11.796875 -10.71875 C 11.585938 -11.050781 11.3125 -11.320312 10.96875 -11.53125 C 10.632812 -11.738281 10.273438 -11.84375 9.890625 -11.84375 C 9.484375 -11.84375 9.109375 -11.738281 8.765625 -11.53125 C 8.429688 -11.332031 8.160156 -11.066406 7.953125 -10.734375 C 7.753906 -10.398438 7.65625 -10.03125 7.65625 -9.625 L 7.65625 0 Z M 0.484375 0 "/></g></g></g><g fill="#000000" fill-opacity="1"><g transform="translate(157.461209, 121.249987)"><g><path d="M 11.546875 -10.953125 C 11.203125 -11.265625 10.816406 -11.453125 10.390625 -11.515625 C 9.960938 -11.585938 9.550781 -11.539062 9.15625 -11.375 C 8.757812 -11.21875 8.425781 -10.96875 8.15625 -10.625 C 7.882812 -10.289062 7.75 -9.878906 7.75 -9.390625 C 7.78125 -8.816406 7.988281 -8.320312 8.375 -7.90625 C 8.757812 -7.488281 9.269531 -7.28125 9.90625 -7.28125 C 10.539062 -7.28125 11.050781 -7.503906 11.4375 -7.953125 C 11.820312 -8.410156 12.015625 -8.9375 12.015625 -9.53125 L 12.015625 -19.34375 C 12.015625 -20.414062 12.195312 -21.453125 12.5625 -22.453125 C 12.9375 -23.453125 13.457031 -24.363281 14.125 -25.1875 C 14.789062 -26.007812 15.566406 -26.710938 16.453125 -27.296875 C 17.347656 -27.890625 18.320312 -28.3125 19.375 -28.5625 L 19.375 -9.390625 C 19.375 -8.085938 19.128906 -6.863281 18.640625 -5.71875 C 18.148438 -4.570312 17.46875 -3.5625 16.59375 -2.6875 C 15.726562 -1.820312 14.722656 -1.144531 13.578125 -0.65625 C 12.441406 -0.164062 11.21875 0.078125 9.90625 0.078125 C 8.601562 0.078125 7.375 -0.164062 6.21875 -0.65625 C 5.070312 -1.144531 4.0625 -1.820312 3.1875 -2.6875 C 2.3125 -3.5625 1.625 -4.570312 1.125 -5.71875 C 0.632812 -6.863281 0.390625 -8.085938 0.390625 -9.390625 C 0.390625 -10.671875 0.632812 -11.878906 1.125 -13.015625 C 1.625 -14.160156 2.3125 -15.171875 3.1875 -16.046875 C 4.0625 -16.921875 5.070312 -17.609375 6.21875 -18.109375 C 7.375 -18.617188 8.601562 -18.875 9.90625 -18.875 C 10.207031 -18.875 10.492188 -18.863281 10.765625 -18.84375 C 11.035156 -18.820312 11.296875 -18.78125 11.546875 -18.71875 Z M 11.546875 -10.953125 "/></g></g></g><g fill="#000000" fill-opacity="1"><g transform="translate(177.791259, 121.249987)"><g><path d="M 8.21875 -18.71875 C 8.46875 -18.78125 8.734375 -18.820312 9.015625 -18.84375 C 9.296875 -18.863281 9.578125 -18.875 9.859375 -18.875 C 11.179688 -18.875 12.414062 -18.617188 13.5625 -18.109375 C 14.707031 -17.609375 15.710938 -16.921875 16.578125 -16.046875 C 17.453125 -15.171875 18.132812 -14.160156 18.625 -13.015625 C 19.125 -11.878906 19.375 -10.671875 19.375 -9.390625 C 19.375 -8.085938 19.125 -6.863281 18.625 -5.71875 C 18.132812 -4.570312 17.453125 -3.5625 16.578125 -2.6875 C 15.710938 -1.820312 14.707031 -1.144531 13.5625 -0.65625 C 12.414062 -0.164062 11.179688 0.078125 9.859375 0.078125 C 8.554688 0.078125 7.332031 -0.164062 6.1875 -0.65625 C 5.039062 -1.144531 4.03125 -1.820312 3.15625 -2.6875 C 2.289062 -3.5625 1.613281 -4.570312 1.125 -5.71875 C 0.632812 -6.863281 0.390625 -8.085938 0.390625 -9.390625 L 0.390625 -28.5625 C 1.441406 -28.3125 2.414062 -27.890625 3.3125 -27.296875 C 4.207031 -26.710938 4.984375 -26.007812 5.640625 -25.1875 C 6.304688 -24.363281 6.820312 -23.453125 7.1875 -22.453125 C 7.5625 -21.453125 7.75 -20.414062 7.75 -19.34375 L 7.75 -9.53125 C 7.75 -8.9375 7.941406 -8.410156 8.328125 -7.953125 C 8.710938 -7.503906 9.222656 -7.28125 9.859375 -7.28125 C 10.515625 -7.28125 11.03125 -7.488281 11.40625 -7.90625 C 11.78125 -8.320312 11.984375 -8.816406 12.015625 -9.390625 C 12.015625 -9.878906 11.878906 -10.289062 11.609375 -10.625 C 11.347656 -10.96875 11.015625 -11.21875 10.609375 -11.375 C 10.210938 -11.539062 9.800781 -11.585938 9.375 -11.515625 C 8.945312 -11.453125 8.5625 -11.265625 8.21875 -10.953125 Z M 8.21875 -18.71875 "/></g></g></g><g fill="#000000" fill-opacity="1"><g transform="translate(197.886958, 121.249987)"><g><path d="M 9.8125 -6.859375 C 10.238281 -6.859375 10.625 -6.957031 10.96875 -7.15625 C 11.3125 -7.363281 11.582031 -7.628906 11.78125 -7.953125 C 11.976562 -8.273438 12.078125 -8.625 12.078125 -9 L 12.078125 -18.75 L 19.296875 -18.75 L 19.296875 -9.1875 C 19.296875 -7.894531 19.046875 -6.675781 18.546875 -5.53125 C 18.054688 -4.394531 17.375 -3.394531 16.5 -2.53125 C 15.632812 -1.664062 14.628906 -0.988281 13.484375 -0.5 C 12.335938 -0.0078125 11.101562 0.234375 9.78125 0.234375 C 8.476562 0.234375 7.257812 -0.0078125 6.125 -0.5 C 5 -1 4.007812 -1.675781 3.15625 -2.53125 C 2.300781 -3.394531 1.632812 -4.394531 1.15625 -5.53125 C 0.675781 -6.675781 0.4375 -7.894531 0.4375 -9.1875 L 0.4375 -18.75 L 7.65625 -18.75 L 7.65625 -9 C 7.65625 -8.625 7.753906 -8.273438 7.953125 -7.953125 C 8.148438 -7.628906 8.410156 -7.363281 8.734375 -7.15625 C 9.054688 -6.957031 9.414062 -6.859375 9.8125 -6.859375 Z M 9.8125 -6.859375 "/></g></g></g><g fill="#000000" fill-opacity="1"><g transform="translate(218.627141, 121.249987)"><g><path d="M 0.484375 0 L 0.484375 -18.828125 C 1.878906 -18.523438 3.09375 -17.941406 4.125 -17.078125 C 4.945312 -17.710938 5.851562 -18.195312 6.84375 -18.53125 C 7.84375 -18.863281 8.859375 -19.03125 9.890625 -19.03125 C 11.191406 -19.03125 12.40625 -18.785156 13.53125 -18.296875 C 14.664062 -17.804688 15.660156 -17.128906 16.515625 -16.265625 C 17.367188 -15.410156 18.035156 -14.410156 18.515625 -13.265625 C 18.992188 -12.128906 19.234375 -10.90625 19.234375 -9.59375 L 19.234375 0 L 12.125 0 L 12.125 -9.625 C 12.125 -10.019531 12.015625 -10.382812 11.796875 -10.71875 C 11.585938 -11.050781 11.3125 -11.320312 10.96875 -11.53125 C 10.632812 -11.738281 10.273438 -11.84375 9.890625 -11.84375 C 9.484375 -11.84375 9.109375 -11.738281 8.765625 -11.53125 C 8.429688 -11.332031 8.160156 -11.066406 7.953125 -10.734375 C 7.753906 -10.398438 7.65625 -10.03125 7.65625 -9.625 L 7.65625 0 Z M 0.484375 0 "/></g></g></g><g fill="#000000" fill-opacity="1"><g transform="translate(239.13295, 121.249987)"><g><path d="M 0.3125 0 L 0.3125 -28.71875 C 1.363281 -28.46875 2.328125 -28.050781 3.203125 -27.46875 C 4.078125 -26.894531 4.832031 -26.195312 5.46875 -25.375 C 6.101562 -24.550781 6.59375 -23.644531 6.9375 -22.65625 C 7.289062 -21.664062 7.46875 -20.628906 7.46875 -19.546875 L 7.46875 -12.078125 C 8.3125 -12.722656 8.972656 -13.304688 9.453125 -13.828125 C 9.929688 -14.347656 10.285156 -14.820312 10.515625 -15.25 C 10.742188 -15.6875 10.882812 -16.085938 10.9375 -16.453125 C 11 -16.816406 11.03125 -17.160156 11.03125 -17.484375 L 11.03125 -18.71875 L 18.34375 -18.71875 L 18.34375 -17.5 C 18.34375 -16.664062 18.285156 -15.847656 18.171875 -15.046875 C 18.066406 -14.242188 17.835938 -13.503906 17.484375 -12.828125 C 17.128906 -12.148438 16.582031 -11.578125 15.84375 -11.109375 L 13.015625 -9.3125 L 15.84375 -7.421875 C 16.4375 -7.015625 16.898438 -6.625 17.234375 -6.25 C 17.578125 -5.875 17.828125 -5.472656 17.984375 -5.046875 C 18.140625 -4.628906 18.238281 -4.15625 18.28125 -3.625 C 18.320312 -3.09375 18.34375 -2.476562 18.34375 -1.78125 L 18.34375 0 L 11.03125 0 L 11.03125 -1.625 C 11.03125 -2.3125 10.894531 -2.898438 10.625 -3.390625 C 10.363281 -3.890625 10.035156 -4.304688 9.640625 -4.640625 C 9.253906 -4.984375 8.863281 -5.257812 8.46875 -5.46875 C 8.070312 -5.675781 7.738281 -5.835938 7.46875 -5.953125 L 7.46875 0 Z M 0.3125 0 "/></g></g></g></g></g></g></g></g></g></mask><clipPath id="c3dbce9300"><path d="M 0.402344 5.75 L 337.902344 5.75 L 337.902344 209.75 L 0.402344 209.75 Z M 0.402344 5.75 " clip-rule="nonzero"/></clipPath><clipPath id="f18fa51bcc"><rect x="0" width="339" y="0" height="217"/></clipPath><clipPath id="ea01b7a202"><rect x="0" width="339" y="0" height="217"/></clipPath></defs><g clip-path="url(#0ec275d1ba)"><path fill="#ff3131" d="M 192.808594 160.132812 C 192.644531 160.292969 192.414062 160.394531 192.183594 160.359375 L 183.53125 160.359375 C 181.042969 160.359375 179.140625 159.605469 177.40625 157.871094 L 173.242188 153.707031 C 173.046875 153.511719 172.683594 153.511719 172.488281 153.707031 L 171.898438 154.296875 C 168.980469 157.214844 168.226562 157.542969 165.082031 157.835938 L 156.167969 157.835938 C 155.90625 157.835938 155.742188 157.835938 155.480469 157.574219 C 155.25 157.34375 155.316406 156.589844 155.480469 156.425781 C 155.640625 156.261719 155.511719 156.394531 155.542969 156.363281 L 162.230469 149.675781 L 170.09375 141.84375 C 171.636719 140.304688 174.128906 140.304688 175.632812 141.84375 L 179.992188 146.203125 L 190.25 156.425781 L 192.808594 158.984375 C 193.136719 159.3125 193.136719 159.804688 192.808594 160.132812 " fill-opacity="1" fill-rule="evenodd"/></g><g clip-path="url(#100b5746a7)"><path fill="#3f3f41" d="M 210.277344 158.789062 C 210.605469 158.492188 210.605469 157.96875 210.277344 157.640625 L 207.71875 155.082031 L 189.496094 136.601562 L 185.140625 132.242188 C 183.597656 130.699219 181.109375 130.699219 179.601562 132.242188 L 174.390625 137.453125 C 175.734375 137.714844 177.011719 138.402344 178.058594 139.417969 L 182.679688 144.070312 C 182.714844 144.070312 182.746094 144.105469 182.746094 144.136719 L 195.199219 156.589844 C 195.429688 156.820312 195.625 157.082031 195.789062 157.34375 C 197.296875 158.523438 198.96875 159.050781 201.035156 159.050781 L 209.652344 159.050781 C 209.882812 159.050781 210.113281 158.984375 210.277344 158.789062 Z M 200.804688 163.410156 C 200.476562 163.082031 200.476562 162.554688 200.804688 162.230469 C 201 162.03125 201.261719 161.933594 201.523438 161.964844 L 209.261719 161.964844 C 212.964844 161.964844 214.042969 162.328125 216.699219 164.980469 L 218.796875 167.078125 C 219.746094 168.03125 217.75 166.0625 219.191406 167.503906 C 219.519531 167.832031 219.519531 168.355469 219.191406 168.683594 C 219.027344 168.882812 218.765625 168.980469 218.503906 168.945312 L 209.980469 168.945312 C 207.488281 168.945312 205.589844 168.191406 203.820312 166.421875 L 200.804688 163.410156 " fill-opacity="1" fill-rule="evenodd"/></g><g clip-path="url(#c78c0ffe48)"><g transform="matrix(1, 0, 0, 1, 18, 79)"><g clip-path="url(#ea01b7a202)"><g clip-path="url(#9875871e9f)"><g mask="url(#361579813b)"><g><g clip-path="url(#f18fa51bcc)"><g clip-path="url(#c3dbce9300)"><path fill="url(#ba7f5a6a38)" d="M 0.402344 5.75 L 0.402344 209.75 L 337.902344 209.75 L 337.902344 5.75 Z M 0.402344 5.75 " fill-rule="nonzero"/></g></g></g></g></g></g></g></g></svg>