<svg xmlns="http://www.w3.org/2000/svg" xmlns:xlink="http://www.w3.org/1999/xlink" width="500" zoomAndPan="magnify" viewBox="0 0 375 374.999991" height="500" preserveAspectRatio="xMidYMid meet" version="1.0"><defs><g/><clipPath id="f5bbf26e1c"><path d="M 145.40625 68.460938 L 229.40625 68.460938 L 229.40625 153.960938 L 145.40625 153.960938 Z M 145.40625 68.460938 " clip-rule="nonzero"/></clipPath><clipPath id="2a34416c3f"><path d="M 157.140625 111.25 L 204.390625 111.25 L 204.390625 176.5 L 157.140625 176.5 Z M 157.140625 111.25 " clip-rule="nonzero"/></clipPath></defs><g clip-path="url(#f5bbf26e1c)"><path fill="#000000" d="M 226.601562 151.160156 L 226.601562 103.503906 L 215.402344 103.503906 L 215.402344 97.894531 L 198.605469 97.894531 L 198.605469 86.683594 L 194.40625 86.683594 L 194.40625 81.078125 L 191.605469 81.078125 L 191.605469 75.46875 L 188.808594 75.46875 L 188.808594 68.460938 L 186.007812 68.460938 L 186.007812 75.46875 L 183.207031 75.46875 L 183.207031 81.078125 L 180.40625 81.078125 L 180.40625 86.683594 L 176.207031 86.683594 L 176.207031 97.894531 L 159.410156 97.894531 L 159.410156 103.503906 L 148.210938 103.503906 L 148.210938 151.160156 L 145.410156 151.160156 L 145.410156 153.960938 L 229.402344 153.960938 L 229.402344 151.160156 Z M 155.210938 144.148438 L 152.410156 144.148438 L 152.410156 141.347656 L 155.210938 141.347656 Z M 155.210938 138.542969 L 152.410156 138.542969 L 152.410156 135.742188 L 155.210938 135.742188 Z M 155.210938 132.9375 L 152.410156 132.9375 L 152.410156 130.132812 L 155.210938 130.132812 Z M 155.210938 127.332031 L 152.410156 127.332031 L 152.410156 124.527344 L 155.210938 124.527344 Z M 155.210938 121.722656 L 152.410156 121.722656 L 152.410156 118.921875 L 155.210938 118.921875 Z M 155.210938 116.117188 L 152.410156 116.117188 L 152.410156 113.3125 L 155.210938 113.3125 Z M 155.210938 110.511719 L 152.410156 110.511719 L 152.410156 107.707031 L 155.210938 107.707031 Z M 166.410156 144.148438 L 163.609375 144.148438 L 163.609375 141.347656 L 166.410156 141.347656 Z M 166.410156 138.542969 L 163.609375 138.542969 L 163.609375 135.742188 L 166.410156 135.742188 Z M 166.410156 132.9375 L 163.609375 132.9375 L 163.609375 130.132812 L 166.410156 130.132812 Z M 166.410156 127.332031 L 163.609375 127.332031 L 163.609375 124.527344 L 166.410156 124.527344 Z M 166.410156 121.722656 L 163.609375 121.722656 L 163.609375 118.921875 L 166.410156 118.921875 Z M 166.410156 116.117188 L 163.609375 116.117188 L 163.609375 113.3125 L 166.410156 113.3125 Z M 166.410156 110.511719 L 163.609375 110.511719 L 163.609375 107.707031 L 166.410156 107.707031 Z M 166.410156 104.90625 L 163.609375 104.90625 L 163.609375 102.101562 L 166.410156 102.101562 Z M 172.007812 144.148438 L 169.207031 144.148438 L 169.207031 141.347656 L 172.007812 141.347656 Z M 172.007812 138.542969 L 169.207031 138.542969 L 169.207031 135.742188 L 172.007812 135.742188 Z M 172.007812 132.9375 L 169.207031 132.9375 L 169.207031 130.132812 L 172.007812 130.132812 Z M 172.007812 127.332031 L 169.207031 127.332031 L 169.207031 124.527344 L 172.007812 124.527344 Z M 172.007812 121.722656 L 169.207031 121.722656 L 169.207031 118.921875 L 172.007812 118.921875 Z M 172.007812 116.117188 L 169.207031 116.117188 L 169.207031 113.3125 L 172.007812 113.3125 Z M 172.007812 110.511719 L 169.207031 110.511719 L 169.207031 107.707031 L 172.007812 107.707031 Z M 172.007812 104.90625 L 169.207031 104.90625 L 169.207031 102.101562 L 172.007812 102.101562 Z M 186.007812 90.886719 L 188.808594 90.886719 L 188.808594 93.691406 L 186.007812 93.691406 Z M 186.007812 96.496094 L 188.808594 96.496094 L 188.808594 99.296875 L 186.007812 99.296875 Z M 186.007812 102.101562 L 188.808594 102.101562 L 188.808594 104.90625 L 186.007812 104.90625 Z M 186.007812 107.707031 L 188.808594 107.707031 L 188.808594 110.511719 L 186.007812 110.511719 Z M 186.007812 113.3125 L 188.808594 113.3125 L 188.808594 116.117188 L 186.007812 116.117188 Z M 186.007812 118.921875 L 188.808594 118.921875 L 188.808594 121.722656 L 186.007812 121.722656 Z M 186.007812 124.527344 L 188.808594 124.527344 L 188.808594 127.332031 L 186.007812 127.332031 Z M 186.007812 130.132812 L 188.808594 130.132812 L 188.808594 132.9375 L 186.007812 132.9375 Z M 186.007812 135.742188 L 188.808594 135.742188 L 188.808594 138.542969 L 186.007812 138.542969 Z M 180.40625 90.886719 L 183.207031 90.886719 L 183.207031 93.691406 L 180.40625 93.691406 Z M 180.40625 96.496094 L 183.207031 96.496094 L 183.207031 99.296875 L 180.40625 99.296875 Z M 180.40625 102.101562 L 183.207031 102.101562 L 183.207031 104.90625 L 180.40625 104.90625 Z M 180.40625 107.707031 L 183.207031 107.707031 L 183.207031 110.511719 L 180.40625 110.511719 Z M 180.40625 113.3125 L 183.207031 113.3125 L 183.207031 116.117188 L 180.40625 116.117188 Z M 180.40625 118.921875 L 183.207031 118.921875 L 183.207031 121.722656 L 180.40625 121.722656 Z M 180.40625 124.527344 L 183.207031 124.527344 L 183.207031 127.332031 L 180.40625 127.332031 Z M 180.40625 130.132812 L 183.207031 130.132812 L 183.207031 132.9375 L 180.40625 132.9375 Z M 180.40625 135.742188 L 183.207031 135.742188 L 183.207031 138.542969 L 180.40625 138.542969 Z M 191.605469 145.550781 L 191.605469 151.160156 L 183.207031 151.160156 L 183.207031 142.75 L 191.605469 142.75 Z M 194.40625 138.542969 L 191.605469 138.542969 L 191.605469 135.742188 L 194.40625 135.742188 Z M 194.40625 132.9375 L 191.605469 132.9375 L 191.605469 130.132812 L 194.40625 130.132812 Z M 194.40625 127.332031 L 191.605469 127.332031 L 191.605469 124.527344 L 194.40625 124.527344 Z M 194.40625 121.722656 L 191.605469 121.722656 L 191.605469 118.921875 L 194.40625 118.921875 Z M 194.40625 116.117188 L 191.605469 116.117188 L 191.605469 113.3125 L 194.40625 113.3125 Z M 194.40625 110.511719 L 191.605469 110.511719 L 191.605469 107.707031 L 194.40625 107.707031 Z M 194.40625 104.90625 L 191.605469 104.90625 L 191.605469 102.101562 L 194.40625 102.101562 Z M 194.40625 99.296875 L 191.605469 99.296875 L 191.605469 96.496094 L 194.40625 96.496094 Z M 194.40625 93.691406 L 191.605469 93.691406 L 191.605469 90.886719 L 194.40625 90.886719 Z M 205.605469 144.148438 L 202.804688 144.148438 L 202.804688 141.347656 L 205.605469 141.347656 Z M 205.605469 138.542969 L 202.804688 138.542969 L 202.804688 135.742188 L 205.605469 135.742188 Z M 205.605469 132.9375 L 202.804688 132.9375 L 202.804688 130.132812 L 205.605469 130.132812 Z M 205.605469 127.332031 L 202.804688 127.332031 L 202.804688 124.527344 L 205.605469 124.527344 Z M 205.605469 121.722656 L 202.804688 121.722656 L 202.804688 118.921875 L 205.605469 118.921875 Z M 205.605469 116.117188 L 202.804688 116.117188 L 202.804688 113.3125 L 205.605469 113.3125 Z M 205.605469 110.511719 L 202.804688 110.511719 L 202.804688 107.707031 L 205.605469 107.707031 Z M 205.605469 104.90625 L 202.804688 104.90625 L 202.804688 102.101562 L 205.605469 102.101562 Z M 211.203125 144.148438 L 208.40625 144.148438 L 208.40625 141.347656 L 211.203125 141.347656 Z M 211.203125 138.542969 L 208.40625 138.542969 L 208.40625 135.742188 L 211.203125 135.742188 Z M 211.203125 132.9375 L 208.40625 132.9375 L 208.40625 130.132812 L 211.203125 130.132812 Z M 211.203125 127.332031 L 208.40625 127.332031 L 208.40625 124.527344 L 211.203125 124.527344 Z M 211.203125 121.722656 L 208.40625 121.722656 L 208.40625 118.921875 L 211.203125 118.921875 Z M 211.203125 116.117188 L 208.40625 116.117188 L 208.40625 113.3125 L 211.203125 113.3125 Z M 211.203125 110.511719 L 208.40625 110.511719 L 208.40625 107.707031 L 211.203125 107.707031 Z M 211.203125 104.90625 L 208.40625 104.90625 L 208.40625 102.101562 L 211.203125 102.101562 Z M 222.402344 144.148438 L 219.605469 144.148438 L 219.605469 141.347656 L 222.402344 141.347656 Z M 222.402344 138.542969 L 219.605469 138.542969 L 219.605469 135.742188 L 222.402344 135.742188 Z M 222.402344 132.9375 L 219.605469 132.9375 L 219.605469 130.132812 L 222.402344 130.132812 Z M 222.402344 127.332031 L 219.605469 127.332031 L 219.605469 124.527344 L 222.402344 124.527344 Z M 222.402344 121.722656 L 219.605469 121.722656 L 219.605469 118.921875 L 222.402344 118.921875 Z M 222.402344 116.117188 L 219.605469 116.117188 L 219.605469 113.3125 L 222.402344 113.3125 Z M 222.402344 110.511719 L 219.605469 110.511719 L 219.605469 107.707031 L 222.402344 107.707031 Z M 222.402344 110.511719 " fill-opacity="1" fill-rule="nonzero"/></g><g clip-path="url(#2a34416c3f)"><path fill="#ffffff" d="M 195.496094 176.34375 L 168.648438 176.34375 C 168.710938 175.855469 168.800781 175.332031 168.921875 174.84375 C 169.136719 174.074219 169.660156 173.707031 170.457031 173.707031 C 170.457031 173.707031 170.457031 173.707031 170.488281 173.707031 C 170.488281 173.707031 170.519531 173.675781 170.519531 173.675781 C 170.457031 172.847656 170.398438 172.050781 170.367188 171.25 C 170.335938 171.007812 170.335938 170.761719 170.335938 170.484375 C 170.367188 170.207031 170.457031 169.902344 170.765625 169.871094 C 170.765625 169.871094 170.796875 169.871094 170.796875 169.902344 L 171.101562 170.085938 C 171.132812 170.085938 171.132812 170.085938 171.132812 170.085938 C 171.164062 170.085938 171.195312 170.054688 171.195312 170.023438 L 171.253906 169.347656 C 171.253906 169.320312 171.226562 169.289062 171.226562 169.289062 C 169.996094 168.828125 168.710938 168.429688 168.003906 167.292969 C 167.972656 167.292969 167.972656 167.292969 167.972656 167.292969 C 167.789062 167.476562 167.574219 167.660156 167.359375 167.816406 C 167.019531 168.03125 166.898438 167.847656 166.683594 167.601562 C 166.101562 166.957031 165.519531 166.28125 164.933594 165.515625 C 164.71875 165.269531 164.535156 164.992188 164.382812 164.65625 C 164.351562 164.625 164.320312 164.59375 164.289062 164.5625 C 163.371094 164.101562 162.695312 163.457031 162.203125 162.628906 C 162.171875 162.597656 162.144531 162.566406 162.082031 162.539062 C 160.945312 161.984375 160.085938 160.511719 159.71875 159.285156 C 159.65625 159.039062 159.535156 158.671875 159.410156 158.179688 C 159.382812 158.058594 159.320312 157.875 159.257812 157.78125 C 159.011719 157.230469 158.738281 156.644531 158.460938 156.0625 C 157.96875 154.988281 157.601562 153.914062 157.355469 152.8125 C 157.203125 152.011719 157.140625 151.246094 157.203125 150.570312 C 157.234375 150.109375 157.417969 149.558594 157.695312 148.976562 C 158.152344 147.992188 158.859375 146.828125 159.78125 145.445312 C 160.484375 144.402344 161.3125 143.421875 162.234375 142.53125 C 162.695312 142.039062 163.09375 141.703125 163.429688 141.457031 C 163.523438 141.367188 163.585938 141.304688 163.644531 141.210938 C 164.261719 140.382812 164.660156 139.738281 165.425781 139.21875 C 165.578125 139.09375 165.734375 139.035156 165.949219 138.941406 C 166.007812 138.910156 166.039062 138.878906 166.070312 138.820312 C 166.4375 138.113281 166.746094 137.40625 167.234375 136.761719 C 167.359375 136.546875 167.511719 136.425781 167.726562 136.300781 C 168.402344 135.875 168.953125 135.535156 169.351562 135.042969 C 169.539062 134.800781 169.476562 134.523438 169.722656 134.308594 C 169.96875 134.09375 170.242188 133.847656 170.582031 133.570312 C 170.949219 133.296875 171.347656 133.082031 171.746094 132.957031 C 172.484375 132.742188 173.371094 132.957031 174.078125 132.742188 C 174.109375 132.742188 174.140625 132.710938 174.171875 132.710938 C 174.507812 132.46875 174.96875 132.191406 175.519531 131.851562 C 175.949219 131.578125 176.472656 131.453125 177.023438 131.484375 C 177.179688 131.484375 177.363281 131.515625 177.546875 131.515625 C 177.546875 131.515625 177.546875 131.515625 177.578125 131.515625 C 177.605469 131.515625 177.636719 131.515625 177.667969 131.484375 L 178.160156 131.238281 C 178.191406 131.238281 178.191406 131.238281 178.222656 131.210938 C 178.34375 131.023438 178.4375 130.933594 178.589844 130.808594 C 178.988281 130.441406 179.417969 130.042969 179.878906 129.644531 C 179.96875 129.550781 180.125 129.367188 180.308594 129.121094 C 180.613281 128.753906 180.738281 128.046875 181.351562 128.109375 C 181.414062 128.109375 181.441406 128.078125 181.472656 128.046875 C 181.65625 127.464844 181.78125 126.851562 181.78125 126.175781 C 181.78125 126.144531 181.78125 126.117188 181.75 126.085938 C 181.65625 125.929688 181.597656 125.746094 181.535156 125.5 C 181.503906 125.472656 181.472656 125.441406 181.441406 125.378906 C 181.441406 125.378906 181.414062 125.378906 181.414062 125.378906 C 181.414062 125.378906 181.414062 125.378906 181.382812 125.378906 C 181.382812 125.378906 181.382812 125.410156 181.382812 125.410156 L 181.441406 125.625 C 181.441406 125.65625 181.441406 125.6875 181.414062 125.6875 C 181.105469 125.902344 181.011719 125.625 180.890625 125.410156 C 180.613281 124.859375 180.429688 124.304688 180.339844 123.753906 C 180.308594 123.476562 180.523438 123.382812 180.644531 123.230469 C 180.675781 123.199219 180.675781 123.199219 180.675781 123.167969 C 180.644531 122.957031 180.613281 122.339844 180.492188 122.21875 C 180.492188 122.1875 180.460938 122.1875 180.429688 122.1875 C 179.722656 122.15625 178.804688 122.066406 178.496094 121.359375 C 178.28125 120.867188 178.527344 120.316406 178.957031 120.007812 C 179.019531 119.980469 179.050781 119.949219 179.050781 119.886719 C 179.019531 117.125 180.125 114.546875 182.332031 112.921875 C 183.683594 111.910156 185.277344 111.355469 187.121094 111.296875 C 188.652344 111.265625 190.066406 111.511719 191.507812 111.941406 C 191.628906 112 191.691406 112.03125 191.722656 112.15625 C 191.8125 112.460938 191.90625 112.828125 192 113.257812 C 192 113.320312 192.027344 113.382812 192.089844 113.441406 C 192.335938 113.6875 192.613281 113.996094 192.886719 114.332031 C 193.777344 115.4375 194.269531 116.695312 194.421875 118.136719 C 194.421875 118.167969 194.421875 118.199219 194.453125 118.199219 C 194.851562 118.292969 195.28125 118.414062 195.804688 118.566406 C 196.292969 118.722656 197.277344 119.027344 197.460938 119.578125 C 197.550781 119.855469 197.398438 120.253906 197.214844 120.4375 C 196.9375 120.683594 196.539062 120.898438 196.046875 121.050781 C 195.34375 121.265625 194.484375 121.359375 193.746094 121.453125 C 193.714844 121.453125 193.714844 121.480469 193.6875 121.480469 C 193.65625 121.667969 193.59375 121.882812 193.472656 122.066406 C 193.378906 122.1875 193.378906 122.28125 193.441406 122.433594 C 193.53125 122.617188 193.59375 122.710938 193.59375 122.742188 C 194.117188 123.570312 194.421875 124.058594 194.484375 124.214844 C 195.003906 125.101562 194.175781 125.378906 193.5 125.59375 C 193.378906 125.625 193.347656 125.714844 193.347656 125.839844 C 193.378906 125.992188 193.472656 126.207031 193.441406 126.359375 C 193.378906 126.636719 193.257812 126.820312 193.042969 126.914062 C 193.042969 126.945312 193.042969 126.945312 193.042969 126.976562 C 193.285156 127.21875 193.195312 127.433594 192.949219 127.617188 C 192.703125 127.773438 192.519531 127.894531 192.613281 128.203125 C 192.703125 128.601562 192.734375 128.96875 192.582031 129.277344 C 192.273438 129.796875 191.628906 130.105469 191.078125 130.164062 C 190.925781 130.164062 190.433594 130.226562 189.574219 130.320312 C 189.453125 130.351562 189.265625 130.378906 189.113281 130.441406 C 189.082031 130.441406 189.082031 130.441406 189.082031 130.472656 C 189.082031 130.472656 189.082031 130.503906 189.082031 130.503906 C 189.820312 130.871094 190.125 131.578125 190.496094 132.28125 C 190.523438 132.375 190.648438 132.496094 190.832031 132.652344 C 190.925781 132.742188 191.140625 132.898438 191.476562 133.082031 C 192.242188 133.449219 192.917969 133.785156 193.472656 134.03125 C 194.882812 134.644531 196.109375 135.257812 197.460938 135.902344 C 197.492188 135.933594 197.519531 135.933594 197.519531 135.964844 C 198.074219 136.824219 198.566406 137.746094 198.964844 138.726562 C 199.054688 138.878906 199.179688 139.09375 199.394531 139.371094 C 199.636719 139.648438 199.914062 139.921875 200.222656 140.230469 C 200.527344 140.535156 200.804688 140.9375 201.019531 141.425781 C 201.265625 141.917969 201.449219 142.808594 201.753906 143.390625 C 201.878906 143.636719 202.0625 143.914062 202.277344 144.21875 C 202.339844 144.34375 202.675781 144.800781 203.289062 145.628906 C 203.8125 146.304688 204.117188 147.074219 204.210938 147.902344 C 204.273438 148.238281 204.273438 148.453125 204.179688 148.792969 C 204.117188 149.066406 204.085938 149.25 204.058594 149.375 C 204.027344 149.648438 204.085938 149.742188 204.242188 149.957031 C 204.425781 150.203125 204.515625 150.355469 204.515625 150.417969 C 204.578125 150.753906 204.546875 151.0625 204.394531 151.277344 C 204.242188 151.582031 204.148438 151.828125 204.117188 152.011719 C 204.085938 152.503906 204.058594 152.996094 204.027344 153.484375 C 204.027344 153.667969 203.996094 153.882812 203.933594 154.070312 C 203.84375 154.3125 203.597656 154.4375 203.320312 154.589844 C 203.230469 154.621094 203.167969 154.714844 203.136719 154.804688 C 203.074219 155.113281 203.042969 155.417969 203.074219 155.726562 C 203.167969 156.800781 203.199219 158.027344 202.859375 159.070312 C 202.644531 159.867188 202.15625 160.390625 201.417969 160.695312 C 201.386719 160.726562 201.355469 160.726562 201.355469 160.757812 C 201.234375 161.21875 201.019531 161.648438 200.710938 162.046875 C 200.558594 162.199219 200.375 162.351562 200.222656 162.507812 C 200.191406 162.539062 200.160156 162.566406 200.160156 162.628906 C 199.546875 163.949219 199.179688 164.714844 199.023438 165.085938 C 198.933594 165.300781 198.808594 165.421875 198.535156 165.390625 C 198.320312 165.359375 198.164062 165.359375 198.042969 165.390625 C 198.011719 165.390625 198.011719 165.390625 197.980469 165.421875 C 197.582031 166.1875 197.183594 166.957031 196.785156 167.785156 C 196.722656 167.90625 196.601562 168.121094 196.476562 168.304688 C 196.292969 168.613281 196.046875 168.859375 195.742188 168.980469 C 195.742188 169.011719 195.710938 169.011719 195.710938 169.042969 C 195.710938 169.042969 195.742188 169.042969 195.742188 169.074219 C 195.988281 169.226562 196.171875 169.410156 196.324219 169.59375 C 196.386719 169.65625 196.417969 169.75 196.417969 169.808594 C 196.324219 170.578125 196.292969 171.28125 196.324219 172.140625 C 196.355469 173.277344 196.078125 174.597656 195.527344 175.609375 C 195.527344 175.640625 195.527344 175.671875 195.527344 175.699219 Z M 173.34375 162.539062 C 172.667969 159.898438 172.144531 157.199219 171.777344 154.46875 C 171.53125 152.566406 171.316406 150.601562 171.132812 148.546875 C 171.070312 147.777344 170.980469 147.164062 170.886719 146.644531 C 170.886719 146.613281 170.886719 146.613281 170.855469 146.613281 C 170.855469 146.613281 170.828125 146.613281 170.828125 146.613281 C 170.765625 146.703125 170.671875 146.765625 170.613281 146.859375 C 170.398438 147.042969 170.058594 147.316406 169.566406 147.746094 C 169.167969 148.117188 168.953125 148.484375 168.585938 148.882812 C 168.1875 149.34375 167.757812 149.710938 167.296875 150.019531 C 167.082031 150.171875 166.929688 150.355469 166.835938 150.539062 C 166.652344 150.910156 166.5 151.214844 166.316406 151.523438 C 166.101562 151.859375 165.824219 151.953125 165.457031 151.980469 C 164.964844 152.042969 165.089844 152.472656 164.996094 152.8125 C 164.996094 152.8125 164.996094 152.839844 164.996094 152.839844 C 164.996094 152.871094 164.996094 152.933594 165.027344 152.933594 C 165.242188 153.085938 165.425781 153.242188 165.578125 153.363281 C 166.070312 153.824219 166.039062 154.128906 165.824219 154.714844 C 165.671875 155.144531 165.703125 155.542969 166.070312 155.847656 C 166.191406 155.941406 166.46875 156.03125 166.621094 156.1875 C 166.804688 156.402344 166.898438 156.644531 166.835938 156.921875 C 166.804688 157.105469 166.777344 157.261719 166.777344 157.289062 C 166.777344 157.320312 166.804688 157.351562 166.835938 157.351562 C 167.113281 157.476562 167.296875 157.628906 167.390625 157.8125 C 167.664062 158.332031 167.757812 158.578125 168.035156 159.039062 C 168.371094 159.5625 168.710938 160.296875 168.585938 160.910156 C 168.585938 160.941406 168.617188 160.972656 168.617188 160.972656 C 168.648438 160.972656 168.710938 161.003906 168.800781 161.035156 C 168.953125 161.09375 169.078125 161.1875 169.199219 161.339844 C 169.597656 161.800781 169.9375 162.136719 170.121094 162.351562 C 170.550781 162.78125 171.042969 163.058594 171.625 163.335938 C 171.683594 163.367188 171.746094 163.367188 171.808594 163.335938 Z M 197.734375 152.382812 C 197.613281 152.320312 197.550781 152.226562 197.550781 152.105469 C 197.519531 151.796875 197.519531 151.492188 197.765625 151.277344 C 197.765625 151.277344 197.765625 151.246094 197.765625 151.246094 C 197.796875 151.246094 197.765625 151.214844 197.765625 151.214844 C 197.765625 151.214844 197.734375 151.214844 197.734375 151.214844 C 197.152344 151.125 197.277344 150.664062 197.335938 150.109375 C 197.335938 150.019531 197.335938 149.925781 197.335938 149.804688 C 197.304688 149.496094 196.96875 149.496094 196.753906 149.496094 C 196.722656 149.496094 196.691406 149.464844 196.691406 149.464844 C 196.449219 149.34375 196.261719 149.066406 196.140625 148.851562 C 196.140625 148.851562 196.109375 148.851562 196.109375 148.851562 C 196.109375 148.851562 196.109375 148.851562 196.109375 148.882812 C 195.863281 150.078125 195.679688 151.308594 195.589844 152.535156 C 195.496094 153.394531 195.402344 154.46875 195.3125 155.785156 C 195.3125 156.03125 195.28125 156.371094 195.21875 156.800781 C 195.097656 157.597656 194.820312 158.304688 194.390625 159.007812 C 194.238281 159.285156 194.117188 159.53125 193.992188 159.777344 C 193.929688 159.867188 193.929688 159.960938 193.929688 160.082031 C 194.023438 160.421875 194.054688 160.789062 194.054688 161.21875 C 194.054688 161.25 194.085938 161.28125 194.117188 161.28125 L 194.667969 161.339844 C 194.699219 161.339844 194.699219 161.339844 194.699219 161.339844 C 194.730469 161.339844 194.761719 161.308594 194.789062 161.28125 C 195.1875 160.664062 195.679688 160.082031 196.203125 159.5 C 196.261719 159.4375 196.292969 159.347656 196.261719 159.285156 C 196.078125 158.457031 196.078125 157.597656 196.90625 157.136719 C 197.0625 157.046875 197.183594 156.984375 197.304688 156.890625 C 197.335938 156.890625 197.335938 156.859375 197.335938 156.859375 C 197.367188 156.617188 197.398438 156.09375 197.429688 155.296875 C 197.429688 154.988281 197.519531 154.714844 197.675781 154.4375 C 197.707031 154.4375 197.707031 154.40625 197.675781 154.375 C 197.398438 153.914062 197.304688 153.394531 197.398438 152.871094 C 197.460938 152.71875 197.550781 152.566406 197.734375 152.441406 C 197.765625 152.441406 197.765625 152.410156 197.765625 152.410156 C 197.765625 152.410156 197.765625 152.382812 197.734375 152.382812 Z M 169.753906 176.253906 C 169.84375 175.886719 170.121094 175.792969 170.398438 175.546875 C 170.398438 175.515625 170.398438 175.515625 170.367188 175.515625 C 170.242188 175.425781 170.089844 175.300781 169.96875 175.332031 C 169.691406 175.457031 169.691406 176.007812 169.753906 176.253906 Z M 169.753906 176.253906 " fill-opacity="1" fill-rule="evenodd"/></g><g fill="#000000" fill-opacity="1"><g transform="translate(78.390621, 196.499987)"><g><path d="M 16.046875 -4.796875 C 17.242188 -4.796875 18.367188 -5.03125 19.421875 -5.5 C 20.472656 -5.96875 21.398438 -6.601562 22.203125 -7.40625 C 22.390625 -7.53125 22.578125 -7.53125 22.765625 -7.40625 L 25.953125 -4.15625 C 26.035156 -4.101562 26.078125 -4.023438 26.078125 -3.921875 C 26.078125 -3.816406 26.035156 -3.738281 25.953125 -3.6875 C 24.734375 -2.425781 23.269531 -1.425781 21.5625 -0.6875 C 19.851562 0.0390625 18.015625 0.40625 16.046875 0.40625 C 14.097656 0.40625 12.269531 0.0703125 10.5625 -0.59375 C 8.851562 -1.257812 7.351562 -2.226562 6.0625 -3.5 C 4.769531 -4.769531 3.753906 -6.289062 3.015625 -8.0625 C 2.285156 -9.832031 1.921875 -11.8125 1.921875 -14 C 1.921875 -16.820312 2.523438 -19.3125 3.734375 -21.46875 C 4.953125 -23.632812 6.617188 -25.332031 8.734375 -26.5625 C 10.859375 -27.789062 13.296875 -28.40625 16.046875 -28.40625 C 18.015625 -28.40625 19.851562 -28.035156 21.5625 -27.296875 C 23.269531 -26.566406 24.734375 -25.5625 25.953125 -24.28125 C 26.035156 -24.226562 26.078125 -24.144531 26.078125 -24.03125 C 26.078125 -23.925781 26.035156 -23.847656 25.953125 -23.796875 L 22.765625 -20.59375 C 22.578125 -20.46875 22.390625 -20.46875 22.203125 -20.59375 C 21.398438 -21.394531 20.472656 -22.03125 19.421875 -22.5 C 18.367188 -22.96875 17.242188 -23.203125 16.046875 -23.203125 C 14.253906 -23.203125 12.703125 -22.800781 11.390625 -22 C 10.085938 -21.195312 9.085938 -20.109375 8.390625 -18.734375 C 7.703125 -17.367188 7.359375 -15.789062 7.359375 -14 C 7.359375 -12.101562 7.742188 -10.46875 8.515625 -9.09375 C 9.296875 -7.726562 10.34375 -6.671875 11.65625 -5.921875 C 12.976562 -5.171875 14.441406 -4.796875 16.046875 -4.796875 Z M 16.046875 -4.796875 "/></g></g></g><g fill="#000000" fill-opacity="1"><g transform="translate(106.147863, 196.499987)"><g><path d="M 23.84375 -28 C 24.101562 -28 24.234375 -27.894531 24.234375 -27.6875 L 24.234375 -0.3125 C 24.234375 -0.101562 24.101562 0 23.84375 0 L 19.28125 0 C 19.007812 0 18.875 -0.101562 18.875 -0.3125 L 18.875 -11.40625 L 8.28125 -11.40625 L 8.28125 -0.3125 C 8.28125 -0.101562 8.144531 0 7.875 0 L 3.3125 0 C 3.050781 0 2.921875 -0.101562 2.921875 -0.3125 L 2.921875 -27.6875 C 2.921875 -27.894531 3.050781 -28 3.3125 -28 L 7.875 -28 C 8.144531 -28 8.28125 -27.894531 8.28125 -27.6875 L 8.28125 -16.640625 L 18.875 -16.640625 L 18.875 -27.6875 C 18.875 -27.894531 19.007812 -28 19.28125 -28 Z M 23.84375 -28 "/></g></g></g><g fill="#000000" fill-opacity="1"><g transform="translate(133.58514, 196.499987)"><g><path d="M 8.203125 -22.921875 L 8.203125 -16.59375 L 19.203125 -16.59375 C 19.441406 -16.59375 19.5625 -16.488281 19.5625 -16.28125 L 19.5625 -11.84375 C 19.5625 -11.625 19.441406 -11.515625 19.203125 -11.515625 L 8.203125 -11.515625 L 8.203125 -5.203125 L 21.484375 -5.203125 C 21.742188 -5.203125 21.875 -5.09375 21.875 -4.875 L 21.875 -0.3125 C 21.875 -0.101562 21.742188 0 21.484375 0 L 3.234375 0 C 2.972656 0 2.84375 -0.101562 2.84375 -0.3125 L 2.84375 -27.6875 C 2.84375 -27.894531 2.972656 -28 3.234375 -28 L 21.125 -28 C 21.382812 -28 21.515625 -27.894531 21.515625 -27.6875 L 21.515625 -23.234375 C 21.515625 -23.023438 21.382812 -22.921875 21.125 -22.921875 Z M 8.203125 -22.921875 "/></g></g></g><g fill="#000000" fill-opacity="1"><g transform="translate(157.102805, 196.499987)"><g><path d="M 16.046875 -4.796875 C 17.242188 -4.796875 18.367188 -5.03125 19.421875 -5.5 C 20.472656 -5.96875 21.398438 -6.601562 22.203125 -7.40625 C 22.390625 -7.53125 22.578125 -7.53125 22.765625 -7.40625 L 25.953125 -4.15625 C 26.035156 -4.101562 26.078125 -4.023438 26.078125 -3.921875 C 26.078125 -3.816406 26.035156 -3.738281 25.953125 -3.6875 C 24.734375 -2.425781 23.269531 -1.425781 21.5625 -0.6875 C 19.851562 0.0390625 18.015625 0.40625 16.046875 0.40625 C 14.097656 0.40625 12.269531 0.0703125 10.5625 -0.59375 C 8.851562 -1.257812 7.351562 -2.226562 6.0625 -3.5 C 4.769531 -4.769531 3.753906 -6.289062 3.015625 -8.0625 C 2.285156 -9.832031 1.921875 -11.8125 1.921875 -14 C 1.921875 -16.820312 2.523438 -19.3125 3.734375 -21.46875 C 4.953125 -23.632812 6.617188 -25.332031 8.734375 -26.5625 C 10.859375 -27.789062 13.296875 -28.40625 16.046875 -28.40625 C 18.015625 -28.40625 19.851562 -28.035156 21.5625 -27.296875 C 23.269531 -26.566406 24.734375 -25.5625 25.953125 -24.28125 C 26.035156 -24.226562 26.078125 -24.144531 26.078125 -24.03125 C 26.078125 -23.925781 26.035156 -23.847656 25.953125 -23.796875 L 22.765625 -20.59375 C 22.578125 -20.46875 22.390625 -20.46875 22.203125 -20.59375 C 21.398438 -21.394531 20.472656 -22.03125 19.421875 -22.5 C 18.367188 -22.96875 17.242188 -23.203125 16.046875 -23.203125 C 14.253906 -23.203125 12.703125 -22.800781 11.390625 -22 C 10.085938 -21.195312 9.085938 -20.109375 8.390625 -18.734375 C 7.703125 -17.367188 7.359375 -15.789062 7.359375 -14 C 7.359375 -12.101562 7.742188 -10.46875 8.515625 -9.09375 C 9.296875 -7.726562 10.34375 -6.671875 11.65625 -5.921875 C 12.976562 -5.171875 14.441406 -4.796875 16.046875 -4.796875 Z M 16.046875 -4.796875 "/></g></g></g><g fill="#000000" fill-opacity="1"><g transform="translate(184.860047, 196.499987)"><g><path d="M 13.921875 -13.765625 L 25.15625 -0.515625 C 25.289062 -0.410156 25.316406 -0.296875 25.234375 -0.171875 C 25.160156 -0.0546875 25.03125 0 24.84375 0 L 18.84375 0 C 18.707031 0 18.597656 -0.0390625 18.515625 -0.125 L 10.359375 -10.203125 C 10.015625 -9.828125 9.660156 -9.414062 9.296875 -8.96875 C 8.941406 -8.53125 8.578125 -8.128906 8.203125 -7.765625 L 8.203125 -0.3125 C 8.203125 -0.101562 8.082031 0 7.84375 0 L 3.234375 0 C 2.972656 0 2.84375 -0.101562 2.84375 -0.3125 L 2.84375 -27.6875 C 2.84375 -27.894531 2.972656 -28 3.234375 -28 L 7.84375 -28 C 8.082031 -28 8.203125 -27.894531 8.203125 -27.6875 L 8.203125 -14.953125 L 18.71875 -27.875 C 18.800781 -27.957031 18.910156 -28 19.046875 -28 L 24.765625 -28 C 24.953125 -28 25.082031 -27.945312 25.15625 -27.84375 C 25.238281 -27.738281 25.210938 -27.617188 25.078125 -27.484375 Z M 13.921875 -13.765625 "/></g></g></g><g fill="#000000" fill-opacity="1"><g transform="translate(210.697474, 196.499987)"><g><path d="M 7.796875 -28 C 9.160156 -28 10.59375 -27.90625 12.09375 -27.71875 C 13.601562 -27.53125 15.078125 -27.171875 16.515625 -26.640625 C 17.960938 -26.109375 19.257812 -25.328125 20.40625 -24.296875 C 21.550781 -23.273438 22.46875 -21.921875 23.15625 -20.234375 C 23.851562 -18.554688 24.203125 -16.476562 24.203125 -14 C 24.203125 -11.601562 23.859375 -9.582031 23.171875 -7.9375 C 22.492188 -6.300781 21.582031 -4.953125 20.4375 -3.890625 C 19.289062 -2.835938 18.003906 -2.03125 16.578125 -1.46875 C 15.148438 -0.914062 13.675781 -0.53125 12.15625 -0.3125 C 10.632812 -0.101562 9.179688 0 7.796875 0 L 3.234375 0 C 2.972656 0 2.84375 -0.101562 2.84375 -0.3125 L 2.84375 -27.6875 C 2.84375 -27.894531 2.972656 -28 3.234375 -28 Z M 8.203125 -5.15625 C 8.890625 -5.132812 9.6875 -5.148438 10.59375 -5.203125 C 11.5 -5.253906 12.429688 -5.425781 13.390625 -5.71875 C 14.359375 -6.007812 15.25 -6.472656 16.0625 -7.109375 C 16.875 -7.753906 17.53125 -8.628906 18.03125 -9.734375 C 18.539062 -10.847656 18.796875 -12.269531 18.796875 -14 C 18.796875 -16.207031 18.335938 -17.984375 17.421875 -19.328125 C 16.503906 -20.679688 15.242188 -21.640625 13.640625 -22.203125 C 12.035156 -22.765625 10.222656 -22.988281 8.203125 -22.875 Z M 8.203125 -5.15625 "/></g></g></g><g fill="#000000" fill-opacity="1"><g transform="translate(237.174844, 196.499987)"><g><path d="M 15.921875 -3.15625 L 6.84375 -3.15625 L 5.765625 -0.203125 C 5.710938 -0.0664062 5.59375 0 5.40625 0 L 0.484375 0 C 0.316406 0 0.203125 -0.046875 0.140625 -0.140625 C 0.078125 -0.234375 0.0703125 -0.332031 0.125 -0.4375 L 11.046875 -28.59375 C 11.097656 -28.726562 11.21875 -28.796875 11.40625 -28.796875 C 11.59375 -28.796875 11.710938 -28.726562 11.765625 -28.59375 L 22.6875 -0.4375 C 22.738281 -0.332031 22.726562 -0.234375 22.65625 -0.140625 C 22.59375 -0.046875 22.492188 0 22.359375 0 L 17.40625 0 C 17.238281 0 17.128906 -0.0664062 17.078125 -0.203125 Z M 8.5625 -7.875 L 14.203125 -7.875 L 11.40625 -16.28125 Z M 8.5625 -7.875 "/></g></g></g><g fill="#000000" fill-opacity="1"><g transform="translate(259.972583, 196.499987)"><g><path d="M 33.3125 -0.3125 C 33.3125 -0.101562 33.179688 0 32.921875 0 L 28.359375 0 C 28.085938 0 27.953125 -0.101562 27.953125 -0.3125 L 27.953125 -15.6875 L 20.84375 -1.3125 C 20.789062 -1.1875 20.679688 -1.125 20.515625 -1.125 L 16.203125 -1.125 C 16.035156 -1.125 15.914062 -1.1875 15.84375 -1.3125 L 8.234375 -16.046875 L 8.234375 -0.3125 C 8.234375 -0.101562 8.101562 0 7.84375 0 L 3.234375 0 C 2.992188 0 2.875 -0.101562 2.875 -0.3125 L 2.875 -27.71875 C 2.875 -27.9375 2.992188 -28.046875 3.234375 -28.046875 L 7.921875 -28.046875 C 8.109375 -28.046875 8.226562 -27.976562 8.28125 -27.84375 L 18.3125 -7.28125 L 27.921875 -27.84375 C 28.003906 -27.976562 28.125 -28.046875 28.28125 -28.046875 L 32.921875 -28.046875 C 33.179688 -28.046875 33.3125 -27.9375 33.3125 -27.71875 Z M 33.3125 -0.3125 "/></g></g></g></svg>