<svg xmlns="http://www.w3.org/2000/svg" xmlns:xlink="http://www.w3.org/1999/xlink" width="500" zoomAndPan="magnify" viewBox="0 0 375 374.999991" height="500" preserveAspectRatio="xMidYMid meet" version="1.0"><defs><filter x="0%" y="0%" width="100%" height="100%" id="93da668573"><feColorMatrix values="0 0 0 0 1 0 0 0 0 1 0 0 0 0 1 0 0 0 1 0" color-interpolation-filters="sRGB"/></filter><g/><clipPath id="4634827bc1"><path d="M 152.863281 137.023438 L 210.613281 137.023438 L 210.613281 161.773438 L 152.863281 161.773438 Z M 152.863281 137.023438 " clip-rule="nonzero"/></clipPath><clipPath id="3036d6c8a8"><path d="M 74.300781 82.785156 L 300.800781 82.785156 L 300.800781 266.535156 L 74.300781 266.535156 Z M 74.300781 82.785156 " clip-rule="nonzero"/></clipPath><clipPath id="df53dc67fb"><path d="M 0.300781 0.785156 L 226.800781 0.785156 L 226.800781 184.535156 L 0.300781 184.535156 Z M 0.300781 0.785156 " clip-rule="nonzero"/></clipPath><clipPath id="7ad78bf62d"><path d="M 0.300781 0.785156 L 226.050781 0.785156 L 226.050781 184.535156 L 0.300781 184.535156 Z M 0.300781 0.785156 " clip-rule="nonzero"/></clipPath><linearGradient x1="59.93" gradientTransform="matrix(0.749555, 0, 0, 0.752093, 68.261166, 68.966787)" y1="-90.657937" x2="59.93" gradientUnits="userSpaceOnUse" y2="153.660137" id="437e62a645"><stop stop-opacity="1" stop-color="rgb(13.328552%, 38.42926%, 7.839966%)" offset="0"/><stop stop-opacity="1" stop-color="rgb(13.328552%, 38.42926%, 7.839966%)" offset="0.25"/><stop stop-opacity="1" stop-color="rgb(13.328552%, 38.42926%, 7.839966%)" offset="0.3125"/><stop stop-opacity="1" stop-color="rgb(13.356018%, 38.516235%, 7.853699%)" offset="0.34375"/><stop stop-opacity="1" stop-color="rgb(13.543701%, 39.120483%, 7.949829%)" offset="0.347656"/><stop stop-opacity="1" stop-color="rgb(13.705444%, 39.63623%, 8.032227%)" offset="0.351562"/><stop stop-opacity="1" stop-color="rgb(13.865662%, 40.150452%, 8.114624%)" offset="0.355469"/><stop stop-opacity="1" stop-color="rgb(14.025879%, 40.666199%, 8.198547%)" offset="0.359375"/><stop stop-opacity="1" stop-color="rgb(14.186096%, 41.18042%, 8.280945%)" offset="0.363281"/><stop stop-opacity="1" stop-color="rgb(14.346313%, 41.696167%, 8.363342%)" offset="0.367188"/><stop stop-opacity="1" stop-color="rgb(14.506531%, 42.211914%, 8.44574%)" offset="0.371094"/><stop stop-opacity="1" stop-color="rgb(14.666748%, 42.727661%, 8.528137%)" offset="0.375"/><stop stop-opacity="1" stop-color="rgb(14.826965%, 43.241882%, 8.610535%)" offset="0.378906"/><stop stop-opacity="1" stop-color="rgb(14.987183%, 43.757629%, 8.694458%)" offset="0.382812"/><stop stop-opacity="1" stop-color="rgb(15.1474%, 44.271851%, 8.776855%)" offset="0.386719"/><stop stop-opacity="1" stop-color="rgb(15.309143%, 44.787598%, 8.859253%)" offset="0.390625"/><stop stop-opacity="1" stop-color="rgb(15.46936%, 45.303345%, 8.94165%)" offset="0.394531"/><stop stop-opacity="1" stop-color="rgb(15.629578%, 45.819092%, 9.025574%)" offset="0.398438"/><stop stop-opacity="1" stop-color="rgb(15.789795%, 46.333313%, 9.107971%)" offset="0.402344"/><stop stop-opacity="1" stop-color="rgb(15.950012%, 46.84906%, 9.190369%)" offset="0.40625"/><stop stop-opacity="1" stop-color="rgb(16.110229%, 47.363281%, 9.272766%)" offset="0.410156"/><stop stop-opacity="1" stop-color="rgb(16.270447%, 47.879028%, 9.355164%)" offset="0.414063"/><stop stop-opacity="1" stop-color="rgb(16.430664%, 48.394775%, 9.437561%)" offset="0.417969"/><stop stop-opacity="1" stop-color="rgb(16.592407%, 48.910522%, 9.521484%)" offset="0.421875"/><stop stop-opacity="1" stop-color="rgb(16.752625%, 49.424744%, 9.603882%)" offset="0.425781"/><stop stop-opacity="1" stop-color="rgb(16.912842%, 49.940491%, 9.686279%)" offset="0.429688"/><stop stop-opacity="1" stop-color="rgb(17.073059%, 50.454712%, 9.768677%)" offset="0.433594"/><stop stop-opacity="1" stop-color="rgb(17.233276%, 50.970459%, 9.851074%)" offset="0.4375"/><stop stop-opacity="1" stop-color="rgb(17.393494%, 51.486206%, 9.933472%)" offset="0.441406"/><stop stop-opacity="1" stop-color="rgb(17.553711%, 52.001953%, 10.017395%)" offset="0.445312"/><stop stop-opacity="1" stop-color="rgb(17.713928%, 52.516174%, 10.099792%)" offset="0.449219"/><stop stop-opacity="1" stop-color="rgb(17.874146%, 53.031921%, 10.18219%)" offset="0.453125"/><stop stop-opacity="1" stop-color="rgb(18.034363%, 53.546143%, 10.264587%)" offset="0.457031"/><stop stop-opacity="1" stop-color="rgb(18.196106%, 54.06189%, 10.346985%)" offset="0.460938"/><stop stop-opacity="1" stop-color="rgb(18.356323%, 54.577637%, 10.429382%)" offset="0.464844"/><stop stop-opacity="1" stop-color="rgb(18.516541%, 55.093384%, 10.513306%)" offset="0.46875"/><stop stop-opacity="1" stop-color="rgb(18.676758%, 55.607605%, 10.595703%)" offset="0.472656"/><stop stop-opacity="1" stop-color="rgb(18.836975%, 56.123352%, 10.678101%)" offset="0.476562"/><stop stop-opacity="1" stop-color="rgb(18.997192%, 56.637573%, 10.760498%)" offset="0.480469"/><stop stop-opacity="1" stop-color="rgb(19.15741%, 57.15332%, 10.842896%)" offset="0.484375"/><stop stop-opacity="1" stop-color="rgb(19.317627%, 57.669067%, 10.925293%)" offset="0.488281"/><stop stop-opacity="1" stop-color="rgb(19.47937%, 58.184814%, 11.009216%)" offset="0.492188"/><stop stop-opacity="1" stop-color="rgb(19.639587%, 58.699036%, 11.091614%)" offset="0.496094"/><stop stop-opacity="1" stop-color="rgb(19.799805%, 59.214783%, 11.174011%)" offset="0.5"/><stop stop-opacity="1" stop-color="rgb(19.960022%, 59.729004%, 11.256409%)" offset="0.503906"/><stop stop-opacity="1" stop-color="rgb(20.120239%, 60.244751%, 11.340332%)" offset="0.507812"/><stop stop-opacity="1" stop-color="rgb(20.280457%, 60.760498%, 11.422729%)" offset="0.511719"/><stop stop-opacity="1" stop-color="rgb(20.440674%, 61.276245%, 11.505127%)" offset="0.515625"/><stop stop-opacity="1" stop-color="rgb(20.600891%, 61.790466%, 11.587524%)" offset="0.519531"/><stop stop-opacity="1" stop-color="rgb(20.761108%, 62.306213%, 11.669922%)" offset="0.523438"/><stop stop-opacity="1" stop-color="rgb(20.921326%, 62.820435%, 11.752319%)" offset="0.527344"/><stop stop-opacity="1" stop-color="rgb(21.083069%, 63.336182%, 11.836243%)" offset="0.53125"/><stop stop-opacity="1" stop-color="rgb(21.243286%, 63.851929%, 11.91864%)" offset="0.535156"/><stop stop-opacity="1" stop-color="rgb(21.403503%, 64.367676%, 12.001038%)" offset="0.539062"/><stop stop-opacity="1" stop-color="rgb(21.563721%, 64.881897%, 12.083435%)" offset="0.542969"/><stop stop-opacity="1" stop-color="rgb(21.723938%, 65.397644%, 12.165833%)" offset="0.546875"/><stop stop-opacity="1" stop-color="rgb(21.884155%, 65.911865%, 12.24823%)" offset="0.550781"/><stop stop-opacity="1" stop-color="rgb(22.044373%, 66.427612%, 12.332153%)" offset="0.554688"/><stop stop-opacity="1" stop-color="rgb(22.20459%, 66.943359%, 12.414551%)" offset="0.558594"/><stop stop-opacity="1" stop-color="rgb(22.364807%, 67.459106%, 12.496948%)" offset="0.5625"/><stop stop-opacity="1" stop-color="rgb(22.525024%, 67.973328%, 12.579346%)" offset="0.566406"/><stop stop-opacity="1" stop-color="rgb(22.686768%, 68.489075%, 12.661743%)" offset="0.570312"/><stop stop-opacity="1" stop-color="rgb(22.846985%, 69.003296%, 12.744141%)" offset="0.574219"/><stop stop-opacity="1" stop-color="rgb(23.007202%, 69.519043%, 12.828064%)" offset="0.578125"/><stop stop-opacity="1" stop-color="rgb(23.167419%, 70.03479%, 12.910461%)" offset="0.582031"/><stop stop-opacity="1" stop-color="rgb(23.327637%, 70.550537%, 12.992859%)" offset="0.585938"/><stop stop-opacity="1" stop-color="rgb(23.487854%, 71.064758%, 13.075256%)" offset="0.589844"/><stop stop-opacity="1" stop-color="rgb(23.648071%, 71.580505%, 13.15918%)" offset="0.59375"/><stop stop-opacity="1" stop-color="rgb(23.808289%, 72.094727%, 13.241577%)" offset="0.597656"/><stop stop-opacity="1" stop-color="rgb(23.970032%, 72.610474%, 13.323975%)" offset="0.601562"/><stop stop-opacity="1" stop-color="rgb(24.130249%, 73.126221%, 13.406372%)" offset="0.605469"/><stop stop-opacity="1" stop-color="rgb(24.290466%, 73.641968%, 13.48877%)" offset="0.609375"/><stop stop-opacity="1" stop-color="rgb(24.450684%, 74.156189%, 13.571167%)" offset="0.613281"/><stop stop-opacity="1" stop-color="rgb(24.610901%, 74.671936%, 13.65509%)" offset="0.617188"/><stop stop-opacity="1" stop-color="rgb(24.771118%, 75.186157%, 13.737488%)" offset="0.621094"/><stop stop-opacity="1" stop-color="rgb(24.931335%, 75.701904%, 13.819885%)" offset="0.625"/><stop stop-opacity="1" stop-color="rgb(25.091553%, 76.217651%, 13.902283%)" offset="0.628906"/><stop stop-opacity="1" stop-color="rgb(25.25177%, 76.733398%, 13.98468%)" offset="0.632812"/><stop stop-opacity="1" stop-color="rgb(25.411987%, 77.24762%, 14.067078%)" offset="0.636719"/><stop stop-opacity="1" stop-color="rgb(25.57373%, 77.763367%, 14.151001%)" offset="0.640625"/><stop stop-opacity="1" stop-color="rgb(25.733948%, 78.277588%, 14.233398%)" offset="0.644531"/><stop stop-opacity="1" stop-color="rgb(25.894165%, 78.793335%, 14.315796%)" offset="0.648438"/><stop stop-opacity="1" stop-color="rgb(26.054382%, 79.309082%, 14.398193%)" offset="0.652344"/><stop stop-opacity="1" stop-color="rgb(26.2146%, 79.824829%, 14.480591%)" offset="0.65625"/><stop stop-opacity="1" stop-color="rgb(26.242065%, 79.911804%, 14.494324%)" offset="0.6875"/><stop stop-opacity="1" stop-color="rgb(26.269531%, 79.998779%, 14.509583%)" offset="0.75"/><stop stop-opacity="1" stop-color="rgb(26.269531%, 79.998779%, 14.509583%)" offset="1"/></linearGradient><clipPath id="eb2aa4bc67"><rect x="0" width="227" y="0" height="185"/></clipPath><clipPath id="7fdb5f096d"><path d="M 0.300781 0.785156 L 226.800781 0.785156 L 226.800781 184.535156 L 0.300781 184.535156 Z M 0.300781 0.785156 " clip-rule="nonzero"/></clipPath><clipPath id="54968b1e56"><rect x="0" width="227" y="0" height="185"/></clipPath><clipPath id="929d737201"><rect x="0" width="227" y="0" height="185"/></clipPath><mask id="7055792abc"><g filter="url(#93da668573)"><g transform="matrix(1, 0, 0, 1, -0.000000000000014211, 0)"><g clip-path="url(#929d737201)"><g clip-path="url(#7fdb5f096d)"><g transform="matrix(1, 0, 0, 1, -0.000000000000014211, 0)"><g clip-path="url(#54968b1e56)"><g fill="#000000" fill-opacity="1"><g transform="translate(68.550767, 108.783552)"><g><path d="M 21.25 -11.117188 C 19.785156 -11.117188 18.394531 -11.152344 16.558594 -11.320312 L 16.558594 -11.117188 C 18.527344 -10.84375 19.582031 -10.234375 19.753906 -8.398438 C 19.957031 -5.949219 20.023438 -4.726562 20.023438 -2.039062 C 18.699219 -1.324219 17.132812 -1.019531 15.535156 -1.019531 C 8.328125 -1.019531 5.335938 -7.003906 5.335938 -12.851562 C 5.335938 -18.699219 8.769531 -23.457031 15.265625 -23.457031 C 18.628906 -23.457031 21.382812 -22.199219 22.40625 -18.460938 L 22.609375 -18.460938 C 22.4375 -20.058594 22.40625 -21.621094 22.609375 -23.253906 C 20.703125 -24.105469 18.1875 -24.75 15.265625 -24.75 C 7.308594 -24.75 1.871094 -19.683594 1.871094 -12.238281 C 1.871094 -4.863281 6.96875 0.273438 15.164062 0.273438 C 18.324219 0.273438 21.417969 -0.511719 23.21875 -1.257812 C 23.015625 -4.351562 23.050781 -5.847656 23.253906 -8.398438 C 23.425781 -10.234375 24.136719 -10.84375 25.769531 -11.117188 L 25.769531 -11.320312 C 24.171875 -11.152344 22.675781 -11.117188 21.25 -11.117188 Z M 21.25 -11.117188 "/></g></g></g><g fill="#000000" fill-opacity="1"><g transform="translate(95.067699, 108.783552)"><g><path d="M 11.050781 -24.273438 L 11.050781 -24.476562 C 9.316406 -24.34375 7.785156 -24.273438 6.425781 -24.273438 C 5.03125 -24.273438 3.535156 -24.34375 1.800781 -24.476562 L 1.800781 -24.273438 C 3.636719 -23.96875 4.554688 -23.21875 4.65625 -21.382812 C 4.828125 -18.324219 4.863281 -15.707031 4.863281 -12.238281 C 4.863281 -8.769531 4.828125 -6.152344 4.65625 -3.09375 C 4.554688 -1.257812 3.636719 -0.511719 1.800781 -0.203125 L 1.800781 0 C 3.535156 -0.136719 5.03125 -0.203125 6.425781 -0.203125 C 7.785156 -0.203125 9.316406 -0.136719 11.050781 0 L 11.050781 -0.203125 C 9.179688 -0.511719 8.296875 -1.222656 8.195312 -3.058594 C 7.988281 -6.324219 7.988281 -8.566406 7.988281 -12.238281 C 7.988281 -15.910156 7.988281 -18.15625 8.195312 -21.417969 C 8.296875 -23.21875 9.179688 -23.96875 11.050781 -24.273438 Z M 11.050781 -24.273438 "/></g></g></g><g fill="#000000" fill-opacity="1"><g transform="translate(107.918223, 108.783552)"><g><path d="M 14.824219 -11.390625 C 17.203125 -12.679688 18.527344 -15.128906 18.527344 -17.746094 C 18.527344 -21.554688 15.773438 -24.445312 10.503906 -24.445312 C 9.246094 -24.445312 7.71875 -24.308594 6.1875 -24.308594 C 4.792969 -24.308594 3.5 -24.375 1.835938 -24.511719 L 1.835938 -24.308594 C 3.671875 -24.035156 4.554688 -23.492188 4.691406 -21.621094 C 4.863281 -18.9375 4.863281 -14.550781 4.863281 -12.238281 C 4.863281 -8.769531 4.828125 -6.085938 4.65625 -3.027344 C 4.554688 -1.191406 3.636719 -0.476562 1.800781 -0.171875 L 1.800781 0.0351562 C 3.535156 -0.101562 5.03125 -0.171875 6.425781 -0.171875 C 7.785156 -0.171875 9.316406 -0.101562 11.050781 0.0351562 L 11.050781 -0.171875 C 9.179688 -0.511719 8.296875 -1.191406 8.195312 -3.027344 C 8.023438 -5.710938 7.988281 -7.75 7.988281 -10.472656 C 8.703125 -10.402344 9.65625 -10.335938 10.472656 -10.335938 C 10.878906 -10.335938 11.253906 -10.371094 11.628906 -10.402344 C 17.132812 -2.242188 15.605469 0 25.15625 0 L 25.15625 -0.203125 C 21.316406 -0.273438 19.277344 -3.976562 14.824219 -11.390625 Z M 10.097656 -11.390625 C 9.246094 -11.390625 8.566406 -11.492188 7.988281 -11.59375 L 7.988281 -12.238281 C 7.988281 -15.671875 7.988281 -18.050781 8.195312 -23.015625 C 8.839844 -23.085938 9.453125 -23.152344 10.097656 -23.152344 C 13.835938 -23.152344 15.332031 -20.195312 15.332031 -17.238281 C 15.332031 -14.890625 14.382812 -11.390625 10.097656 -11.390625 Z M 10.097656 -11.390625 "/></g></g></g><g fill="#000000" fill-opacity="1"><g transform="translate(132.735398, 108.783552)"><g><path d="M 11.050781 -24.273438 L 11.050781 -24.476562 C 9.316406 -24.34375 7.785156 -24.273438 6.425781 -24.273438 C 5.03125 -24.273438 3.535156 -24.34375 1.800781 -24.476562 L 1.800781 -24.273438 C 3.636719 -23.96875 4.554688 -23.21875 4.65625 -21.382812 C 4.828125 -18.324219 4.863281 -15.707031 4.863281 -12.238281 C 4.863281 -8.769531 4.828125 -6.152344 4.65625 -3.09375 C 4.554688 -1.257812 3.636719 -0.511719 1.800781 -0.203125 L 1.800781 0 C 3.535156 -0.136719 5.03125 -0.203125 6.425781 -0.203125 C 7.785156 -0.203125 9.316406 -0.136719 11.050781 0 L 11.050781 -0.203125 C 9.179688 -0.511719 8.296875 -1.222656 8.195312 -3.058594 C 7.988281 -6.324219 7.988281 -8.566406 7.988281 -12.238281 C 7.988281 -15.910156 7.988281 -18.15625 8.195312 -21.417969 C 8.296875 -23.21875 9.179688 -23.96875 11.050781 -24.273438 Z M 11.050781 -24.273438 "/></g></g></g><g fill="#000000" fill-opacity="1"><g transform="translate(145.585922, 108.783552)"><g><path d="M 6.425781 -24.308594 C 5.03125 -24.308594 3.535156 -24.375 1.800781 -24.511719 L 1.800781 -24.308594 C 3.636719 -24.003906 4.554688 -23.289062 4.65625 -21.453125 C 4.828125 -18.394531 4.863281 -15.707031 4.863281 -12.238281 C 4.863281 -6.664062 4.757812 -5.203125 4.625 -3.570312 C 4.183594 1.359375 3.058594 4.417969 0.136719 6.527344 L 0.273438 6.730469 C 4.929688 4.113281 7.242188 1.460938 7.75 -3.839844 C 7.921875 -5.507812 7.988281 -7.003906 7.988281 -12.238281 C 7.988281 -15.910156 7.988281 -18.222656 8.195312 -21.453125 C 8.296875 -23.289062 9.179688 -23.96875 11.050781 -24.308594 L 11.050781 -24.511719 C 9.316406 -24.375 7.785156 -24.308594 6.425781 -24.308594 Z M 6.425781 -24.308594 "/></g></g></g></g></g></g></g></g></g></mask><clipPath id="f211d76c4e"><path d="M 0.300781 0.785156 L 226.050781 0.785156 L 226.050781 184.535156 L 0.300781 184.535156 Z M 0.300781 0.785156 " clip-rule="nonzero"/></clipPath><clipPath id="3bc6835de5"><rect x="0" width="227" y="0" height="185"/></clipPath><clipPath id="e2242516ee"><rect x="0" width="227" y="0" height="185"/></clipPath></defs><g clip-path="url(#4634827bc1)"><path fill="#233d00" d="M 191.441406 155.441406 C 191.441406 155.433594 191.441406 155.429688 191.445312 155.421875 C 191.445312 155.425781 191.449219 155.425781 191.449219 155.429688 Z M 190.738281 148.601562 C 190.703125 148.5625 190.664062 148.527344 190.625 148.492188 C 191.324219 147.441406 192.027344 146.390625 192.734375 145.347656 C 192.835938 145.195312 192.960938 144.96875 193.097656 144.953125 C 194.554688 144.796875 195.179688 143.683594 195.863281 142.402344 C 196.476562 143.300781 197.0625 144.039062 197.507812 144.851562 C 197.960938 145.675781 198.601562 146.128906 199.492188 146.324219 C 199.902344 146.414062 200.316406 146.507812 200.566406 146.949219 C 202.542969 150.480469 205.265625 153.179688 209.402344 154.492188 C 208.332031 154.761719 204.328125 153.332031 203.34375 152.445312 C 203.074219 153.269531 202.816406 154.0625 202.554688 154.859375 C 202.511719 154.851562 202.46875 154.84375 202.425781 154.835938 C 202.285156 153.84375 202.15625 152.847656 202.003906 151.855469 C 201.953125 151.515625 202.046875 151.042969 201.492188 151.03125 C 201.027344 151.019531 200.511719 150.808594 200.175781 151.390625 C 199.980469 151.726562 199.730469 152.027344 199.746094 152.597656 C 198.816406 151.320312 199.519531 150.121094 199.453125 148.851562 C 198.195312 148.617188 197.042969 147.65625 195.523438 148.289062 C 195.773438 147.929688 196.019531 147.570312 196.269531 147.210938 C 197.15625 145.953125 197.15625 145.953125 196.183594 144.5625 C 195.09375 145.324219 193.625 145.648438 193.335938 147.289062 C 193.246094 147.785156 192.761719 147.863281 192.4375 148.011719 C 192.089844 147.945312 192.457031 147.53125 192.03125 147.542969 C 191.519531 147.742188 191.273438 148.355469 190.738281 148.601562 Z M 192.222656 147.59375 C 192.488281 147.5 192.644531 147.394531 192.421875 147.101562 C 192.335938 147.25 192.105469 147.273438 192.222656 147.59375 Z M 157.488281 156.269531 C 157.453125 156.226562 157.417969 156.191406 157.378906 156.15625 C 158.609375 154.902344 159.839844 153.652344 161.0625 152.398438 C 161.5 151.949219 162.105469 152.046875 162.628906 151.976562 C 163.195312 151.894531 163.585938 151.667969 163.945312 151.246094 C 164.621094 150.453125 165.335938 149.695312 166.0625 148.890625 C 167.164062 149.769531 168.011719 150.847656 169.207031 151.671875 C 169.820312 150.941406 170.457031 150.242188 171.023438 149.492188 C 171.660156 148.648438 172.425781 148.027344 173.453125 147.761719 C 173.960938 147.628906 174.292969 147.324219 174.546875 146.859375 C 175.078125 145.886719 175.691406 144.957031 176.230469 143.988281 C 176.65625 143.21875 177.070312 142.472656 178.238281 142.417969 C 177.574219 141.148438 178.503906 140.566406 179.144531 139.863281 C 179.988281 138.933594 180.84375 138.015625 181.742188 137.042969 C 182.25 138.078125 182.753906 138.996094 183.164062 139.957031 C 183.683594 141.171875 184.472656 142.101562 185.660156 142.683594 C 186.957031 143.316406 187.835938 144.296875 188.421875 145.628906 C 189.003906 146.945312 189.757812 148.183594 190.425781 149.460938 C 190.558594 149.71875 190.734375 149.921875 190.988281 150.050781 C 192.664062 150.882812 193.839844 152.257812 194.972656 153.691406 C 196.058594 155.066406 197.191406 156.402344 198.3125 157.75 C 198.234375 157.75 198.152344 157.753906 198.074219 157.753906 C 197.972656 157.753906 197.871094 157.75 197.769531 157.75 C 197.234375 157.320312 196.691406 156.894531 196.210938 156.40625 C 195.328125 155.511719 194.375 154.972656 193.011719 155.539062 C 192.933594 155.84375 192.832031 156.207031 193.03125 156.65625 C 193.136719 156.886719 193.15625 157.164062 193.101562 157.476562 C 192.980469 157.460938 192.859375 157.449219 192.734375 157.433594 C 192.199219 156.210938 192.300781 154.78125 191.328125 153.738281 C 191.179688 154.375 191.589844 154.878906 191.445312 155.421875 C 190.539062 154.65625 189.773438 153.738281 188.726562 153.113281 C 188.1875 152.789062 187.703125 152.398438 187.082031 152.226562 C 184.851562 151.613281 182.980469 150.273438 181 149.15625 C 180.554688 148.90625 180.347656 148.417969 180.125 147.992188 C 179.769531 147.304688 179.273438 147.015625 178.503906 147.082031 C 178.03125 147.125 177.546875 147.050781 176.867188 147.019531 C 178.050781 145.769531 179.042969 144.640625 180.125 143.605469 C 180.714844 143.039062 181.605469 143.367188 182.351562 143.132812 C 182.65625 141.851562 182.125 140.894531 181.152344 140.042969 C 180.488281 141.027344 179.367188 141.644531 179.003906 142.863281 C 178.988281 142.914062 178.925781 142.96875 178.875 142.988281 C 177.003906 143.644531 176.515625 145.484375 175.5625 146.90625 C 174.894531 147.90625 174.394531 149.019531 172.703125 149.167969 C 175.882812 150.925781 178.996094 152.371094 180.714844 155.324219 C 180.285156 155.242188 179.855469 155.160156 179.425781 155.082031 C 178.0625 154.078125 176.578125 153.269531 174.972656 152.703125 C 174.789062 152.636719 174.550781 152.695312 174.34375 152.730469 C 174.039062 152.785156 173.746094 152.902344 173.445312 152.945312 C 172.335938 153.105469 171.285156 153.359375 170.472656 154.011719 L 169.183594 153.984375 C 168.707031 153.988281 168.234375 153.996094 167.789062 154.011719 C 167.609375 154.019531 167.429688 154.027344 167.25 154.035156 C 167.75 153.617188 168.222656 153.152344 168.554688 152.503906 C 167.867188 151.957031 167.164062 151.390625 166.386719 150.765625 C 166.070312 151.6875 166.253906 152.488281 166.699219 153.472656 C 165.394531 153.0625 164.675781 153.628906 164.03125 154.332031 C 163.515625 154.402344 163.019531 154.484375 162.539062 154.582031 C 162.507812 154.464844 162.472656 154.347656 162.441406 154.222656 C 162.011719 154.453125 161.605469 154.667969 161.195312 154.890625 C 160.980469 154.949219 160.769531 155.007812 160.558594 155.066406 C 160.523438 154.804688 160.496094 154.5625 160.449219 154.222656 C 159.421875 154.933594 158.457031 155.597656 157.488281 156.269531 Z M 184.683594 146.484375 C 186.710938 149.078125 189.117188 151.09375 192.285156 152.214844 C 192.324219 151.859375 192.175781 151.777344 192.046875 151.714844 C 190.457031 150.925781 189.480469 149.570312 188.589844 148.105469 C 187.832031 146.855469 186.234375 146.222656 184.683594 146.484375 Z M 209.105469 156.238281 C 208.652344 156.667969 208.171875 157.0625 207.667969 157.410156 C 206.648438 158.105469 205.546875 158.636719 204.394531 159.007812 C 202.085938 159.75 199.625 159.890625 197.210938 159.695312 C 196 159.601562 194.796875 159.414062 193.605469 159.160156 C 193.015625 159.035156 192.425781 158.882812 191.851562 158.71875 L 190.070312 158.160156 L 189.15625 157.871094 C 188.851562 157.773438 188.542969 157.695312 188.234375 157.609375 C 187.617188 157.4375 187.003906 157.261719 186.386719 157.097656 C 185.765625 156.941406 185.144531 156.796875 184.523438 156.644531 C 183.898438 156.492188 183.273438 156.375 182.648438 156.234375 C 177.632812 155.214844 172.464844 154.734375 167.324219 155.121094 C 164.757812 155.328125 162.199219 155.75 159.734375 156.484375 C 158.503906 156.859375 157.289062 157.292969 156.128906 157.84375 C 155.550781 158.121094 154.980469 158.414062 154.429688 158.738281 C 153.882812 159.070312 153.34375 159.417969 152.863281 159.832031 C 153.421875 159.535156 154 159.285156 154.585938 159.066406 C 155.171875 158.84375 155.765625 158.644531 156.367188 158.46875 C 157.566406 158.121094 158.78125 157.847656 160.003906 157.636719 C 162.453125 157.21875 164.929688 157.035156 167.402344 157.015625 C 172.359375 156.988281 177.296875 157.613281 182.167969 158.59375 C 184.605469 159.074219 187.027344 159.675781 189.429688 160.335938 L 191.28125 160.835938 C 191.925781 161 192.570312 161.121094 193.21875 161.230469 C 194.511719 161.441406 195.816406 161.554688 197.128906 161.566406 C 198.4375 161.578125 199.753906 161.488281 201.050781 161.25 C 202.34375 161.015625 203.621094 160.644531 204.820312 160.09375 C 206.015625 159.539062 207.132812 158.816406 208.078125 157.917969 C 208.550781 157.472656 208.984375 156.992188 209.371094 156.476562 C 209.75 155.960938 210.09375 155.417969 210.378906 154.851562 C 209.980469 155.34375 209.5625 155.8125 209.105469 156.238281 Z M 209.105469 156.238281 " fill-opacity="1" fill-rule="nonzero"/></g><g clip-path="url(#3036d6c8a8)"><g transform="matrix(1, 0, 0, 1, 74, 82)"><g clip-path="url(#e2242516ee)"><g clip-path="url(#df53dc67fb)"><g mask="url(#7055792abc)"><g transform="matrix(1, 0, 0, 1, -0.000000000000014211, 0)"><g clip-path="url(#3bc6835de5)"><g clip-path="url(#f211d76c4e)"><path fill="url(#437e62a645)" d="M 0.300781 0.785156 L 0.300781 184.535156 L 226.050781 184.535156 L 226.050781 0.785156 Z M 0.300781 0.785156 " fill-rule="nonzero"/></g></g></g></g></g></g></g></g></svg>