<svg xmlns="http://www.w3.org/2000/svg" xmlns:xlink="http://www.w3.org/1999/xlink" width="500" zoomAndPan="magnify" viewBox="0 0 375 374.999991" height="500" preserveAspectRatio="xMidYMid meet" version="1.0"><defs><filter x="0%" y="0%" width="100%" height="100%" id="94fd9006ee"><feColorMatrix values="0 0 0 0 1 0 0 0 0 1 0 0 0 0 1 0 0 0 1 0" color-interpolation-filters="sRGB"/></filter><g/><mask id="7c8e64ba65"><g filter="url(#94fd9006ee)"><rect x="-37.5" width="450" fill="#000000" y="-37.499999" height="449.999989" fill-opacity="0.85"/></g></mask><clipPath id="adc1eeae0b"><path d="M 5 14 L 42 14 L 42 47.5 L 5 47.5 Z M 5 14 " clip-rule="nonzero"/></clipPath><clipPath id="cf588ff0e1"><path d="M 0.25 1 L 46.75 1 L 46.75 32 L 0.25 32 Z M 0.25 1 " clip-rule="nonzero"/></clipPath><clipPath id="e2a83ea549"><rect x="0" width="47" y="0" height="48"/></clipPath><clipPath id="8a6a5d0aaf"><path d="M 22.488281 106.5 L 352.488281 106.5 L 352.488281 268.5 L 22.488281 268.5 Z M 22.488281 106.5 " clip-rule="nonzero"/></clipPath><clipPath id="7ab9878510"><path d="M 0.488281 0.5 L 330.488281 0.5 L 330.488281 162.5 L 0.488281 162.5 Z M 0.488281 0.5 " clip-rule="nonzero"/></clipPath><clipPath id="b0de5ecd7b"><path d="M 10.988281 2.75 L 319.238281 2.75 L 319.238281 160.25 L 10.988281 160.25 Z M 10.988281 2.75 " clip-rule="nonzero"/></clipPath><linearGradient x1="140" gradientTransform="matrix(0.749825, 0, 0, 0.749996, 60.13855, 60.500457)" y1="133.000006" x2="140" gradientUnits="userSpaceOnUse" y2="-77.000989" id="1ed6882b01"><stop stop-opacity="1" stop-color="rgb(6.669617%, 19.999695%, 12.548828%)" offset="0"/><stop stop-opacity="1" stop-color="rgb(6.669617%, 19.999695%, 12.548828%)" offset="0.25"/><stop stop-opacity="1" stop-color="rgb(6.669617%, 19.999695%, 12.548828%)" offset="0.375"/><stop stop-opacity="1" stop-color="rgb(6.733704%, 20.274353%, 12.831116%)" offset="0.378906"/><stop stop-opacity="1" stop-color="rgb(6.797791%, 20.550537%, 13.113403%)" offset="0.382812"/><stop stop-opacity="1" stop-color="rgb(7.067871%, 21.708679%, 14.297485%)" offset="0.386719"/><stop stop-opacity="1" stop-color="rgb(7.337952%, 22.866821%, 15.481567%)" offset="0.390625"/><stop stop-opacity="1" stop-color="rgb(7.608032%, 24.024963%, 16.665649%)" offset="0.394531"/><stop stop-opacity="1" stop-color="rgb(7.878113%, 25.183105%, 17.849731%)" offset="0.398438"/><stop stop-opacity="1" stop-color="rgb(8.148193%, 26.341248%, 19.032288%)" offset="0.402344"/><stop stop-opacity="1" stop-color="rgb(8.418274%, 27.49939%, 20.21637%)" offset="0.40625"/><stop stop-opacity="1" stop-color="rgb(8.688354%, 28.656006%, 21.400452%)" offset="0.410156"/><stop stop-opacity="1" stop-color="rgb(8.958435%, 29.814148%, 22.584534%)" offset="0.414063"/><stop stop-opacity="1" stop-color="rgb(9.228516%, 30.97229%, 23.768616%)" offset="0.417969"/><stop stop-opacity="1" stop-color="rgb(9.498596%, 32.130432%, 24.952698%)" offset="0.421875"/><stop stop-opacity="1" stop-color="rgb(9.768677%, 33.288574%, 26.135254%)" offset="0.425781"/><stop stop-opacity="1" stop-color="rgb(10.038757%, 34.446716%, 27.319336%)" offset="0.429688"/><stop stop-opacity="1" stop-color="rgb(10.308838%, 35.604858%, 28.503418%)" offset="0.433594"/><stop stop-opacity="1" stop-color="rgb(10.578918%, 36.763%, 29.6875%)" offset="0.4375"/><stop stop-opacity="1" stop-color="rgb(10.848999%, 37.919617%, 30.871582%)" offset="0.441406"/><stop stop-opacity="1" stop-color="rgb(11.11908%, 39.077759%, 32.055664%)" offset="0.445312"/><stop stop-opacity="1" stop-color="rgb(11.38916%, 40.235901%, 33.239746%)" offset="0.449219"/><stop stop-opacity="1" stop-color="rgb(11.659241%, 41.394043%, 34.423828%)" offset="0.453125"/><stop stop-opacity="1" stop-color="rgb(11.929321%, 42.552185%, 35.606384%)" offset="0.457031"/><stop stop-opacity="1" stop-color="rgb(12.199402%, 43.710327%, 36.790466%)" offset="0.460938"/><stop stop-opacity="1" stop-color="rgb(12.469482%, 44.868469%, 37.974548%)" offset="0.464844"/><stop stop-opacity="1" stop-color="rgb(12.739563%, 46.026611%, 39.15863%)" offset="0.46875"/><stop stop-opacity="1" stop-color="rgb(13.009644%, 47.184753%, 40.342712%)" offset="0.472656"/><stop stop-opacity="1" stop-color="rgb(13.279724%, 48.342896%, 41.526794%)" offset="0.476563"/><stop stop-opacity="1" stop-color="rgb(13.549805%, 49.499512%, 42.710876%)" offset="0.480469"/><stop stop-opacity="1" stop-color="rgb(13.819885%, 50.657654%, 43.894958%)" offset="0.484375"/><stop stop-opacity="1" stop-color="rgb(14.089966%, 51.815796%, 45.077515%)" offset="0.488281"/><stop stop-opacity="1" stop-color="rgb(14.360046%, 52.973938%, 46.261597%)" offset="0.492188"/><stop stop-opacity="1" stop-color="rgb(14.630127%, 54.13208%, 47.445679%)" offset="0.496094"/><stop stop-opacity="1" stop-color="rgb(14.900208%, 55.290222%, 48.629761%)" offset="0.5"/><stop stop-opacity="1" stop-color="rgb(16.906738%, 56.756592%, 49.349976%)" offset="0.503906"/><stop stop-opacity="1" stop-color="rgb(18.914795%, 58.224487%, 50.07019%)" offset="0.507812"/><stop stop-opacity="1" stop-color="rgb(20.922852%, 59.690857%, 50.790405%)" offset="0.511719"/><stop stop-opacity="1" stop-color="rgb(22.930908%, 61.158752%, 51.512146%)" offset="0.515625"/><stop stop-opacity="1" stop-color="rgb(24.937439%, 62.625122%, 52.232361%)" offset="0.519531"/><stop stop-opacity="1" stop-color="rgb(26.945496%, 64.093018%, 52.952576%)" offset="0.523438"/><stop stop-opacity="1" stop-color="rgb(28.952026%, 65.559387%, 53.672791%)" offset="0.527344"/><stop stop-opacity="1" stop-color="rgb(30.960083%, 67.027283%, 54.394531%)" offset="0.53125"/><stop stop-opacity="1" stop-color="rgb(32.966614%, 68.493652%, 55.114746%)" offset="0.535156"/><stop stop-opacity="1" stop-color="rgb(34.97467%, 69.960022%, 55.834961%)" offset="0.539062"/><stop stop-opacity="1" stop-color="rgb(36.982727%, 71.426392%, 56.555176%)" offset="0.542969"/><stop stop-opacity="1" stop-color="rgb(38.990784%, 72.894287%, 57.276917%)" offset="0.546875"/><stop stop-opacity="1" stop-color="rgb(40.997314%, 74.360657%, 57.997131%)" offset="0.550781"/><stop stop-opacity="1" stop-color="rgb(43.005371%, 75.828552%, 58.717346%)" offset="0.554688"/><stop stop-opacity="1" stop-color="rgb(45.011902%, 77.294922%, 59.437561%)" offset="0.558594"/><stop stop-opacity="1" stop-color="rgb(47.019958%, 78.762817%, 60.159302%)" offset="0.5625"/><stop stop-opacity="1" stop-color="rgb(49.026489%, 80.229187%, 60.879517%)" offset="0.566406"/><stop stop-opacity="1" stop-color="rgb(51.034546%, 81.697083%, 61.599731%)" offset="0.570312"/><stop stop-opacity="1" stop-color="rgb(53.042603%, 83.163452%, 62.319946%)" offset="0.574219"/><stop stop-opacity="1" stop-color="rgb(55.050659%, 84.631348%, 63.041687%)" offset="0.578125"/><stop stop-opacity="1" stop-color="rgb(57.05719%, 86.097717%, 63.761902%)" offset="0.582031"/><stop stop-opacity="1" stop-color="rgb(59.065247%, 87.565613%, 64.482117%)" offset="0.585938"/><stop stop-opacity="1" stop-color="rgb(61.071777%, 89.031982%, 65.202332%)" offset="0.589844"/><stop stop-opacity="1" stop-color="rgb(63.079834%, 90.499878%, 65.922546%)" offset="0.59375"/><stop stop-opacity="1" stop-color="rgb(65.086365%, 91.966248%, 66.642761%)" offset="0.597656"/><stop stop-opacity="1" stop-color="rgb(67.094421%, 93.434143%, 67.364502%)" offset="0.601562"/><stop stop-opacity="1" stop-color="rgb(69.102478%, 94.900513%, 68.084717%)" offset="0.605469"/><stop stop-opacity="1" stop-color="rgb(71.110535%, 96.366882%, 68.804932%)" offset="0.609375"/><stop stop-opacity="1" stop-color="rgb(73.117065%, 97.833252%, 69.525146%)" offset="0.613281"/><stop stop-opacity="1" stop-color="rgb(75.125122%, 99.301147%, 70.246887%)" offset="0.617188"/><stop stop-opacity="1" stop-color="rgb(75.601196%, 99.650574%, 70.417786%)" offset="0.621094"/><stop stop-opacity="1" stop-color="rgb(76.078796%, 100%, 70.588684%)" offset="0.625"/><stop stop-opacity="1" stop-color="rgb(76.078796%, 100%, 70.588684%)" offset="0.75"/><stop stop-opacity="1" stop-color="rgb(76.078796%, 100%, 70.588684%)" offset="1"/></linearGradient><clipPath id="cc600dafff"><rect x="0" width="331" y="0" height="163"/></clipPath><clipPath id="66a972a5c5"><path d="M 0.488281 0.5 L 330.488281 0.5 L 330.488281 162.5 L 0.488281 162.5 Z M 0.488281 0.5 " clip-rule="nonzero"/></clipPath><clipPath id="80b7d7e37d"><rect x="0" width="331" y="0" height="163"/></clipPath><clipPath id="586fc638bf"><rect x="0" width="331" y="0" height="163"/></clipPath><mask id="f4bacc4980"><g filter="url(#94fd9006ee)"><g><g clip-path="url(#586fc638bf)"><g clip-path="url(#66a972a5c5)"><g><g clip-path="url(#80b7d7e37d)"><g fill="#000000" fill-opacity="1"><g transform="translate(71.329325, 91.249987)"><g><path d="M 23.140625 -1 C 21.929688 -0.601562 20.535156 -0.285156 18.953125 -0.046875 C 17.367188 0.179688 15.546875 0.296875 13.484375 0.296875 C 11.742188 0.296875 10.140625 0.0195312 8.671875 -0.53125 C 7.203125 -1.09375 5.925781 -1.878906 4.84375 -2.890625 C 3.757812 -3.910156 2.921875 -5.101562 2.328125 -6.46875 C 1.734375 -7.84375 1.4375 -9.347656 1.4375 -10.984375 C 1.4375 -12.628906 1.738281 -14.132812 2.34375 -15.5 C 2.945312 -16.863281 3.804688 -18.050781 4.921875 -19.0625 C 6.035156 -20.082031 7.34375 -20.867188 8.84375 -21.421875 C 10.351562 -21.984375 12.003906 -22.265625 13.796875 -22.265625 C 15.492188 -22.265625 16.921875 -22.128906 18.078125 -21.859375 C 19.242188 -21.585938 20.238281 -21.207031 21.0625 -20.71875 C 21.394531 -20.539062 21.703125 -20.394531 21.984375 -20.28125 C 22.265625 -20.175781 22.492188 -20.125 22.671875 -20.125 C 22.847656 -20.125 22.96875 -20.175781 23.03125 -20.28125 L 23.171875 -20.515625 L 23.640625 -20.53125 L 23.640625 -16.875 L 23 -16.875 L 22.703125 -17.40625 C 21.804688 -19.144531 20.578125 -20.367188 19.015625 -21.078125 C 17.453125 -21.796875 15.734375 -22.15625 13.859375 -22.15625 C 12.078125 -22.15625 10.492188 -21.675781 9.109375 -20.71875 C 7.722656 -19.757812 6.632812 -18.441406 5.84375 -16.765625 C 5.050781 -15.097656 4.65625 -13.191406 4.65625 -11.046875 C 4.65625 -8.972656 5.054688 -7.128906 5.859375 -5.515625 C 6.660156 -3.910156 7.765625 -2.648438 9.171875 -1.734375 C 10.578125 -0.816406 12.175781 -0.359375 13.96875 -0.359375 C 15.6875 -0.359375 17.125 -0.632812 18.28125 -1.1875 C 19.4375 -1.738281 20.082031 -2.46875 20.21875 -3.375 L 20.21875 -6.328125 C 20.21875 -7.046875 20.097656 -7.640625 19.859375 -8.109375 C 19.628906 -8.578125 19.335938 -8.8125 18.984375 -8.8125 L 18.78125 -8.8125 L 18.78125 -9.546875 L 24.578125 -9.546875 L 24.578125 -8.8125 L 24.375 -8.8125 C 24.144531 -8.8125 23.9375 -8.664062 23.75 -8.375 C 23.5625 -8.082031 23.410156 -7.742188 23.296875 -7.359375 C 23.191406 -6.984375 23.140625 -6.640625 23.140625 -6.328125 Z M 23.140625 -1 "/></g></g><g transform="translate(97.315652, 91.249987)"><g><path d="M 10.3125 -14.9375 C 12.050781 -14.9375 13.59375 -14.609375 14.9375 -13.953125 C 16.289062 -13.304688 17.351562 -12.410156 18.125 -11.265625 C 18.894531 -10.117188 19.28125 -8.804688 19.28125 -7.328125 C 19.28125 -5.859375 18.894531 -4.546875 18.125 -3.390625 C 17.351562 -2.242188 16.289062 -1.34375 14.9375 -0.6875 C 13.59375 -0.03125 12.050781 0.296875 10.3125 0.296875 C 8.570312 0.296875 7.023438 -0.03125 5.671875 -0.6875 C 4.316406 -1.34375 3.25 -2.242188 2.46875 -3.390625 C 1.695312 -4.546875 1.3125 -5.859375 1.3125 -7.328125 C 1.3125 -8.804688 1.695312 -10.117188 2.46875 -11.265625 C 3.25 -12.410156 4.316406 -13.304688 5.671875 -13.953125 C 7.023438 -14.609375 8.570312 -14.9375 10.3125 -14.9375 Z M 10.3125 -14.734375 C 9.101562 -14.734375 8.03125 -14.414062 7.09375 -13.78125 C 6.15625 -13.144531 5.414062 -12.269531 4.875 -11.15625 C 4.34375 -10.050781 4.078125 -8.773438 4.078125 -7.328125 C 4.078125 -5.898438 4.34375 -4.625 4.875 -3.5 C 5.414062 -2.375 6.15625 -1.492188 7.09375 -0.859375 C 8.03125 -0.222656 9.101562 0.09375 10.3125 0.09375 C 11.519531 0.09375 12.585938 -0.222656 13.515625 -0.859375 C 14.441406 -1.492188 15.175781 -2.375 15.71875 -3.5 C 16.257812 -4.625 16.53125 -5.898438 16.53125 -7.328125 C 16.53125 -8.773438 16.257812 -10.050781 15.71875 -11.15625 C 15.175781 -12.269531 14.441406 -13.144531 13.515625 -13.78125 C 12.585938 -14.414062 11.519531 -14.734375 10.3125 -14.734375 Z M 10.3125 -14.734375 "/></g></g><g transform="translate(117.911354, 91.249987)"><g><path d="M 3.109375 -4.6875 L 3.109375 -13.359375 L 1.203125 -13.359375 L 1.203125 -13.65625 L 5.421875 -18.171875 L 5.59375 -18.171875 L 5.59375 -14.65625 L 11.390625 -14.65625 L 11.390625 -13.328125 L 5.59375 -13.328125 L 5.53125 -4.125 C 5.53125 -3 5.8125 -2.175781 6.375 -1.65625 C 6.945312 -1.132812 7.664062 -0.875 8.53125 -0.875 C 9.363281 -0.875 10.117188 -1.0625 10.796875 -1.4375 C 11.472656 -1.820312 11.914062 -2.320312 12.125 -2.9375 L 12.421875 -2.8125 C 12.109375 -1.914062 11.507812 -1.171875 10.625 -0.578125 C 9.75 0.00390625 8.796875 0.296875 7.765625 0.296875 C 6.421875 0.296875 5.304688 -0.101562 4.421875 -0.90625 C 3.546875 -1.707031 3.109375 -2.96875 3.109375 -4.6875 Z M 3.109375 -4.6875 "/></g></g><g transform="translate(130.626197, 91.249987)"><g><path d="M 18.578125 -2.90625 L 23.203125 -13.015625 C 23.472656 -13.734375 23.53125 -14.09375 23.375 -14.09375 L 23.375 -14.671875 L 25.375 -14.671875 L 25.375 -14.09375 C 25.195312 -14.09375 25.003906 -13.972656 24.796875 -13.734375 C 24.597656 -13.503906 24.390625 -13.1875 24.171875 -12.78125 L 17.78125 0.296875 L 17.046875 0.296875 L 13.09375 -9.234375 L 8.171875 0.296875 L 7.4375 0.296875 L 1.546875 -12.78125 C 1.117188 -13.632812 0.738281 -14.0625 0.40625 -14.0625 L 0.40625 -14.65625 L 4.046875 -14.65625 L 4.125 -14 C 4.03125 -14 4.023438 -13.851562 4.109375 -13.5625 C 4.203125 -13.269531 4.347656 -12.878906 4.546875 -12.390625 C 5.285156 -10.773438 6.023438 -9.144531 6.765625 -7.5 C 7.503906 -5.863281 8.238281 -4.234375 8.96875 -2.609375 L 12.71875 -10.203125 C 12.582031 -10.566406 12.441406 -10.929688 12.296875 -11.296875 C 12.148438 -11.671875 12 -12.046875 11.84375 -12.421875 C 11.644531 -12.929688 11.4375 -13.328125 11.21875 -13.609375 C 11.007812 -13.890625 10.804688 -14.03125 10.609375 -14.03125 L 10.609375 -14.625 L 14.265625 -14.625 L 14.265625 -14.03125 C 14.171875 -14.03125 14.144531 -13.910156 14.1875 -13.671875 C 14.238281 -13.441406 14.332031 -13.132812 14.46875 -12.75 Z M 18.578125 -2.90625 "/></g></g><g transform="translate(156.934789, 91.249987)"><g><path d="M 4.1875 -9.96875 C 4.03125 -9.28125 3.953125 -8.554688 3.953125 -7.796875 C 3.953125 -6.367188 4.21875 -5.09375 4.75 -3.96875 C 5.289062 -2.84375 6.03125 -1.960938 6.96875 -1.328125 C 7.90625 -0.691406 8.972656 -0.375 10.171875 -0.375 C 11.421875 -0.375 12.582031 -0.523438 13.65625 -0.828125 C 14.726562 -1.140625 15.640625 -1.566406 16.390625 -2.109375 C 17.140625 -2.660156 17.644531 -3.273438 17.90625 -3.953125 L 17.984375 -3.921875 C 17.691406 -3.109375 17.148438 -2.382812 16.359375 -1.75 C 15.566406 -1.113281 14.613281 -0.613281 13.5 -0.25 C 12.394531 0.113281 11.207031 0.296875 9.9375 0.296875 C 8.269531 0.296875 6.785156 -0.00390625 5.484375 -0.609375 C 4.191406 -1.222656 3.171875 -2.0625 2.421875 -3.125 C 1.679688 -4.1875 1.3125 -5.398438 1.3125 -6.765625 C 1.3125 -8.660156 1.722656 -10.207031 2.546875 -11.40625 C 3.367188 -12.613281 4.492188 -13.503906 5.921875 -14.078125 C 7.347656 -14.648438 8.96875 -14.9375 10.78125 -14.9375 C 12.113281 -14.9375 13.328125 -14.757812 14.421875 -14.40625 C 15.515625 -14.0625 16.421875 -13.519531 17.140625 -12.78125 C 17.859375 -12.050781 18.316406 -11.113281 18.515625 -9.96875 Z M 10.75 -14.796875 C 9.132812 -14.796875 7.738281 -14.421875 6.5625 -13.671875 C 5.394531 -12.921875 4.613281 -11.734375 4.21875 -10.109375 L 15.734375 -10.140625 C 15.421875 -11.753906 14.8125 -12.929688 13.90625 -13.671875 C 13 -14.421875 11.945312 -14.796875 10.75 -14.796875 Z M 10.75 -14.796875 "/></g></g><g transform="translate(176.329319, 91.249987)"><g><path d="M 0.5625 -0.59375 C 0.925781 -0.59375 1.109375 -0.738281 1.109375 -1.03125 L 1.109375 -19.359375 C 1.109375 -19.773438 1.0625 -20.144531 0.96875 -20.46875 C 0.875 -20.789062 0.738281 -21.007812 0.5625 -21.125 L 0.5 -21.453125 C 0.59375 -21.484375 0.6875 -21.515625 0.78125 -21.546875 C 0.882812 -21.578125 0.984375 -21.601562 1.078125 -21.625 L 1.078125 -21.65625 L 1.171875 -21.65625 C 1.578125 -21.769531 1.976562 -21.875 2.375 -21.96875 L 3.609375 -21.96875 L 3.609375 -1.03125 C 3.609375 -0.738281 3.789062 -0.59375 4.15625 -0.59375 L 4.15625 0 L 0.5625 0 Z M 0.5625 -0.59375 "/></g></g><g transform="translate(181.368381, 91.249987)"><g><path d="M 0.5625 -0.59375 C 0.925781 -0.59375 1.109375 -0.738281 1.109375 -1.03125 L 1.109375 -19.359375 C 1.109375 -19.773438 1.0625 -20.144531 0.96875 -20.46875 C 0.875 -20.789062 0.738281 -21.007812 0.5625 -21.125 L 0.5 -21.453125 C 0.59375 -21.484375 0.6875 -21.515625 0.78125 -21.546875 C 0.882812 -21.578125 0.984375 -21.601562 1.078125 -21.625 L 1.078125 -21.65625 L 1.171875 -21.65625 C 1.578125 -21.769531 1.976562 -21.875 2.375 -21.96875 L 3.609375 -21.96875 L 3.609375 -1.03125 C 3.609375 -0.738281 3.789062 -0.59375 4.15625 -0.59375 L 4.15625 0 L 0.5625 0 Z M 0.5625 -0.59375 "/></g></g><g transform="translate(186.407443, 91.249987)"><g><path d="M 10.375 -14.421875 C 11.019531 -14.179688 11.535156 -13.984375 11.921875 -13.828125 C 12.316406 -13.671875 12.492188 -13.582031 12.453125 -13.5625 L 12.5625 -13.59375 L 12.953125 -13.59375 L 12.953125 -11.375 L 12.546875 -11.375 C 12.285156 -12.15625 11.867188 -12.789062 11.296875 -13.28125 C 10.722656 -13.78125 10.0625 -14.15625 9.3125 -14.40625 C 8.570312 -14.664062 7.820312 -14.796875 7.0625 -14.796875 C 6.03125 -14.796875 5.175781 -14.53125 4.5 -14 C 3.820312 -13.476562 3.484375 -12.804688 3.484375 -11.984375 C 3.484375 -11.296875 3.914062 -10.609375 4.78125 -9.921875 C 5.65625 -9.242188 6.882812 -8.691406 8.46875 -8.265625 C 10.144531 -7.816406 11.4375 -7.179688 12.34375 -6.359375 C 13.257812 -5.535156 13.71875 -4.6875 13.71875 -3.8125 C 13.71875 -3.03125 13.46875 -2.328125 12.96875 -1.703125 C 12.46875 -1.078125 11.78125 -0.585938 10.90625 -0.234375 C 10.039062 0.117188 9.039062 0.296875 7.90625 0.296875 C 6.8125 0.296875 5.769531 0.109375 4.78125 -0.265625 C 4.539062 -0.378906 4.21875 -0.53125 3.8125 -0.71875 C 3.414062 -0.90625 3.054688 -1.066406 2.734375 -1.203125 C 2.410156 -1.335938 2.25 -1.40625 2.25 -1.40625 L 2.171875 -1.3125 L 1.765625 -1.3125 L 1.765625 -3.84375 L 2.171875 -3.84375 L 2.28125 -3.578125 C 2.570312 -2.816406 3.003906 -2.15625 3.578125 -1.59375 C 4.160156 -1.039062 4.828125 -0.613281 5.578125 -0.3125 C 6.328125 -0.0078125 7.101562 0.140625 7.90625 0.140625 C 9.039062 0.140625 9.96875 -0.164062 10.6875 -0.78125 C 11.414062 -1.394531 11.78125 -2.171875 11.78125 -3.109375 C 11.78125 -3.734375 11.398438 -4.34375 10.640625 -4.9375 C 9.878906 -5.53125 8.796875 -6.015625 7.390625 -6.390625 C 5.585938 -6.878906 4.191406 -7.554688 3.203125 -8.421875 C 2.222656 -9.296875 1.734375 -10.203125 1.734375 -11.140625 C 1.734375 -11.878906 1.960938 -12.53125 2.421875 -13.09375 C 2.878906 -13.664062 3.507812 -14.113281 4.3125 -14.4375 C 5.113281 -14.769531 6.03125 -14.9375 7.0625 -14.9375 C 8.0625 -14.9375 8.96875 -14.820312 9.78125 -14.59375 L 9.8125 -14.65625 C 9.875 -14.632812 9.984375 -14.582031 10.140625 -14.5 C 10.296875 -14.425781 10.375 -14.398438 10.375 -14.421875 Z M 10.375 -14.421875 "/></g></g><g transform="translate(201.583224, 91.249987)"><g><path d="M 10.3125 -14.9375 C 12.050781 -14.9375 13.59375 -14.609375 14.9375 -13.953125 C 16.289062 -13.304688 17.351562 -12.410156 18.125 -11.265625 C 18.894531 -10.117188 19.28125 -8.804688 19.28125 -7.328125 C 19.28125 -5.859375 18.894531 -4.546875 18.125 -3.390625 C 17.351562 -2.242188 16.289062 -1.34375 14.9375 -0.6875 C 13.59375 -0.03125 12.050781 0.296875 10.3125 0.296875 C 8.570312 0.296875 7.023438 -0.03125 5.671875 -0.6875 C 4.316406 -1.34375 3.25 -2.242188 2.46875 -3.390625 C 1.695312 -4.546875 1.3125 -5.859375 1.3125 -7.328125 C 1.3125 -8.804688 1.695312 -10.117188 2.46875 -11.265625 C 3.25 -12.410156 4.316406 -13.304688 5.671875 -13.953125 C 7.023438 -14.609375 8.570312 -14.9375 10.3125 -14.9375 Z M 10.3125 -14.734375 C 9.101562 -14.734375 8.03125 -14.414062 7.09375 -13.78125 C 6.15625 -13.144531 5.414062 -12.269531 4.875 -11.15625 C 4.34375 -10.050781 4.078125 -8.773438 4.078125 -7.328125 C 4.078125 -5.898438 4.34375 -4.625 4.875 -3.5 C 5.414062 -2.375 6.15625 -1.492188 7.09375 -0.859375 C 8.03125 -0.222656 9.101562 0.09375 10.3125 0.09375 C 11.519531 0.09375 12.585938 -0.222656 13.515625 -0.859375 C 14.441406 -1.492188 15.175781 -2.375 15.71875 -3.5 C 16.257812 -4.625 16.53125 -5.898438 16.53125 -7.328125 C 16.53125 -8.773438 16.257812 -10.050781 15.71875 -11.15625 C 15.175781 -12.269531 14.441406 -13.144531 13.515625 -13.78125 C 12.585938 -14.414062 11.519531 -14.734375 10.3125 -14.734375 Z M 10.3125 -14.734375 "/></g></g><g transform="translate(222.178926, 91.249987)"><g><path d="M 10.3125 -14.9375 C 12.050781 -14.9375 13.59375 -14.609375 14.9375 -13.953125 C 16.289062 -13.304688 17.351562 -12.410156 18.125 -11.265625 C 18.894531 -10.117188 19.28125 -8.804688 19.28125 -7.328125 C 19.28125 -5.859375 18.894531 -4.546875 18.125 -3.390625 C 17.351562 -2.242188 16.289062 -1.34375 14.9375 -0.6875 C 13.59375 -0.03125 12.050781 0.296875 10.3125 0.296875 C 8.570312 0.296875 7.023438 -0.03125 5.671875 -0.6875 C 4.316406 -1.34375 3.25 -2.242188 2.46875 -3.390625 C 1.695312 -4.546875 1.3125 -5.859375 1.3125 -7.328125 C 1.3125 -8.804688 1.695312 -10.117188 2.46875 -11.265625 C 3.25 -12.410156 4.316406 -13.304688 5.671875 -13.953125 C 7.023438 -14.609375 8.570312 -14.9375 10.3125 -14.9375 Z M 10.3125 -14.734375 C 9.101562 -14.734375 8.03125 -14.414062 7.09375 -13.78125 C 6.15625 -13.144531 5.414062 -12.269531 4.875 -11.15625 C 4.34375 -10.050781 4.078125 -8.773438 4.078125 -7.328125 C 4.078125 -5.898438 4.34375 -4.625 4.875 -3.5 C 5.414062 -2.375 6.15625 -1.492188 7.09375 -0.859375 C 8.03125 -0.222656 9.101562 0.09375 10.3125 0.09375 C 11.519531 0.09375 12.585938 -0.222656 13.515625 -0.859375 C 14.441406 -1.492188 15.175781 -2.375 15.71875 -3.5 C 16.257812 -4.625 16.53125 -5.898438 16.53125 -7.328125 C 16.53125 -8.773438 16.257812 -10.050781 15.71875 -11.15625 C 15.175781 -12.269531 14.441406 -13.144531 13.515625 -13.78125 C 12.585938 -14.414062 11.519531 -14.734375 10.3125 -14.734375 Z M 10.3125 -14.734375 "/></g></g><g transform="translate(242.774627, 91.249987)"><g><path d="M 12.390625 -0.59375 C 12.765625 -0.59375 12.953125 -0.738281 12.953125 -1.03125 L 12.953125 -9.109375 C 12.953125 -10.441406 12.632812 -11.539062 12 -12.40625 C 11.363281 -13.28125 10.46875 -13.71875 9.3125 -13.71875 C 8.664062 -13.71875 7.988281 -13.578125 7.28125 -13.296875 C 6.582031 -13.023438 5.910156 -12.660156 5.265625 -12.203125 C 4.628906 -11.742188 4.078125 -11.210938 3.609375 -10.609375 L 3.609375 -1.03125 C 3.609375 -0.738281 3.789062 -0.59375 4.15625 -0.59375 L 4.15625 0 L 0.5625 0 L 0.5625 -0.59375 C 0.925781 -0.59375 1.109375 -0.738281 1.109375 -1.03125 L 1.109375 -12.046875 C 1.109375 -12.453125 1.0625 -12.816406 0.96875 -13.140625 C 0.875 -13.460938 0.738281 -13.679688 0.5625 -13.796875 L 0.5 -14.125 C 0.59375 -14.164062 0.6875 -14.195312 0.78125 -14.21875 C 0.882812 -14.25 0.984375 -14.273438 1.078125 -14.296875 L 1.078125 -14.328125 L 1.171875 -14.328125 C 1.578125 -14.441406 1.976562 -14.550781 2.375 -14.65625 L 3.609375 -14.65625 L 3.609375 -11.015625 C 4.191406 -11.773438 4.851562 -12.453125 5.59375 -13.046875 C 6.332031 -13.648438 7.097656 -14.113281 7.890625 -14.4375 C 8.679688 -14.769531 9.421875 -14.9375 10.109375 -14.9375 C 11.242188 -14.9375 12.207031 -14.679688 13 -14.171875 C 13.789062 -13.671875 14.394531 -12.984375 14.8125 -12.109375 C 15.226562 -11.242188 15.4375 -10.242188 15.4375 -9.109375 L 15.4375 -1.03125 C 15.4375 -0.738281 15.625 -0.59375 16 -0.59375 L 16 0 L 12.390625 0 Z M 12.390625 -0.59375 "/></g></g></g></g></g></g></g></g></g></mask><clipPath id="646ce8b874"><path d="M 10.988281 2.75 L 319.238281 2.75 L 319.238281 160.25 L 10.988281 160.25 Z M 10.988281 2.75 " clip-rule="nonzero"/></clipPath><clipPath id="aff79ce732"><rect x="0" width="331" y="0" height="163"/></clipPath><clipPath id="8444cc5e64"><rect x="0" width="331" y="0" height="163"/></clipPath></defs><g mask="url(#7c8e64ba65)"><g transform="matrix(1, 0, 0, 1, 164, 122)"><g clip-path="url(#e2a83ea549)"><g clip-path="url(#adc1eeae0b)"><path fill="#192e5b" d="M 18.492188 41.386719 L 25.199219 41.386719 C 27.574219 41.386719 29.558594 43.136719 29.929688 45.414062 C 29.964844 45.886719 29.988281 46.355469 29.996094 46.839844 L 31.320312 46.839844 C 32.902344 46.839844 34.234375 45.773438 34.59375 44.238281 C 34.953125 42.699219 34.226562 41.816406 32.8125 41.121094 L 29.023438 39.257812 L 29.023438 32.84375 L 31.074219 36.488281 C 31.367188 37.003906 31.8125 37.328125 32.386719 37.453125 L 38.070312 38.675781 C 39.683594 39.035156 41.300781 37.992188 41.648438 36.375 L 41.894531 35.222656 L 34.226562 33.5625 L 31.894531 29.480469 C 30.601562 26.824219 27.878906 24.984375 24.75 24.984375 L 22.238281 24.984375 C 19.109375 24.984375 16.386719 26.824219 15.097656 29.480469 L 12.761719 33.5625 L 5.09375 35.222656 L 5.339844 36.375 C 5.6875 37.992188 7.304688 39.035156 8.917969 38.675781 L 14.601562 37.453125 C 15.175781 37.328125 15.621094 37.003906 15.914062 36.488281 L 17.964844 32.84375 L 17.964844 39.257812 L 14.1875 41.121094 C 12.765625 41.816406 12.035156 43.363281 12.394531 44.898438 C 12.753906 46.433594 14.085938 47.488281 15.667969 47.488281 L 28.5625 47.488281 L 28.5625 46.175781 C 28.5625 44.328125 27.046875 42.8125 25.199219 42.8125 L 18.492188 42.8125 C 18.113281 42.789062 17.820312 42.476562 17.820312 42.09375 C 17.820312 41.714844 18.113281 41.398438 18.492188 41.386719 Z M 23.492188 14.230469 C 26.074219 14.230469 28.167969 16.316406 28.167969 18.894531 C 28.167969 21.476562 26.074219 23.570312 23.492188 23.570312 C 20.914062 23.570312 18.820312 21.476562 18.820312 18.894531 C 18.820312 16.316406 20.914062 14.230469 23.492188 14.230469 Z M 23.472656 34.785156 C 20.535156 33.628906 19.210938 31.082031 19.703125 29.59375 C 20.289062 27.777344 22.855469 27.96875 23.492188 29.300781 C 24.132812 27.96875 26.699219 27.777344 27.296875 29.59375 C 27.777344 31.082031 26.453125 33.628906 23.527344 34.785156 C 23.515625 34.796875 23.472656 34.796875 23.472656 34.785156 Z M 23.472656 34.785156 " fill-opacity="1" fill-rule="evenodd"/></g><g clip-path="url(#cf588ff0e1)"><path fill="#99e17a" d="M 11.609375 30.804688 C 11.898438 30.9375 12.191406 31.0625 12.484375 31.183594 L 13.839844 28.820312 C 15.0625 26.320312 17.316406 24.523438 19.941406 23.851562 C 18.402344 22.742188 17.394531 20.9375 17.394531 18.894531 C 17.394531 15.53125 20.128906 12.808594 23.492188 12.808594 C 26.859375 12.808594 29.59375 15.53125 29.59375 18.894531 C 29.59375 20.9375 28.585938 22.742188 27.046875 23.851562 C 29.671875 24.523438 31.925781 26.320312 33.148438 28.820312 L 34.503906 31.183594 C 34.796875 31.0625 35.089844 30.9375 35.378906 30.804688 C 40.628906 27.820312 44.699219 23.03125 46.738281 17.246094 C 44.035156 16.742188 41.3125 16.6875 38.652344 17.058594 C 38.070312 18.671875 37.320312 20.242188 36.421875 21.710938 C 36.21875 22.035156 35.785156 22.136719 35.457031 21.933594 C 35.121094 21.730469 35.019531 21.304688 35.210938 20.96875 C 38.394531 15.710938 39.574219 9.421875 38.429688 3.277344 C 35.078125 4.464844 32.050781 6.324219 29.527344 8.714844 C 30.03125 10.195312 30.414062 11.71875 30.660156 13.265625 C 30.648438 13.613281 30.402344 13.917969 30.042969 13.960938 C 29.695312 14.019531 29.359375 13.816406 29.246094 13.480469 C 28.527344 8.925781 26.566406 4.597656 23.492188 1 C 20.421875 4.597656 18.460938 8.925781 17.742188 13.480469 C 17.628906 13.816406 17.292969 14.019531 16.945312 13.960938 C 16.597656 13.917969 16.339844 13.613281 16.328125 13.265625 C 16.574219 11.71875 16.957031 10.195312 17.472656 8.714844 C 14.9375 6.324219 11.921875 4.464844 8.558594 3.277344 C 7.414062 9.421875 8.59375 15.710938 11.777344 20.96875 C 11.976562 21.304688 11.867188 21.734375 11.53125 21.933594 C 11.203125 22.136719 10.765625 22.035156 10.566406 21.710938 C 9.667969 20.242188 8.929688 18.671875 8.335938 17.058594 C 5.675781 16.6875 2.953125 16.742188 0.25 17.246094 C 2.289062 23.035156 6.359375 27.820312 11.609375 30.804688 Z M 11.609375 30.804688 " fill-opacity="1" fill-rule="evenodd"/></g></g></g></g><g clip-path="url(#8a6a5d0aaf)"><g transform="matrix(1, 0, 0, 1, 22, 106)"><g clip-path="url(#8444cc5e64)"><g clip-path="url(#7ab9878510)"><g mask="url(#f4bacc4980)"><g><g clip-path="url(#aff79ce732)"><g clip-path="url(#646ce8b874)"><path fill="url(#1ed6882b01)" d="M 10.988281 2.75 L 10.988281 160.25 L 319.238281 160.25 L 319.238281 2.75 Z M 10.988281 2.75 " fill-rule="nonzero"/></g></g></g></g></g></g></g></g></svg>