<svg xmlns="http://www.w3.org/2000/svg" xmlns:xlink="http://www.w3.org/1999/xlink" width="500" zoomAndPan="magnify" viewBox="0 0 375 374.999991" height="500" preserveAspectRatio="xMidYMid meet" version="1.0"><defs><filter x="0%" y="0%" width="100%" height="100%" id="4d29b2bb69"><feColorMatrix values="0 0 0 0 1 0 0 0 0 1 0 0 0 0 1 0 0 0 1 0" color-interpolation-filters="sRGB"/></filter><g/><clipPath id="f95da9a1b3"><path d="M 139.429688 135.847656 L 203.929688 135.847656 L 203.929688 195.847656 L 139.429688 195.847656 Z M 139.429688 135.847656 " clip-rule="nonzero"/></clipPath><clipPath id="2447a681a8"><path d="M 30 37 L 40 37 L 40 60.847656 L 30 60.847656 Z M 30 37 " clip-rule="nonzero"/></clipPath><clipPath id="bf05259671"><path d="M 0.429688 0.847656 L 64.625 0.847656 L 64.625 43 L 0.429688 43 Z M 0.429688 0.847656 " clip-rule="nonzero"/></clipPath><clipPath id="d9dbee6a6b"><rect x="0" width="65" y="0" height="61"/></clipPath><clipPath id="57bacf4f25"><path d="M 51.753906 90.5 L 323.253906 90.5 L 323.253906 278.75 L 51.753906 278.75 Z M 51.753906 90.5 " clip-rule="nonzero"/></clipPath><clipPath id="adfedd2143"><path d="M 0.753906 0.5 L 272.253906 0.5 L 272.253906 188.75 L 0.753906 188.75 Z M 0.753906 0.5 " clip-rule="nonzero"/></clipPath><clipPath id="a8810986ef"><path d="M 0.757812 2.75 L 272.25 2.75 L 272.25 186.5 L 0.757812 186.5 Z M 0.757812 2.75 " clip-rule="nonzero"/></clipPath><linearGradient x1="87.991997" gradientTransform="matrix(0.748707, 0, 0, 0.751021, 70.623709, 70.592685)" y1="-90.333995" x2="87.991997" gradientUnits="userSpaceOnUse" y2="154.332976" id="ea40424246"><stop stop-opacity="1" stop-color="rgb(53.329468%, 53.329468%, 53.329468%)" offset="0"/><stop stop-opacity="1" stop-color="rgb(53.329468%, 53.329468%, 53.329468%)" offset="0.25"/><stop stop-opacity="1" stop-color="rgb(53.329468%, 53.329468%, 53.329468%)" offset="0.375"/><stop stop-opacity="1" stop-color="rgb(53.178406%, 53.178406%, 53.178406%)" offset="0.382812"/><stop stop-opacity="1" stop-color="rgb(52.148438%, 52.148438%, 52.148438%)" offset="0.386719"/><stop stop-opacity="1" stop-color="rgb(51.271057%, 51.271057%, 51.271057%)" offset="0.390625"/><stop stop-opacity="1" stop-color="rgb(50.392151%, 50.392151%, 50.392151%)" offset="0.394531"/><stop stop-opacity="1" stop-color="rgb(49.513245%, 49.513245%, 49.513245%)" offset="0.398438"/><stop stop-opacity="1" stop-color="rgb(48.634338%, 48.634338%, 48.634338%)" offset="0.402344"/><stop stop-opacity="1" stop-color="rgb(47.755432%, 47.755432%, 47.755432%)" offset="0.40625"/><stop stop-opacity="1" stop-color="rgb(46.876526%, 46.876526%, 46.876526%)" offset="0.410156"/><stop stop-opacity="1" stop-color="rgb(45.99762%, 45.99762%, 45.99762%)" offset="0.414062"/><stop stop-opacity="1" stop-color="rgb(45.118713%, 45.118713%, 45.118713%)" offset="0.417969"/><stop stop-opacity="1" stop-color="rgb(44.239807%, 44.239807%, 44.239807%)" offset="0.421875"/><stop stop-opacity="1" stop-color="rgb(43.360901%, 43.360901%, 43.360901%)" offset="0.425781"/><stop stop-opacity="1" stop-color="rgb(42.481995%, 42.481995%, 42.481995%)" offset="0.429688"/><stop stop-opacity="1" stop-color="rgb(41.603088%, 41.603088%, 41.603088%)" offset="0.433594"/><stop stop-opacity="1" stop-color="rgb(40.725708%, 40.725708%, 40.725708%)" offset="0.4375"/><stop stop-opacity="1" stop-color="rgb(39.846802%, 39.846802%, 39.846802%)" offset="0.441406"/><stop stop-opacity="1" stop-color="rgb(38.967896%, 38.967896%, 38.967896%)" offset="0.445312"/><stop stop-opacity="1" stop-color="rgb(38.088989%, 38.088989%, 38.088989%)" offset="0.449219"/><stop stop-opacity="1" stop-color="rgb(37.210083%, 37.210083%, 37.210083%)" offset="0.453125"/><stop stop-opacity="1" stop-color="rgb(36.331177%, 36.331177%, 36.331177%)" offset="0.457031"/><stop stop-opacity="1" stop-color="rgb(35.452271%, 35.452271%, 35.452271%)" offset="0.460938"/><stop stop-opacity="1" stop-color="rgb(34.573364%, 34.573364%, 34.573364%)" offset="0.464844"/><stop stop-opacity="1" stop-color="rgb(33.694458%, 33.694458%, 33.694458%)" offset="0.46875"/><stop stop-opacity="1" stop-color="rgb(32.815552%, 32.815552%, 32.815552%)" offset="0.472656"/><stop stop-opacity="1" stop-color="rgb(31.936646%, 31.936646%, 31.936646%)" offset="0.476563"/><stop stop-opacity="1" stop-color="rgb(31.057739%, 31.057739%, 31.057739%)" offset="0.480469"/><stop stop-opacity="1" stop-color="rgb(30.180359%, 30.180359%, 30.180359%)" offset="0.484375"/><stop stop-opacity="1" stop-color="rgb(29.301453%, 29.301453%, 29.301453%)" offset="0.488281"/><stop stop-opacity="1" stop-color="rgb(28.422546%, 28.422546%, 28.422546%)" offset="0.492188"/><stop stop-opacity="1" stop-color="rgb(27.54364%, 27.54364%, 27.54364%)" offset="0.496094"/><stop stop-opacity="1" stop-color="rgb(26.664734%, 26.664734%, 26.664734%)" offset="0.5"/><stop stop-opacity="1" stop-color="rgb(25.785828%, 25.785828%, 25.785828%)" offset="0.503906"/><stop stop-opacity="1" stop-color="rgb(24.906921%, 24.906921%, 24.906921%)" offset="0.507812"/><stop stop-opacity="1" stop-color="rgb(24.028015%, 24.028015%, 24.028015%)" offset="0.511719"/><stop stop-opacity="1" stop-color="rgb(23.149109%, 23.149109%, 23.149109%)" offset="0.515625"/><stop stop-opacity="1" stop-color="rgb(22.270203%, 22.270203%, 22.270203%)" offset="0.519531"/><stop stop-opacity="1" stop-color="rgb(21.391296%, 21.391296%, 21.391296%)" offset="0.523438"/><stop stop-opacity="1" stop-color="rgb(20.51239%, 20.51239%, 20.51239%)" offset="0.527344"/><stop stop-opacity="1" stop-color="rgb(19.63501%, 19.63501%, 19.63501%)" offset="0.53125"/><stop stop-opacity="1" stop-color="rgb(18.756104%, 18.756104%, 18.756104%)" offset="0.535156"/><stop stop-opacity="1" stop-color="rgb(17.877197%, 17.877197%, 17.877197%)" offset="0.539062"/><stop stop-opacity="1" stop-color="rgb(16.998291%, 16.998291%, 16.998291%)" offset="0.542969"/><stop stop-opacity="1" stop-color="rgb(16.119385%, 16.119385%, 16.119385%)" offset="0.546875"/><stop stop-opacity="1" stop-color="rgb(15.240479%, 15.240479%, 15.240479%)" offset="0.550781"/><stop stop-opacity="1" stop-color="rgb(14.361572%, 14.361572%, 14.361572%)" offset="0.554688"/><stop stop-opacity="1" stop-color="rgb(13.482666%, 13.482666%, 13.482666%)" offset="0.558594"/><stop stop-opacity="1" stop-color="rgb(12.60376%, 12.60376%, 12.60376%)" offset="0.5625"/><stop stop-opacity="1" stop-color="rgb(11.724854%, 11.724854%, 11.724854%)" offset="0.566406"/><stop stop-opacity="1" stop-color="rgb(10.845947%, 10.845947%, 10.845947%)" offset="0.570312"/><stop stop-opacity="1" stop-color="rgb(9.967041%, 9.967041%, 9.967041%)" offset="0.574219"/><stop stop-opacity="1" stop-color="rgb(9.089661%, 9.089661%, 9.089661%)" offset="0.578125"/><stop stop-opacity="1" stop-color="rgb(8.210754%, 8.210754%, 8.210754%)" offset="0.582031"/><stop stop-opacity="1" stop-color="rgb(7.331848%, 7.331848%, 7.331848%)" offset="0.585938"/><stop stop-opacity="1" stop-color="rgb(6.452942%, 6.452942%, 6.452942%)" offset="0.589844"/><stop stop-opacity="1" stop-color="rgb(5.574036%, 5.574036%, 5.574036%)" offset="0.59375"/><stop stop-opacity="1" stop-color="rgb(4.695129%, 4.695129%, 4.695129%)" offset="0.597656"/><stop stop-opacity="1" stop-color="rgb(3.816223%, 3.816223%, 3.816223%)" offset="0.601562"/><stop stop-opacity="1" stop-color="rgb(2.937317%, 2.937317%, 2.937317%)" offset="0.605469"/><stop stop-opacity="1" stop-color="rgb(2.058411%, 2.058411%, 2.058411%)" offset="0.609375"/><stop stop-opacity="1" stop-color="rgb(1.179504%, 1.179504%, 1.179504%)" offset="0.613281"/><stop stop-opacity="1" stop-color="rgb(0.302124%, 0.302124%, 0.302124%)" offset="0.617188"/><stop stop-opacity="1" stop-color="rgb(0.151062%, 0.151062%, 0.151062%)" offset="0.625"/><stop stop-opacity="1" stop-color="rgb(0%, 0%, 0%)" offset="0.75"/><stop stop-opacity="1" stop-color="rgb(0%, 0%, 0%)" offset="1"/></linearGradient><clipPath id="0b3a98578c"><rect x="0" width="273" y="0" height="189"/></clipPath><clipPath id="75e65fefb0"><path d="M 0.753906 0.5 L 272.253906 0.5 L 272.253906 188.75 L 0.753906 188.75 Z M 0.753906 0.5 " clip-rule="nonzero"/></clipPath><clipPath id="726c8bd200"><rect x="0" width="273" y="0" height="189"/></clipPath><clipPath id="73bfd2d83e"><rect x="0" width="273" y="0" height="189"/></clipPath><mask id="570a63ce9b"><g filter="url(#4d29b2bb69)"><g><g clip-path="url(#73bfd2d83e)"><g clip-path="url(#75e65fefb0)"><g><g clip-path="url(#726c8bd200)"><g fill="#000000" fill-opacity="1"><g transform="translate(70.51562, 105.499967)"><g><path d="M 22.5 0 L 18.625 0 C 18.101562 0 17.71875 -0.0703125 17.46875 -0.21875 C 17.226562 -0.375 17.015625 -0.59375 16.828125 -0.875 L 9 -12.671875 L 9 -0.875 C 9 -0.644531 8.910156 -0.441406 8.734375 -0.265625 C 8.554688 -0.0859375 8.351562 0 8.125 0 L 2.625 0 C 2.394531 0 2.191406 -0.0859375 2.015625 -0.265625 C 1.835938 -0.441406 1.75 -0.644531 1.75 -0.875 L 1.75 -23.625 C 1.75 -23.882812 1.835938 -24.09375 2.015625 -24.25 C 2.191406 -24.414062 2.394531 -24.5 2.625 -24.5 L 6.65625 -24.5 C 7.070312 -24.5 7.40625 -24.410156 7.65625 -24.234375 C 7.914062 -24.054688 8.234375 -23.722656 8.609375 -23.234375 C 8.722656 -23.078125 8.988281 -22.691406 9.40625 -22.078125 C 9.832031 -21.472656 10.332031 -20.75 10.90625 -19.90625 C 11.476562 -19.070312 12.066406 -18.191406 12.671875 -17.265625 C 13.273438 -16.347656 13.84375 -15.492188 14.375 -14.703125 C 14.914062 -13.910156 15.347656 -13.269531 15.671875 -12.78125 C 16.003906 -12.289062 16.171875 -12.046875 16.171875 -12.046875 L 16.171875 -23.625 C 16.171875 -23.882812 16.253906 -24.09375 16.421875 -24.25 C 16.597656 -24.414062 16.804688 -24.5 17.046875 -24.5 L 22.5 -24.5 C 22.757812 -24.5 22.96875 -24.414062 23.125 -24.25 C 23.289062 -24.09375 23.375 -23.882812 23.375 -23.625 L 23.375 -0.875 C 23.375 -0.644531 23.289062 -0.441406 23.125 -0.265625 C 22.96875 -0.0859375 22.757812 0 22.5 0 Z M 22.5 0 "/></g></g></g><g fill="#000000" fill-opacity="1"><g transform="translate(95.639943, 105.499967)"><g><path d="M 11.859375 -19.078125 C 13.242188 -19.078125 14.539062 -18.820312 15.75 -18.3125 C 16.957031 -17.8125 18.03125 -17.117188 18.96875 -16.234375 C 19.90625 -15.347656 20.640625 -14.316406 21.171875 -13.140625 C 21.710938 -11.960938 21.984375 -10.695312 21.984375 -9.34375 C 21.984375 -7.988281 21.710938 -6.722656 21.171875 -5.546875 C 20.640625 -4.367188 19.90625 -3.328125 18.96875 -2.421875 C 18.03125 -1.523438 16.957031 -0.828125 15.75 -0.328125 C 14.539062 0.171875 13.242188 0.421875 11.859375 0.421875 C 10.484375 0.421875 9.1875 0.171875 7.96875 -0.328125 C 6.757812 -0.828125 5.6875 -1.523438 4.75 -2.421875 C 3.820312 -3.328125 3.085938 -4.367188 2.546875 -5.546875 C 2.015625 -6.722656 1.75 -7.988281 1.75 -9.34375 C 1.75 -10.695312 2.015625 -11.960938 2.546875 -13.140625 C 3.085938 -14.316406 3.820312 -15.347656 4.75 -16.234375 C 5.6875 -17.117188 6.757812 -17.8125 7.96875 -18.3125 C 9.1875 -18.820312 10.484375 -19.078125 11.859375 -19.078125 Z M 11.859375 -5.359375 C 12.929688 -5.359375 13.84375 -5.75 14.59375 -6.53125 C 15.34375 -7.3125 15.71875 -8.25 15.71875 -9.34375 C 15.71875 -10.4375 15.34375 -11.375 14.59375 -12.15625 C 13.84375 -12.9375 12.929688 -13.328125 11.859375 -13.328125 C 11.160156 -13.328125 10.523438 -13.144531 9.953125 -12.78125 C 9.378906 -12.425781 8.914062 -11.953125 8.5625 -11.359375 C 8.21875 -10.765625 8.046875 -10.09375 8.046875 -9.34375 C 8.046875 -8.625 8.21875 -7.957031 8.5625 -7.34375 C 8.914062 -6.738281 9.378906 -6.253906 9.953125 -5.890625 C 10.523438 -5.535156 11.160156 -5.359375 11.859375 -5.359375 Z M 11.859375 -5.359375 "/></g></g></g><g fill="#000000" fill-opacity="1"><g transform="translate(119.364585, 105.499967)"><g/></g></g><g fill="#000000" fill-opacity="1"><g transform="translate(130.14215, 105.499967)"><g><path d="M 7.765625 -18.578125 C 8.023438 -18.578125 8.234375 -18.492188 8.390625 -18.328125 C 8.554688 -18.171875 8.640625 -17.960938 8.640625 -17.703125 L 8.640625 -0.875 C 8.640625 -0.644531 8.554688 -0.441406 8.390625 -0.265625 C 8.234375 -0.0859375 8.023438 0 7.765625 0 L 2.625 0 C 2.394531 0 2.191406 -0.0859375 2.015625 -0.265625 C 1.835938 -0.441406 1.75 -0.644531 1.75 -0.875 L 1.75 -17.703125 C 1.75 -17.960938 1.835938 -18.171875 2.015625 -18.328125 C 2.191406 -18.492188 2.394531 -18.578125 2.625 -18.578125 Z M 7.765625 -26 C 8.023438 -26 8.234375 -25.910156 8.390625 -25.734375 C 8.554688 -25.566406 8.640625 -25.363281 8.640625 -25.125 L 8.640625 -21.484375 C 8.640625 -21.253906 8.554688 -21.050781 8.390625 -20.875 C 8.234375 -20.695312 8.023438 -20.609375 7.765625 -20.609375 L 2.625 -20.609375 C 2.394531 -20.609375 2.191406 -20.695312 2.015625 -20.875 C 1.835938 -21.050781 1.75 -21.253906 1.75 -21.484375 L 1.75 -25.125 C 1.75 -25.382812 1.835938 -25.59375 2.015625 -25.75 C 2.191406 -25.914062 2.394531 -26 2.625 -26 Z M 7.765625 -26 "/></g></g></g><g fill="#000000" fill-opacity="1"><g transform="translate(139.834906, 105.499967)"><g><path d="M 20.96875 -18.578125 C 21.269531 -18.578125 21.484375 -18.472656 21.609375 -18.265625 C 21.742188 -18.054688 21.738281 -17.753906 21.59375 -17.359375 C 21.550781 -17.242188 21.410156 -16.867188 21.171875 -16.234375 C 20.941406 -15.609375 20.65625 -14.8125 20.3125 -13.84375 C 19.976562 -12.875 19.601562 -11.828125 19.1875 -10.703125 C 18.78125 -9.585938 18.375 -8.46875 17.96875 -7.34375 C 17.5625 -6.226562 17.179688 -5.195312 16.828125 -4.25 C 16.484375 -3.300781 16.195312 -2.523438 15.96875 -1.921875 C 15.75 -1.316406 15.617188 -0.96875 15.578125 -0.875 C 15.429688 -0.570312 15.285156 -0.347656 15.140625 -0.203125 C 15.003906 -0.0664062 14.773438 0 14.453125 0 L 9 0 C 8.695312 0 8.46875 -0.0664062 8.3125 -0.203125 C 8.15625 -0.347656 8.007812 -0.570312 7.875 -0.875 C 7.832031 -0.96875 7.695312 -1.316406 7.46875 -1.921875 C 7.25 -2.523438 6.960938 -3.300781 6.609375 -4.25 C 6.265625 -5.195312 5.882812 -6.226562 5.46875 -7.34375 C 5.0625 -8.46875 4.65625 -9.585938 4.25 -10.703125 C 3.84375 -11.828125 3.46875 -12.875 3.125 -13.84375 C 2.789062 -14.8125 2.503906 -15.609375 2.265625 -16.234375 C 2.035156 -16.867188 1.898438 -17.242188 1.859375 -17.359375 C 1.710938 -17.753906 1.703125 -18.054688 1.828125 -18.265625 C 1.960938 -18.472656 2.179688 -18.578125 2.484375 -18.578125 L 7.625 -18.578125 C 8.164062 -18.578125 8.519531 -18.488281 8.6875 -18.3125 C 8.863281 -18.144531 9.035156 -17.828125 9.203125 -17.359375 C 9.222656 -17.285156 9.300781 -16.992188 9.4375 -16.484375 C 9.582031 -15.972656 9.75 -15.335938 9.9375 -14.578125 C 10.125 -13.816406 10.320312 -13.019531 10.53125 -12.1875 C 10.738281 -11.363281 10.929688 -10.582031 11.109375 -9.84375 C 11.285156 -9.113281 11.429688 -8.519531 11.546875 -8.0625 C 11.660156 -7.613281 11.71875 -7.390625 11.71875 -7.390625 C 11.71875 -7.390625 11.773438 -7.613281 11.890625 -8.0625 C 12.015625 -8.519531 12.160156 -9.113281 12.328125 -9.84375 C 12.503906 -10.582031 12.695312 -11.363281 12.90625 -12.1875 C 13.125 -13.019531 13.328125 -13.816406 13.515625 -14.578125 C 13.703125 -15.335938 13.863281 -15.972656 14 -16.484375 C 14.132812 -16.992188 14.21875 -17.285156 14.25 -17.359375 C 14.4375 -17.828125 14.613281 -18.144531 14.78125 -18.3125 C 14.957031 -18.488281 15.300781 -18.578125 15.8125 -18.578125 Z M 20.96875 -18.578125 "/></g></g></g><g fill="#000000" fill-opacity="1"><g transform="translate(161.17991, 105.499967)"><g><path d="M 11.859375 -19.078125 C 13.242188 -19.078125 14.539062 -18.820312 15.75 -18.3125 C 16.957031 -17.8125 18.03125 -17.117188 18.96875 -16.234375 C 19.90625 -15.347656 20.640625 -14.316406 21.171875 -13.140625 C 21.710938 -11.960938 21.984375 -10.695312 21.984375 -9.34375 C 21.984375 -7.988281 21.710938 -6.722656 21.171875 -5.546875 C 20.640625 -4.367188 19.90625 -3.328125 18.96875 -2.421875 C 18.03125 -1.523438 16.957031 -0.828125 15.75 -0.328125 C 14.539062 0.171875 13.242188 0.421875 11.859375 0.421875 C 10.484375 0.421875 9.1875 0.171875 7.96875 -0.328125 C 6.757812 -0.828125 5.6875 -1.523438 4.75 -2.421875 C 3.820312 -3.328125 3.085938 -4.367188 2.546875 -5.546875 C 2.015625 -6.722656 1.75 -7.988281 1.75 -9.34375 C 1.75 -10.695312 2.015625 -11.960938 2.546875 -13.140625 C 3.085938 -14.316406 3.820312 -15.347656 4.75 -16.234375 C 5.6875 -17.117188 6.757812 -17.8125 7.96875 -18.3125 C 9.1875 -18.820312 10.484375 -19.078125 11.859375 -19.078125 Z M 11.859375 -5.359375 C 12.929688 -5.359375 13.84375 -5.75 14.59375 -6.53125 C 15.34375 -7.3125 15.71875 -8.25 15.71875 -9.34375 C 15.71875 -10.4375 15.34375 -11.375 14.59375 -12.15625 C 13.84375 -12.9375 12.929688 -13.328125 11.859375 -13.328125 C 11.160156 -13.328125 10.523438 -13.144531 9.953125 -12.78125 C 9.378906 -12.425781 8.914062 -11.953125 8.5625 -11.359375 C 8.21875 -10.765625 8.046875 -10.09375 8.046875 -9.34375 C 8.046875 -8.625 8.21875 -7.957031 8.5625 -7.34375 C 8.914062 -6.738281 9.378906 -6.253906 9.953125 -5.890625 C 10.523438 -5.535156 11.160156 -5.359375 11.859375 -5.359375 Z M 11.859375 -5.359375 "/></g></g></g><g fill="#000000" fill-opacity="1"><g transform="translate(183.504756, 105.499967)"><g><path d="M 17.1875 -1.359375 C 17.226562 -0.941406 17.1875 -0.632812 17.0625 -0.4375 C 16.9375 -0.238281 16.734375 -0.101562 16.453125 -0.03125 C 15.984375 0.0625 15.320312 0.160156 14.46875 0.265625 C 13.613281 0.367188 12.570312 0.421875 11.34375 0.421875 C 10.238281 0.421875 9.242188 0.234375 8.359375 -0.140625 C 7.472656 -0.515625 6.765625 -1.109375 6.234375 -1.921875 C 5.710938 -2.742188 5.453125 -3.804688 5.453125 -5.109375 L 5.453125 -12.5625 L 2.625 -12.5625 C 2.394531 -12.5625 2.191406 -12.648438 2.015625 -12.828125 C 1.835938 -13.003906 1.75 -13.207031 1.75 -13.4375 L 1.75 -17.75 C 1.75 -17.976562 1.835938 -18.171875 2.015625 -18.328125 C 2.191406 -18.492188 2.394531 -18.578125 2.625 -18.578125 L 5.453125 -18.578125 L 5.453125 -22.4375 C 5.453125 -22.664062 5.539062 -22.863281 5.71875 -23.03125 C 5.894531 -23.195312 6.097656 -23.28125 6.328125 -23.28125 L 11.515625 -23.28125 C 11.742188 -23.28125 11.941406 -23.195312 12.109375 -23.03125 C 12.273438 -22.863281 12.359375 -22.664062 12.359375 -22.4375 L 12.359375 -18.578125 L 15.4375 -18.578125 C 15.6875 -18.578125 15.894531 -18.492188 16.0625 -18.328125 C 16.226562 -18.171875 16.3125 -17.976562 16.3125 -17.75 L 16.3125 -13.4375 C 16.3125 -13.207031 16.226562 -13.003906 16.0625 -12.828125 C 15.894531 -12.648438 15.6875 -12.5625 15.4375 -12.5625 L 12.359375 -12.5625 L 12.359375 -8.15625 C 12.359375 -7.269531 12.453125 -6.617188 12.640625 -6.203125 C 12.828125 -5.796875 13.179688 -5.5625 13.703125 -5.5 C 14.222656 -5.445312 14.988281 -5.476562 16 -5.59375 C 16.320312 -5.644531 16.535156 -5.59375 16.640625 -5.4375 C 16.742188 -5.289062 16.804688 -5.085938 16.828125 -4.828125 C 16.859375 -4.710938 16.894531 -4.425781 16.9375 -3.96875 C 16.988281 -3.519531 17.035156 -3.039062 17.078125 -2.53125 C 17.128906 -2.03125 17.164062 -1.640625 17.1875 -1.359375 Z M 17.1875 -1.359375 "/></g></g></g></g></g></g></g></g></g></mask><clipPath id="e0d20357bf"><path d="M 0.757812 2.75 L 272.25 2.75 L 272.25 186.5 L 0.757812 186.5 Z M 0.757812 2.75 " clip-rule="nonzero"/></clipPath><clipPath id="f6ace35c43"><rect x="0" width="273" y="0" height="189"/></clipPath><clipPath id="9ffe771a05"><rect x="0" width="273" y="0" height="189"/></clipPath></defs><g clip-path="url(#f95da9a1b3)"><g transform="matrix(1, 0, 0, 1, 139, 135)"><g clip-path="url(#d9dbee6a6b)"><g clip-path="url(#2447a681a8)"><path fill="#ff5050" d="M 30.328125 37.59375 L 30.328125 58.902344 C 30.328125 60.121094 31.328125 61.117188 32.546875 61.117188 L 36.800781 61.117188 C 38.019531 61.117188 39.019531 60.121094 39.019531 58.902344 L 39.019531 37.59375 Z M 30.328125 37.59375 " fill-opacity="1" fill-rule="evenodd"/></g><path fill="#ff5050" d="M 36.800781 30.6875 L 32.546875 30.6875 C 31.328125 30.6875 30.328125 31.6875 30.328125 32.90625 L 30.328125 39.5 L 39.019531 39.5 L 39.019531 32.90625 C 39.019531 31.6875 38.019531 30.6875 36.800781 30.6875 Z M 36.800781 30.6875 " fill-opacity="1" fill-rule="evenodd"/><g clip-path="url(#bf05259671)"><path fill="#ff5050" d="M 0.433594 30.882812 L 20.238281 42.316406 L 20.238281 35.226562 L 47.476562 35.226562 C 56.90625 35.226562 64.625 27.511719 64.625 18.082031 C 64.625 8.648438 56.90625 0.933594 47.476562 0.933594 C 38.046875 0.933594 30.328125 8.648438 30.328125 18.082031 L 30.328125 26.539062 L 20.238281 26.539062 L 20.238281 19.449219 Z M 47.476562 9.621094 C 52.128906 9.621094 55.933594 13.429688 55.933594 18.082031 C 55.933594 22.734375 52.128906 26.539062 47.476562 26.539062 L 39.019531 26.539062 L 39.019531 18.082031 C 39.019531 13.429688 42.824219 9.621094 47.476562 9.621094 Z M 47.476562 9.621094 " fill-opacity="1" fill-rule="evenodd"/></g></g></g></g><g clip-path="url(#57bacf4f25)"><g transform="matrix(1, 0, 0, 1, 51, 90)"><g clip-path="url(#9ffe771a05)"><g clip-path="url(#adfedd2143)"><g mask="url(#570a63ce9b)"><g><g clip-path="url(#f6ace35c43)"><g clip-path="url(#e0d20357bf)"><path fill="url(#ea40424246)" d="M 0.757812 2.75 L 0.757812 186.5 L 272.25 186.5 L 272.25 2.75 Z M 0.757812 2.75 " fill-rule="nonzero"/></g></g></g></g></g></g></g></g></svg>