<svg xmlns="http://www.w3.org/2000/svg" xmlns:xlink="http://www.w3.org/1999/xlink" width="500" zoomAndPan="magnify" viewBox="0 0 375 374.999991" height="500" preserveAspectRatio="xMidYMid meet" version="1.0"><defs><filter x="0%" y="0%" width="100%" height="100%" id="0c653234d8"><feColorMatrix values="0 0 0 0 1 0 0 0 0 1 0 0 0 0 1 0 0 0 1 0" color-interpolation-filters="sRGB"/></filter><g/><clipPath id="21ad979dcb"><path d="M 190 163.75 L 202 163.75 L 202 175 L 190 175 Z M 190 163.75 " clip-rule="nonzero"/></clipPath><clipPath id="df0d03394f"><path d="M 184 191 L 191 191 L 191 203.5 L 184 203.5 Z M 184 191 " clip-rule="nonzero"/></clipPath><clipPath id="0324d25f17"><path d="M 189 191 L 197 191 L 197 203.5 L 189 203.5 Z M 189 191 " clip-rule="nonzero"/></clipPath><clipPath id="f9f877b911"><path d="M 13.957031 79.5 L 360.457031 79.5 L 360.457031 295.5 L 13.957031 295.5 Z M 13.957031 79.5 " clip-rule="nonzero"/></clipPath><clipPath id="ce77d42fab"><path d="M 0.957031 0.5 L 347.457031 0.5 L 347.457031 216.5 L 0.957031 216.5 Z M 0.957031 0.5 " clip-rule="nonzero"/></clipPath><clipPath id="9009acb030"><path d="M 0.957031 5.75 L 347.457031 5.75 L 347.457031 209.75 L 0.957031 209.75 Z M 0.957031 5.75 " clip-rule="nonzero"/></clipPath><linearGradient x1="-106.667" gradientTransform="matrix(0.749834, 0, 0, 0.749083, 80.940846, 80.408827)" y1="36.5" x2="355.433413" gradientUnits="userSpaceOnUse" y2="36.5" id="fb3ecbbae0"><stop stop-opacity="1" stop-color="rgb(31.759644%, 43.919373%, 100%)" offset="0"/><stop stop-opacity="1" stop-color="rgb(31.759644%, 43.919373%, 100%)" offset="0.125"/><stop stop-opacity="1" stop-color="rgb(31.759644%, 43.919373%, 100%)" offset="0.1875"/><stop stop-opacity="1" stop-color="rgb(31.759644%, 43.919373%, 100%)" offset="0.21875"/><stop stop-opacity="1" stop-color="rgb(31.759644%, 43.919373%, 100%)" offset="0.226562"/><stop stop-opacity="1" stop-color="rgb(31.983948%, 43.90564%, 99.923706%)" offset="0.230469"/><stop stop-opacity="1" stop-color="rgb(32.208252%, 43.893433%, 99.847412%)" offset="0.234375"/><stop stop-opacity="1" stop-color="rgb(32.702637%, 43.864441%, 99.679565%)" offset="0.238281"/><stop stop-opacity="1" stop-color="rgb(33.198547%, 43.836975%, 99.511719%)" offset="0.242188"/><stop stop-opacity="1" stop-color="rgb(33.692932%, 43.807983%, 99.343872%)" offset="0.246094"/><stop stop-opacity="1" stop-color="rgb(34.188843%, 43.778992%, 99.176025%)" offset="0.25"/><stop stop-opacity="1" stop-color="rgb(34.683228%, 43.75%, 99.008179%)" offset="0.253906"/><stop stop-opacity="1" stop-color="rgb(35.179138%, 43.722534%, 98.840332%)" offset="0.257812"/><stop stop-opacity="1" stop-color="rgb(35.673523%, 43.693542%, 98.670959%)" offset="0.261719"/><stop stop-opacity="1" stop-color="rgb(36.169434%, 43.666077%, 98.503113%)" offset="0.265625"/><stop stop-opacity="1" stop-color="rgb(36.663818%, 43.637085%, 98.335266%)" offset="0.269531"/><stop stop-opacity="1" stop-color="rgb(37.159729%, 43.609619%, 98.167419%)" offset="0.273438"/><stop stop-opacity="1" stop-color="rgb(37.654114%, 43.580627%, 97.999573%)" offset="0.277344"/><stop stop-opacity="1" stop-color="rgb(38.150024%, 43.551636%, 97.831726%)" offset="0.28125"/><stop stop-opacity="1" stop-color="rgb(38.644409%, 43.522644%, 97.663879%)" offset="0.285156"/><stop stop-opacity="1" stop-color="rgb(39.14032%, 43.495178%, 97.496033%)" offset="0.289062"/><stop stop-opacity="1" stop-color="rgb(39.634705%, 43.466187%, 97.328186%)" offset="0.292969"/><stop stop-opacity="1" stop-color="rgb(40.130615%, 43.438721%, 97.160339%)" offset="0.296875"/><stop stop-opacity="1" stop-color="rgb(40.625%, 43.409729%, 96.992493%)" offset="0.300781"/><stop stop-opacity="1" stop-color="rgb(41.120911%, 43.382263%, 96.824646%)" offset="0.304688"/><stop stop-opacity="1" stop-color="rgb(41.615295%, 43.353271%, 96.656799%)" offset="0.308594"/><stop stop-opacity="1" stop-color="rgb(42.10968%, 43.32428%, 96.488953%)" offset="0.3125"/><stop stop-opacity="1" stop-color="rgb(42.604065%, 43.295288%, 96.321106%)" offset="0.316406"/><stop stop-opacity="1" stop-color="rgb(43.099976%, 43.267822%, 96.153259%)" offset="0.320312"/><stop stop-opacity="1" stop-color="rgb(43.59436%, 43.238831%, 95.985413%)" offset="0.324219"/><stop stop-opacity="1" stop-color="rgb(44.090271%, 43.211365%, 95.817566%)" offset="0.328125"/><stop stop-opacity="1" stop-color="rgb(44.584656%, 43.182373%, 95.649719%)" offset="0.332031"/><stop stop-opacity="1" stop-color="rgb(45.080566%, 43.153381%, 95.481873%)" offset="0.335938"/><stop stop-opacity="1" stop-color="rgb(45.574951%, 43.12439%, 95.314026%)" offset="0.339844"/><stop stop-opacity="1" stop-color="rgb(46.070862%, 43.096924%, 95.146179%)" offset="0.34375"/><stop stop-opacity="1" stop-color="rgb(46.565247%, 43.067932%, 94.978333%)" offset="0.347656"/><stop stop-opacity="1" stop-color="rgb(47.061157%, 43.040466%, 94.810486%)" offset="0.351562"/><stop stop-opacity="1" stop-color="rgb(47.555542%, 43.011475%, 94.642639%)" offset="0.355469"/><stop stop-opacity="1" stop-color="rgb(48.051453%, 42.984009%, 94.474792%)" offset="0.359375"/><stop stop-opacity="1" stop-color="rgb(48.545837%, 42.955017%, 94.306946%)" offset="0.363281"/><stop stop-opacity="1" stop-color="rgb(49.041748%, 42.926025%, 94.139099%)" offset="0.367188"/><stop stop-opacity="1" stop-color="rgb(49.536133%, 42.897034%, 93.971252%)" offset="0.371094"/><stop stop-opacity="1" stop-color="rgb(50.032043%, 42.869568%, 93.803406%)" offset="0.375"/><stop stop-opacity="1" stop-color="rgb(50.526428%, 42.840576%, 93.635559%)" offset="0.378906"/><stop stop-opacity="1" stop-color="rgb(51.022339%, 42.81311%, 93.467712%)" offset="0.382812"/><stop stop-opacity="1" stop-color="rgb(51.516724%, 42.784119%, 93.299866%)" offset="0.386719"/><stop stop-opacity="1" stop-color="rgb(52.012634%, 42.755127%, 93.132019%)" offset="0.390625"/><stop stop-opacity="1" stop-color="rgb(52.507019%, 42.726135%, 92.964172%)" offset="0.394531"/><stop stop-opacity="1" stop-color="rgb(53.00293%, 42.698669%, 92.796326%)" offset="0.398438"/><stop stop-opacity="1" stop-color="rgb(53.497314%, 42.669678%, 92.628479%)" offset="0.402344"/><stop stop-opacity="1" stop-color="rgb(53.993225%, 42.642212%, 92.460632%)" offset="0.40625"/><stop stop-opacity="1" stop-color="rgb(54.48761%, 42.61322%, 92.29126%)" offset="0.410156"/><stop stop-opacity="1" stop-color="rgb(54.983521%, 42.585754%, 92.123413%)" offset="0.414062"/><stop stop-opacity="1" stop-color="rgb(55.477905%, 42.556763%, 91.955566%)" offset="0.417969"/><stop stop-opacity="1" stop-color="rgb(55.973816%, 42.527771%, 91.78772%)" offset="0.421875"/><stop stop-opacity="1" stop-color="rgb(56.468201%, 42.498779%, 91.619873%)" offset="0.425781"/><stop stop-opacity="1" stop-color="rgb(56.962585%, 42.471313%, 91.452026%)" offset="0.429688"/><stop stop-opacity="1" stop-color="rgb(57.45697%, 42.442322%, 91.28418%)" offset="0.433594"/><stop stop-opacity="1" stop-color="rgb(57.952881%, 42.414856%, 91.116333%)" offset="0.4375"/><stop stop-opacity="1" stop-color="rgb(58.447266%, 42.385864%, 90.948486%)" offset="0.441406"/><stop stop-opacity="1" stop-color="rgb(58.943176%, 42.358398%, 90.78064%)" offset="0.445312"/><stop stop-opacity="1" stop-color="rgb(59.437561%, 42.329407%, 90.612793%)" offset="0.449219"/><stop stop-opacity="1" stop-color="rgb(59.933472%, 42.300415%, 90.444946%)" offset="0.453125"/><stop stop-opacity="1" stop-color="rgb(60.427856%, 42.271423%, 90.2771%)" offset="0.457031"/><stop stop-opacity="1" stop-color="rgb(60.923767%, 42.243958%, 90.109253%)" offset="0.460937"/><stop stop-opacity="1" stop-color="rgb(61.418152%, 42.214966%, 89.941406%)" offset="0.464844"/><stop stop-opacity="1" stop-color="rgb(61.914062%, 42.1875%, 89.77356%)" offset="0.46875"/><stop stop-opacity="1" stop-color="rgb(62.408447%, 42.158508%, 89.605713%)" offset="0.472656"/><stop stop-opacity="1" stop-color="rgb(62.904358%, 42.129517%, 89.437866%)" offset="0.476562"/><stop stop-opacity="1" stop-color="rgb(63.398743%, 42.100525%, 89.27002%)" offset="0.480469"/><stop stop-opacity="1" stop-color="rgb(63.894653%, 42.073059%, 89.102173%)" offset="0.484375"/><stop stop-opacity="1" stop-color="rgb(64.389038%, 42.044067%, 88.934326%)" offset="0.488281"/><stop stop-opacity="1" stop-color="rgb(64.884949%, 42.016602%, 88.766479%)" offset="0.492187"/><stop stop-opacity="1" stop-color="rgb(65.379333%, 41.98761%, 88.598633%)" offset="0.496094"/><stop stop-opacity="1" stop-color="rgb(65.875244%, 41.960144%, 88.430786%)" offset="0.5"/><stop stop-opacity="1" stop-color="rgb(66.369629%, 41.931152%, 88.262939%)" offset="0.503906"/><stop stop-opacity="1" stop-color="rgb(66.86554%, 41.902161%, 88.095093%)" offset="0.507812"/><stop stop-opacity="1" stop-color="rgb(67.359924%, 41.873169%, 87.927246%)" offset="0.511719"/><stop stop-opacity="1" stop-color="rgb(67.855835%, 41.845703%, 87.759399%)" offset="0.515625"/><stop stop-opacity="1" stop-color="rgb(68.35022%, 41.816711%, 87.591553%)" offset="0.519531"/><stop stop-opacity="1" stop-color="rgb(68.84613%, 41.789246%, 87.423706%)" offset="0.523438"/><stop stop-opacity="1" stop-color="rgb(69.340515%, 41.760254%, 87.255859%)" offset="0.527344"/><stop stop-opacity="1" stop-color="rgb(69.836426%, 41.731262%, 87.088013%)" offset="0.53125"/><stop stop-opacity="1" stop-color="rgb(70.330811%, 41.702271%, 86.920166%)" offset="0.535156"/><stop stop-opacity="1" stop-color="rgb(70.826721%, 41.674805%, 86.752319%)" offset="0.539062"/><stop stop-opacity="1" stop-color="rgb(71.321106%, 41.645813%, 86.584473%)" offset="0.542969"/><stop stop-opacity="1" stop-color="rgb(71.815491%, 41.618347%, 86.416626%)" offset="0.546875"/><stop stop-opacity="1" stop-color="rgb(72.309875%, 41.589355%, 86.248779%)" offset="0.550781"/><stop stop-opacity="1" stop-color="rgb(72.805786%, 41.56189%, 86.080933%)" offset="0.554688"/><stop stop-opacity="1" stop-color="rgb(73.300171%, 41.532898%, 85.913086%)" offset="0.558594"/><stop stop-opacity="1" stop-color="rgb(73.796082%, 41.503906%, 85.745239%)" offset="0.5625"/><stop stop-opacity="1" stop-color="rgb(74.290466%, 41.474915%, 85.575867%)" offset="0.566406"/><stop stop-opacity="1" stop-color="rgb(74.786377%, 41.447449%, 85.40802%)" offset="0.570313"/><stop stop-opacity="1" stop-color="rgb(75.280762%, 41.418457%, 85.240173%)" offset="0.574219"/><stop stop-opacity="1" stop-color="rgb(75.776672%, 41.390991%, 85.072327%)" offset="0.578125"/><stop stop-opacity="1" stop-color="rgb(76.271057%, 41.362%, 84.90448%)" offset="0.582031"/><stop stop-opacity="1" stop-color="rgb(76.766968%, 41.334534%, 84.736633%)" offset="0.585938"/><stop stop-opacity="1" stop-color="rgb(77.261353%, 41.305542%, 84.568787%)" offset="0.589844"/><stop stop-opacity="1" stop-color="rgb(77.757263%, 41.27655%, 84.40094%)" offset="0.59375"/><stop stop-opacity="1" stop-color="rgb(78.251648%, 41.247559%, 84.233093%)" offset="0.597656"/><stop stop-opacity="1" stop-color="rgb(78.747559%, 41.220093%, 84.065247%)" offset="0.601563"/><stop stop-opacity="1" stop-color="rgb(79.241943%, 41.191101%, 83.8974%)" offset="0.605469"/><stop stop-opacity="1" stop-color="rgb(79.737854%, 41.163635%, 83.729553%)" offset="0.609375"/><stop stop-opacity="1" stop-color="rgb(80.232239%, 41.134644%, 83.561707%)" offset="0.613281"/><stop stop-opacity="1" stop-color="rgb(80.728149%, 41.105652%, 83.39386%)" offset="0.617188"/><stop stop-opacity="1" stop-color="rgb(81.222534%, 41.07666%, 83.226013%)" offset="0.621094"/><stop stop-opacity="1" stop-color="rgb(81.718445%, 41.049194%, 83.058167%)" offset="0.625"/><stop stop-opacity="1" stop-color="rgb(82.21283%, 41.020203%, 82.89032%)" offset="0.628906"/><stop stop-opacity="1" stop-color="rgb(82.70874%, 40.992737%, 82.722473%)" offset="0.632812"/><stop stop-opacity="1" stop-color="rgb(83.203125%, 40.963745%, 82.554626%)" offset="0.636719"/><stop stop-opacity="1" stop-color="rgb(83.699036%, 40.936279%, 82.38678%)" offset="0.640625"/><stop stop-opacity="1" stop-color="rgb(84.19342%, 40.907288%, 82.218933%)" offset="0.644531"/><stop stop-opacity="1" stop-color="rgb(84.689331%, 40.878296%, 82.051086%)" offset="0.648438"/><stop stop-opacity="1" stop-color="rgb(85.183716%, 40.849304%, 81.88324%)" offset="0.652344"/><stop stop-opacity="1" stop-color="rgb(85.679626%, 40.821838%, 81.715393%)" offset="0.65625"/><stop stop-opacity="1" stop-color="rgb(86.174011%, 40.792847%, 81.547546%)" offset="0.660156"/><stop stop-opacity="1" stop-color="rgb(86.668396%, 40.765381%, 81.3797%)" offset="0.664062"/><stop stop-opacity="1" stop-color="rgb(87.162781%, 40.736389%, 81.211853%)" offset="0.667969"/><stop stop-opacity="1" stop-color="rgb(87.658691%, 40.707397%, 81.044006%)" offset="0.671875"/><stop stop-opacity="1" stop-color="rgb(88.153076%, 40.678406%, 80.87616%)" offset="0.675781"/><stop stop-opacity="1" stop-color="rgb(88.648987%, 40.65094%, 80.708313%)" offset="0.679687"/><stop stop-opacity="1" stop-color="rgb(89.143372%, 40.621948%, 80.540466%)" offset="0.683594"/><stop stop-opacity="1" stop-color="rgb(89.639282%, 40.594482%, 80.37262%)" offset="0.6875"/><stop stop-opacity="1" stop-color="rgb(90.133667%, 40.565491%, 80.204773%)" offset="0.691406"/><stop stop-opacity="1" stop-color="rgb(90.629578%, 40.538025%, 80.036926%)" offset="0.695312"/><stop stop-opacity="1" stop-color="rgb(91.123962%, 40.509033%, 79.86908%)" offset="0.699219"/><stop stop-opacity="1" stop-color="rgb(91.619873%, 40.480042%, 79.701233%)" offset="0.703125"/><stop stop-opacity="1" stop-color="rgb(92.114258%, 40.45105%, 79.533386%)" offset="0.707031"/><stop stop-opacity="1" stop-color="rgb(92.610168%, 40.423584%, 79.36554%)" offset="0.710938"/><stop stop-opacity="1" stop-color="rgb(93.104553%, 40.394592%, 79.196167%)" offset="0.714844"/><stop stop-opacity="1" stop-color="rgb(93.600464%, 40.367126%, 79.02832%)" offset="0.71875"/><stop stop-opacity="1" stop-color="rgb(94.094849%, 40.338135%, 78.860474%)" offset="0.722656"/><stop stop-opacity="1" stop-color="rgb(94.590759%, 40.310669%, 78.692627%)" offset="0.726562"/><stop stop-opacity="1" stop-color="rgb(95.085144%, 40.281677%, 78.52478%)" offset="0.730469"/><stop stop-opacity="1" stop-color="rgb(95.581055%, 40.252686%, 78.356934%)" offset="0.734375"/><stop stop-opacity="1" stop-color="rgb(96.075439%, 40.223694%, 78.189087%)" offset="0.738281"/><stop stop-opacity="1" stop-color="rgb(96.57135%, 40.196228%, 78.02124%)" offset="0.742188"/><stop stop-opacity="1" stop-color="rgb(97.065735%, 40.167236%, 77.853394%)" offset="0.746094"/><stop stop-opacity="1" stop-color="rgb(97.561646%, 40.139771%, 77.685547%)" offset="0.75"/><stop stop-opacity="1" stop-color="rgb(98.05603%, 40.110779%, 77.5177%)" offset="0.753906"/><stop stop-opacity="1" stop-color="rgb(98.551941%, 40.081787%, 77.349854%)" offset="0.757812"/><stop stop-opacity="1" stop-color="rgb(99.046326%, 40.052795%, 77.182007%)" offset="0.761719"/><stop stop-opacity="1" stop-color="rgb(99.542236%, 40.02533%, 77.01416%)" offset="0.765625"/><stop stop-opacity="1" stop-color="rgb(99.771118%, 40.011597%, 76.93634%)" offset="0.769531"/><stop stop-opacity="1" stop-color="rgb(100%, 39.99939%, 76.858521%)" offset="0.773438"/><stop stop-opacity="1" stop-color="rgb(100%, 39.99939%, 76.858521%)" offset="0.78125"/><stop stop-opacity="1" stop-color="rgb(100%, 39.99939%, 76.858521%)" offset="0.8125"/><stop stop-opacity="1" stop-color="rgb(100%, 39.99939%, 76.858521%)" offset="0.875"/><stop stop-opacity="1" stop-color="rgb(100%, 39.99939%, 76.858521%)" offset="1"/></linearGradient><clipPath id="586fddbc30"><rect x="0" width="348" y="0" height="217"/></clipPath><clipPath id="bb90ff0322"><path d="M 0.957031 0.5 L 347.457031 0.5 L 347.457031 216.5 L 0.957031 216.5 Z M 0.957031 0.5 " clip-rule="nonzero"/></clipPath><clipPath id="88370698f8"><rect x="0" width="348" y="0" height="217"/></clipPath><clipPath id="11a5d1775c"><rect x="0" width="348" y="0" height="217"/></clipPath><mask id="a6df255791"><g filter="url(#0c653234d8)"><g><g clip-path="url(#11a5d1775c)"><g clip-path="url(#bb90ff0322)"><g><g clip-path="url(#88370698f8)"><g fill="#000000" fill-opacity="1"><g transform="translate(81.20703, 121.999987)"><g><path d="M 7.515625 -27.640625 L 9.71875 -27.640625 C 10.539062 -27.640625 11.179688 -27.382812 11.640625 -26.875 C 12.066406 -26.375 12.382812 -25.773438 12.59375 -25.078125 C 12.78125 -24.390625 12.898438 -23.679688 12.953125 -22.953125 C 12.984375 -22.234375 13 -21.648438 13 -21.203125 L 13 -17.125 C 13 -16.664062 12.984375 -16.078125 12.953125 -15.359375 C 12.898438 -14.640625 12.78125 -13.929688 12.59375 -13.234375 C 12.382812 -12.546875 12.066406 -11.945312 11.640625 -11.4375 C 11.179688 -10.9375 10.539062 -10.6875 9.71875 -10.6875 L 9.71875 -10.640625 L 7.515625 -10.640625 Z M 18.515625 -0.4375 C 17.691406 -0.4375 17.109375 -0.8125 16.765625 -1.5625 L 12.3125 -10.71875 C 13.59375 -11.226562 14.632812 -12.054688 15.4375 -13.203125 C 16.238281 -14.347656 16.640625 -15.640625 16.640625 -17.078125 L 16.640625 -21.15625 C 16.640625 -22.113281 16.46875 -23.007812 16.125 -23.84375 C 15.75 -24.664062 15.253906 -25.398438 14.640625 -26.046875 C 14.003906 -26.648438 13.269531 -27.140625 12.4375 -27.515625 C 11.613281 -27.867188 10.722656 -28.046875 9.765625 -28.046875 L 2 -28.046875 L 2 -27.640625 L 4 -27.640625 L 4 -0.484375 L 2 -0.484375 L 2 -0.078125 L 9.5625 -0.078125 L 9.5625 -0.484375 L 7.5625 -0.484375 L 7.5625 -10.234375 L 8.5625 -10.234375 L 13 -1.125 C 13.15625 -0.769531 13.394531 -0.5 13.71875 -0.3125 C 14.007812 -0.132812 14.34375 -0.046875 14.71875 -0.046875 L 18.5625 -0.046875 L 18.5625 -0.4375 Z M 18.515625 -0.4375 "/></g></g></g><g fill="#000000" fill-opacity="1"><g transform="translate(100.805048, 121.999987)"><g><path d="M 13 -4.078125 L 12.953125 -3.640625 C 12.878906 -2.753906 12.546875 -2.007812 11.953125 -1.40625 C 11.367188 -0.757812 10.640625 -0.4375 9.765625 -0.4375 L 6.765625 -0.4375 L 6.765625 -12.3125 L 9.125 -12.3125 C 9.570312 -12.3125 9.957031 -12.164062 10.28125 -11.875 C 10.570312 -11.5625 10.71875 -11.175781 10.71875 -10.71875 L 11.078125 -10.71875 L 11.078125 -14.28125 L 10.71875 -14.28125 C 10.71875 -13.820312 10.570312 -13.445312 10.28125 -13.15625 C 9.957031 -12.84375 9.570312 -12.6875 9.125 -12.6875 L 6.765625 -12.6875 L 6.765625 -23.6875 L 9.078125 -23.6875 C 9.960938 -23.6875 10.722656 -23.378906 11.359375 -22.765625 C 11.972656 -22.117188 12.28125 -21.359375 12.28125 -20.484375 L 12.640625 -20.484375 L 12.640625 -24.046875 L 2 -24.046875 L 2 -23.6875 L 3.71875 -23.6875 L 3.71875 -0.484375 L 2 -0.484375 L 2 -0.125 L 13.3125 -0.125 L 13.3125 -4.078125 Z M 13 -4.078125 "/></g></g></g><g fill="#000000" fill-opacity="1"><g transform="translate(116.123525, 121.999987)"><g><path d="M 13 -4.078125 L 12.953125 -3.640625 C 12.878906 -2.753906 12.546875 -2.007812 11.953125 -1.40625 C 11.367188 -0.757812 10.640625 -0.4375 9.765625 -0.4375 L 6.765625 -0.4375 L 6.765625 -12.3125 L 9.125 -12.3125 C 9.570312 -12.3125 9.957031 -12.164062 10.28125 -11.875 C 10.570312 -11.5625 10.71875 -11.175781 10.71875 -10.71875 L 11.078125 -10.71875 L 11.078125 -14.28125 L 10.71875 -14.28125 C 10.71875 -13.820312 10.570312 -13.445312 10.28125 -13.15625 C 9.957031 -12.84375 9.570312 -12.6875 9.125 -12.6875 L 6.765625 -12.6875 L 6.765625 -23.6875 L 9.078125 -23.6875 C 9.960938 -23.6875 10.722656 -23.378906 11.359375 -22.765625 C 11.972656 -22.117188 12.28125 -21.359375 12.28125 -20.484375 L 12.640625 -20.484375 L 12.640625 -24.046875 L 2 -24.046875 L 2 -23.6875 L 3.71875 -23.6875 L 3.71875 -0.484375 L 2 -0.484375 L 2 -0.125 L 13.3125 -0.125 L 13.3125 -4.078125 Z M 13 -4.078125 "/></g></g></g><g fill="#000000" fill-opacity="1"><g transform="translate(131.442002, 121.999987)"><g><path d="M 12.953125 -4.046875 L 12.953125 -3.640625 C 12.953125 -2.753906 12.648438 -2.007812 12.046875 -1.40625 C 11.398438 -0.757812 10.640625 -0.4375 9.765625 -0.4375 L 6.765625 -0.4375 L 6.765625 -23.640625 L 8.484375 -23.640625 L 8.484375 -24 L 2 -24 L 2 -23.640625 L 3.71875 -23.640625 L 3.71875 -0.4375 L 2 -0.4375 L 2 -0.078125 L 13.3125 -0.078125 L 13.3125 -4.046875 Z M 12.953125 -4.046875 "/></g></g></g><g fill="#000000" fill-opacity="1"><g transform="translate(146.760478, 121.999987)"><g><path d="M 12.875 -17.796875 L 12.875 -21.875 L 12.515625 -21.875 L 12.515625 -21.078125 C 12.515625 -20.972656 12.460938 -20.921875 12.359375 -20.921875 C 12.328125 -20.921875 12.285156 -20.945312 12.234375 -21 C 11.785156 -21.875 11.132812 -22.59375 10.28125 -23.15625 C 9.394531 -23.6875 8.421875 -23.953125 7.359375 -23.953125 C 6.609375 -23.953125 5.898438 -23.820312 5.234375 -23.5625 C 4.566406 -23.269531 3.992188 -22.882812 3.515625 -22.40625 C 3.015625 -21.894531 2.628906 -21.304688 2.359375 -20.640625 C 2.066406 -19.972656 1.921875 -19.265625 1.921875 -18.515625 C 1.921875 -17.710938 2.117188 -16.898438 2.515625 -16.078125 C 2.890625 -15.253906 3.332031 -14.492188 3.84375 -13.796875 C 4.34375 -13.078125 4.832031 -12.460938 5.3125 -11.953125 C 5.769531 -11.453125 6.09375 -11.109375 6.28125 -10.921875 C 6.65625 -10.578125 7.039062 -10.164062 7.4375 -9.6875 C 7.84375 -9.195312 8.21875 -8.710938 8.5625 -8.234375 C 8.882812 -7.734375 9.164062 -7.242188 9.40625 -6.765625 C 9.613281 -6.285156 9.71875 -5.859375 9.71875 -5.484375 C 9.71875 -5.160156 9.707031 -4.71875 9.6875 -4.15625 C 9.65625 -3.570312 9.570312 -3 9.4375 -2.4375 C 9.28125 -1.875 9.039062 -1.394531 8.71875 -1 C 8.394531 -0.601562 7.925781 -0.40625 7.3125 -0.40625 C 6.726562 -0.40625 6.273438 -0.601562 5.953125 -1 C 5.609375 -1.394531 5.367188 -1.875 5.234375 -2.4375 C 5.078125 -3 4.984375 -3.570312 4.953125 -4.15625 C 4.929688 -4.71875 4.921875 -5.160156 4.921875 -5.484375 L 4.921875 -6.203125 L 1.875 -6.203125 L 1.875 -5.5625 C 1.875 -4.8125 2.019531 -4.101562 2.3125 -3.4375 C 2.582031 -2.769531 2.972656 -2.195312 3.484375 -1.71875 C 3.960938 -1.207031 4.535156 -0.804688 5.203125 -0.515625 C 5.835938 -0.203125 6.53125 -0.046875 7.28125 -0.046875 C 8.050781 -0.046875 8.769531 -0.191406 9.4375 -0.484375 C 10.101562 -0.742188 10.691406 -1.113281 11.203125 -1.59375 C 11.679688 -2.070312 12.066406 -2.644531 12.359375 -3.3125 C 12.648438 -3.976562 12.796875 -4.6875 12.796875 -5.4375 C 12.796875 -6.238281 12.609375 -7.050781 12.234375 -7.875 C 11.835938 -8.707031 11.398438 -9.484375 10.921875 -10.203125 C 10.410156 -10.890625 9.914062 -11.488281 9.4375 -12 C 8.957031 -12.507812 8.625 -12.859375 8.4375 -13.046875 C 8.09375 -13.390625 7.71875 -13.800781 7.3125 -14.28125 C 6.894531 -14.757812 6.523438 -15.253906 6.203125 -15.765625 C 5.859375 -16.242188 5.578125 -16.734375 5.359375 -17.234375 C 5.117188 -17.710938 5 -18.128906 5 -18.484375 C 5 -18.796875 5.015625 -19.25 5.046875 -19.84375 C 5.066406 -20.40625 5.15625 -20.960938 5.3125 -21.515625 C 5.445312 -22.078125 5.691406 -22.554688 6.046875 -22.953125 C 6.359375 -23.359375 6.8125 -23.5625 7.40625 -23.5625 C 8.007812 -23.5625 8.472656 -23.359375 8.796875 -22.953125 C 9.117188 -22.554688 9.359375 -22.078125 9.515625 -21.515625 C 9.648438 -20.960938 9.734375 -20.40625 9.765625 -19.84375 C 9.785156 -19.25 9.796875 -18.796875 9.796875 -18.484375 L 9.796875 -17.765625 Z M 12.875 -17.796875 "/></g></g></g><g fill="#000000" fill-opacity="1"><g transform="translate(201.804679, 121.999987)"><g><path d="M 16.5625 -23.59375 L 16.5625 -23.953125 L 10.078125 -23.953125 L 10.078125 -23.59375 L 11.796875 -23.59375 L 11.796875 -12.125 L 6.765625 -12.125 L 6.765625 -23.59375 L 8.484375 -23.59375 L 8.484375 -23.953125 L 2 -23.953125 L 2 -23.59375 L 3.71875 -23.59375 L 3.71875 -0.3125 L 2 -0.3125 L 2 0.046875 L 8.484375 0.046875 L 8.484375 -0.3125 L 6.765625 -0.3125 L 6.765625 -11.796875 L 11.796875 -11.796875 L 11.796875 -0.3125 L 10.078125 -0.3125 L 10.078125 0.046875 L 16.5625 0.046875 L 16.5625 -0.3125 L 14.84375 -0.3125 L 14.84375 -23.59375 Z M 16.5625 -23.59375 "/></g></g></g><g fill="#000000" fill-opacity="1"><g transform="translate(219.362901, 121.999987)"><g><path d="M 7.4375 -23.953125 C 6.6875 -23.953125 5.976562 -23.820312 5.3125 -23.5625 C 4.644531 -23.269531 4.070312 -22.882812 3.59375 -22.40625 C 3.09375 -21.894531 2.707031 -21.304688 2.4375 -20.640625 C 2.144531 -19.972656 2 -19.265625 2 -18.515625 L 2 -5.484375 C 2 -4.734375 2.144531 -4.023438 2.4375 -3.359375 C 2.707031 -2.691406 3.09375 -2.117188 3.59375 -1.640625 C 4.070312 -1.128906 4.644531 -0.742188 5.3125 -0.484375 C 5.976562 -0.191406 6.6875 -0.046875 7.4375 -0.046875 C 8.1875 -0.046875 8.894531 -0.191406 9.5625 -0.484375 C 10.226562 -0.742188 10.8125 -1.128906 11.3125 -1.640625 C 11.800781 -2.117188 12.191406 -2.691406 12.484375 -3.359375 C 12.742188 -4.023438 12.875 -4.734375 12.875 -5.484375 L 12.875 -18.515625 C 12.875 -19.265625 12.742188 -19.972656 12.484375 -20.640625 C 12.191406 -21.304688 11.800781 -21.894531 11.3125 -22.40625 C 10.8125 -22.882812 10.226562 -23.269531 9.5625 -23.5625 C 8.894531 -23.820312 8.1875 -23.953125 7.4375 -23.953125 Z M 9.84375 -5.515625 C 9.84375 -5.203125 9.828125 -4.765625 9.796875 -4.203125 C 9.773438 -3.609375 9.695312 -3.035156 9.5625 -2.484375 C 9.394531 -1.921875 9.15625 -1.441406 8.84375 -1.046875 C 8.519531 -0.640625 8.050781 -0.4375 7.4375 -0.4375 C 6.851562 -0.4375 6.398438 -0.640625 6.078125 -1.046875 C 5.734375 -1.441406 5.492188 -1.921875 5.359375 -2.484375 C 5.203125 -3.035156 5.109375 -3.609375 5.078125 -4.203125 C 5.054688 -4.765625 5.046875 -5.203125 5.046875 -5.515625 L 5.046875 -18.5625 C 5.046875 -18.882812 5.054688 -19.335938 5.078125 -19.921875 C 5.109375 -20.484375 5.203125 -21.039062 5.359375 -21.59375 C 5.492188 -22.15625 5.734375 -22.640625 6.078125 -23.046875 C 6.398438 -23.441406 6.851562 -23.640625 7.4375 -23.640625 C 8.050781 -23.640625 8.519531 -23.441406 8.84375 -23.046875 C 9.15625 -22.640625 9.394531 -22.15625 9.5625 -21.59375 C 9.695312 -21.039062 9.773438 -20.484375 9.796875 -19.921875 C 9.828125 -19.335938 9.84375 -18.882812 9.84375 -18.5625 Z M 9.84375 -5.515625 "/></g></g></g><g fill="#000000" fill-opacity="1"><g transform="translate(234.241421, 121.999987)"><g><path d="M 12.875 -17.796875 L 12.875 -21.875 L 12.515625 -21.875 L 12.515625 -21.078125 C 12.515625 -20.972656 12.460938 -20.921875 12.359375 -20.921875 C 12.328125 -20.921875 12.285156 -20.945312 12.234375 -21 C 11.785156 -21.875 11.132812 -22.59375 10.28125 -23.15625 C 9.394531 -23.6875 8.421875 -23.953125 7.359375 -23.953125 C 6.609375 -23.953125 5.898438 -23.820312 5.234375 -23.5625 C 4.566406 -23.269531 3.992188 -22.882812 3.515625 -22.40625 C 3.015625 -21.894531 2.628906 -21.304688 2.359375 -20.640625 C 2.066406 -19.972656 1.921875 -19.265625 1.921875 -18.515625 C 1.921875 -17.710938 2.117188 -16.898438 2.515625 -16.078125 C 2.890625 -15.253906 3.332031 -14.492188 3.84375 -13.796875 C 4.34375 -13.078125 4.832031 -12.460938 5.3125 -11.953125 C 5.769531 -11.453125 6.09375 -11.109375 6.28125 -10.921875 C 6.65625 -10.578125 7.039062 -10.164062 7.4375 -9.6875 C 7.84375 -9.195312 8.21875 -8.710938 8.5625 -8.234375 C 8.882812 -7.734375 9.164062 -7.242188 9.40625 -6.765625 C 9.613281 -6.285156 9.71875 -5.859375 9.71875 -5.484375 C 9.71875 -5.160156 9.707031 -4.71875 9.6875 -4.15625 C 9.65625 -3.570312 9.570312 -3 9.4375 -2.4375 C 9.28125 -1.875 9.039062 -1.394531 8.71875 -1 C 8.394531 -0.601562 7.925781 -0.40625 7.3125 -0.40625 C 6.726562 -0.40625 6.273438 -0.601562 5.953125 -1 C 5.609375 -1.394531 5.367188 -1.875 5.234375 -2.4375 C 5.078125 -3 4.984375 -3.570312 4.953125 -4.15625 C 4.929688 -4.71875 4.921875 -5.160156 4.921875 -5.484375 L 4.921875 -6.203125 L 1.875 -6.203125 L 1.875 -5.5625 C 1.875 -4.8125 2.019531 -4.101562 2.3125 -3.4375 C 2.582031 -2.769531 2.972656 -2.195312 3.484375 -1.71875 C 3.960938 -1.207031 4.535156 -0.804688 5.203125 -0.515625 C 5.835938 -0.203125 6.53125 -0.046875 7.28125 -0.046875 C 8.050781 -0.046875 8.769531 -0.191406 9.4375 -0.484375 C 10.101562 -0.742188 10.691406 -1.113281 11.203125 -1.59375 C 11.679688 -2.070312 12.066406 -2.644531 12.359375 -3.3125 C 12.648438 -3.976562 12.796875 -4.6875 12.796875 -5.4375 C 12.796875 -6.238281 12.609375 -7.050781 12.234375 -7.875 C 11.835938 -8.707031 11.398438 -9.484375 10.921875 -10.203125 C 10.410156 -10.890625 9.914062 -11.488281 9.4375 -12 C 8.957031 -12.507812 8.625 -12.859375 8.4375 -13.046875 C 8.09375 -13.390625 7.71875 -13.800781 7.3125 -14.28125 C 6.894531 -14.757812 6.523438 -15.253906 6.203125 -15.765625 C 5.859375 -16.242188 5.578125 -16.734375 5.359375 -17.234375 C 5.117188 -17.710938 5 -18.128906 5 -18.484375 C 5 -18.796875 5.015625 -19.25 5.046875 -19.84375 C 5.066406 -20.40625 5.15625 -20.960938 5.3125 -21.515625 C 5.445312 -22.078125 5.691406 -22.554688 6.046875 -22.953125 C 6.359375 -23.359375 6.8125 -23.5625 7.40625 -23.5625 C 8.007812 -23.5625 8.472656 -23.359375 8.796875 -22.953125 C 9.117188 -22.554688 9.359375 -22.078125 9.515625 -21.515625 C 9.648438 -20.960938 9.734375 -20.40625 9.765625 -19.84375 C 9.785156 -19.25 9.796875 -18.796875 9.796875 -18.484375 L 9.796875 -17.765625 Z M 12.875 -17.796875 "/></g></g></g><g fill="#000000" fill-opacity="1"><g transform="translate(249.119941, 121.999987)"><g><path d="M 2 -23.953125 L 2 -20.40625 L 2.359375 -20.40625 C 2.359375 -21.28125 2.675781 -22.039062 3.3125 -22.6875 C 3.925781 -23.289062 4.675781 -23.59375 5.5625 -23.59375 L 7.84375 -23.59375 L 7.84375 -0.359375 L 6.125 -0.359375 L 6.125 0 L 12.59375 0 L 12.59375 -0.359375 L 10.875 -0.359375 L 10.875 -23.59375 L 13.15625 -23.59375 C 14.039062 -23.59375 14.800781 -23.289062 15.4375 -22.6875 C 16.050781 -22.039062 16.359375 -21.28125 16.359375 -20.40625 L 16.71875 -20.40625 L 16.71875 -23.953125 Z M 2 -23.953125 "/></g></g></g></g></g></g></g></g></g></mask><clipPath id="d5bbc41d26"><path d="M 0.957031 5.75 L 347.457031 5.75 L 347.457031 209.75 L 0.957031 209.75 Z M 0.957031 5.75 " clip-rule="nonzero"/></clipPath><clipPath id="1047948139"><rect x="0" width="348" y="0" height="217"/></clipPath><clipPath id="5b3a43dd9a"><rect x="0" width="348" y="0" height="217"/></clipPath></defs><path fill="#000000" d="M 200.675781 192.910156 L 179.726562 192.910156 C 177.523438 192.910156 175.761719 191.121094 175.761719 188.941406 L 175.761719 177.945312 C 175.761719 175.765625 177.523438 173.980469 179.726562 173.980469 L 200.675781 173.980469 C 202.855469 173.980469 204.617188 175.765625 204.617188 177.945312 L 204.617188 188.941406 C 204.617188 191.121094 202.855469 192.910156 200.675781 192.910156 Z M 179.726562 174.929688 C 178.058594 174.929688 176.6875 176.277344 176.6875 177.945312 L 176.6875 188.941406 C 176.6875 190.613281 178.058594 191.957031 179.726562 191.957031 L 200.675781 191.957031 C 202.324219 191.957031 203.691406 190.613281 203.691406 188.941406 L 203.691406 177.945312 C 203.691406 176.277344 202.324219 174.929688 200.675781 174.929688 Z M 179.726562 174.929688 " fill-opacity="1" fill-rule="evenodd"/><path fill="#000000" d="M 187.753906 174.929688 C 187.570312 174.929688 187.382812 174.816406 187.3125 174.628906 C 187.222656 174.375 187.359375 174.117188 187.59375 174.027344 C 189.078125 173.445312 190.097656 171.984375 190.097656 170.382812 C 190.097656 168.226562 188.335938 166.488281 186.199219 166.488281 C 184.042969 166.488281 182.304688 168.226562 182.304688 170.382812 C 182.304688 171.984375 183.300781 173.445312 184.785156 174.027344 C 185.039062 174.117188 185.15625 174.375 185.0625 174.628906 C 184.972656 174.863281 184.691406 174.976562 184.460938 174.882812 C 182.605469 174.164062 181.351562 172.355469 181.351562 170.382812 C 181.351562 167.714844 183.53125 165.558594 186.199219 165.558594 C 188.84375 165.558594 191.023438 167.714844 191.023438 170.382812 C 191.023438 172.355469 189.773438 174.164062 187.917969 174.882812 C 187.871094 174.90625 187.824219 174.929688 187.753906 174.929688 Z M 187.753906 174.929688 " fill-opacity="1" fill-rule="evenodd"/><path fill="#cb6ce6" d="M 195.875 172.519531 C 194.179688 172.519531 192.8125 171.148438 192.8125 169.457031 C 192.8125 167.785156 194.179688 166.394531 195.875 166.394531 C 197.566406 166.394531 198.9375 167.785156 198.9375 169.457031 C 198.9375 171.148438 197.566406 172.519531 195.875 172.519531 Z M 195.875 172.519531 " fill-opacity="1" fill-rule="evenodd"/><path fill="#cb6ce6" d="M 186.199219 173.003906 C 184.738281 173.003906 183.578125 171.824219 183.578125 170.382812 C 183.578125 168.921875 184.738281 167.761719 186.199219 167.761719 C 187.636719 167.761719 188.820312 168.921875 188.820312 170.382812 C 188.820312 171.824219 187.636719 173.003906 186.199219 173.003906 Z M 186.199219 173.003906 " fill-opacity="1" fill-rule="evenodd"/><g clip-path="url(#21ad979dcb)"><path fill="#000000" d="M 194.226562 174.929688 C 194.179688 174.929688 194.132812 174.90625 194.085938 174.90625 C 191.746094 174.117188 190.167969 171.9375 190.167969 169.457031 C 190.167969 166.324219 192.71875 163.75 195.875 163.75 C 199.027344 163.75 201.578125 166.324219 201.578125 169.457031 C 201.578125 171.9375 200.003906 174.117188 197.660156 174.90625 C 197.40625 174.976562 197.148438 174.839844 197.054688 174.605469 C 196.988281 174.351562 197.125 174.097656 197.359375 174.003906 C 199.328125 173.355469 200.652344 171.542969 200.652344 169.457031 C 200.652344 166.835938 198.519531 164.679688 195.875 164.679688 C 193.230469 164.679688 191.09375 166.835938 191.09375 169.457031 C 191.09375 171.542969 192.417969 173.355469 194.390625 174.003906 C 194.621094 174.097656 194.761719 174.351562 194.691406 174.605469 C 194.621094 174.792969 194.433594 174.929688 194.226562 174.929688 Z M 194.226562 174.929688 " fill-opacity="1" fill-rule="evenodd"/></g><g clip-path="url(#df0d03394f)"><path fill="#000000" d="M 190.191406 203.347656 C 189.933594 203.347656 189.726562 203.140625 189.726562 202.882812 L 189.726562 194.183594 L 184.925781 202.511719 C 184.785156 202.722656 184.507812 202.8125 184.273438 202.675781 C 184.042969 202.535156 183.972656 202.257812 184.113281 202.046875 L 189.796875 192.191406 C 189.886719 192.003906 190.097656 191.933594 190.304688 191.980469 C 190.515625 192.027344 190.652344 192.214844 190.652344 192.421875 L 190.652344 202.882812 C 190.652344 203.140625 190.445312 203.347656 190.191406 203.347656 Z M 190.191406 203.347656 " fill-opacity="1" fill-rule="evenodd"/></g><g clip-path="url(#0324d25f17)"><path fill="#000000" d="M 190.191406 203.347656 C 189.933594 203.347656 189.726562 203.140625 189.726562 202.882812 L 189.726562 192.421875 C 189.726562 192.214844 189.867188 192.027344 190.074219 191.980469 C 190.28125 191.933594 190.492188 192.003906 190.585938 192.191406 L 196.269531 202.046875 C 196.40625 202.257812 196.335938 202.535156 196.105469 202.675781 C 195.875 202.8125 195.59375 202.722656 195.457031 202.511719 L 190.652344 194.183594 L 190.652344 202.882812 C 190.652344 203.140625 190.445312 203.347656 190.191406 203.347656 Z M 190.191406 203.347656 " fill-opacity="1" fill-rule="evenodd"/></g><path fill="#000000" d="M 186.59375 188.894531 C 186.523438 188.894531 186.433594 188.871094 186.386719 188.847656 C 186.222656 188.757812 186.128906 188.59375 186.128906 188.433594 L 186.128906 178.457031 C 186.128906 178.269531 186.222656 178.109375 186.386719 178.039062 C 186.523438 177.96875 186.710938 177.96875 186.851562 178.0625 L 194.0625 183.050781 C 194.179688 183.144531 194.25 183.28125 194.25 183.445312 C 194.25 183.605469 194.179688 183.746094 194.0625 183.816406 L 186.851562 188.828125 C 186.78125 188.871094 186.6875 188.894531 186.59375 188.894531 Z M 187.058594 179.339844 L 187.058594 187.550781 L 192.972656 183.445312 Z M 187.058594 179.339844 " fill-opacity="1" fill-rule="evenodd"/><path fill="#000000" d="M 211.230469 190.078125 C 211.160156 190.078125 211.089844 190.078125 211.042969 190.054688 L 203.96875 187.085938 C 203.808594 187.015625 203.691406 186.855469 203.691406 186.667969 L 203.691406 180.21875 C 203.691406 180.035156 203.808594 179.871094 203.96875 179.800781 L 211.042969 176.832031 C 211.183594 176.761719 211.347656 176.785156 211.484375 176.878906 C 211.601562 176.949219 211.695312 177.113281 211.695312 177.25 L 211.695312 189.613281 C 211.695312 189.777344 211.601562 189.917969 211.484375 190.007812 C 211.390625 190.054688 211.324219 190.078125 211.230469 190.078125 Z M 204.617188 186.34375 L 210.742188 188.917969 L 210.742188 177.96875 L 204.617188 180.523438 Z M 204.617188 186.34375 " fill-opacity="1" fill-rule="evenodd"/><g clip-path="url(#f9f877b911)"><g transform="matrix(1, 0, 0, 1, 13, 79)"><g clip-path="url(#5b3a43dd9a)"><g clip-path="url(#ce77d42fab)"><g mask="url(#a6df255791)"><g><g clip-path="url(#1047948139)"><g clip-path="url(#d5bbc41d26)"><path fill="url(#fb3ecbbae0)" d="M 0.957031 5.75 L 0.957031 209.75 L 347.457031 209.75 L 347.457031 5.75 Z M 0.957031 5.75 " fill-rule="nonzero"/></g></g></g></g></g></g></g></g></svg>