<svg xmlns="http://www.w3.org/2000/svg" xmlns:xlink="http://www.w3.org/1999/xlink" width="500" zoomAndPan="magnify" viewBox="0 0 375 374.999991" height="500" preserveAspectRatio="xMidYMid meet" version="1.0"><defs><g/><clipPath id="ed4dffbbe7"><path d="M 125 119.316406 L 246 119.316406 L 246 164 L 125 164 Z M 125 119.316406 " clip-rule="nonzero"/></clipPath><clipPath id="ecd4d96841"><path d="M 105.191406 151 L 269.441406 151 L 269.441406 244.566406 L 105.191406 244.566406 Z M 105.191406 151 " clip-rule="nonzero"/></clipPath><clipPath id="b8d9b3678d"><path d="M 75 0.839844 L 91 0.839844 L 91 17 L 75 17 Z M 75 0.839844 " clip-rule="nonzero"/></clipPath><clipPath id="174ff7425a"><path d="M 119 1 L 130.71875 1 L 130.71875 16 L 119 16 Z M 119 1 " clip-rule="nonzero"/></clipPath><clipPath id="4dea2dc30b"><rect x="0" width="131" y="0" height="20"/></clipPath></defs><g clip-path="url(#ed4dffbbe7)"><path fill="#000000" d="M 127.015625 163.578125 L 125.753906 161.644531 L 190.675781 119.320312 L 245.582031 159.484375 L 244.222656 161.347656 L 190.601562 122.125 Z M 127.015625 163.578125 " fill-opacity="1" fill-rule="nonzero"/></g><g clip-path="url(#ecd4d96841)"><path fill="#000000" d="M 105.191406 162.644531 C 105.191406 162.644531 198.363281 136.558594 269.804688 162.644531 L 269.804688 244.550781 C 269.804688 244.550781 176.449219 225.648438 105.191406 243.140625 Z M 105.191406 162.644531 " fill-opacity="1" fill-rule="nonzero"/></g><path fill="#ffffff" d="M 110.914062 167.386719 C 110.914062 167.386719 198.066406 146 264.890625 167.386719 L 264.890625 234.546875 C 264.890625 234.546875 177.570312 219.050781 110.914062 233.390625 Z M 110.914062 167.386719 " fill-opacity="1" fill-rule="nonzero"/><path fill="#000000" d="M 140.25 155.386719 C 140.25 155.84375 140.164062 156.28125 139.988281 156.703125 C 139.816406 157.125 139.566406 157.496094 139.246094 157.820312 C 138.921875 158.140625 138.550781 158.390625 138.128906 158.5625 C 137.707031 158.738281 137.269531 158.824219 136.8125 158.824219 C 136.355469 158.824219 135.917969 158.738281 135.496094 158.5625 C 135.074219 158.390625 134.703125 158.140625 134.378906 157.820312 C 134.058594 157.496094 133.808594 157.125 133.636719 156.703125 C 133.460938 156.28125 133.375 155.84375 133.375 155.386719 C 133.375 154.929688 133.460938 154.492188 133.636719 154.070312 C 133.808594 153.648438 134.058594 153.277344 134.378906 152.953125 C 134.703125 152.632812 135.074219 152.382812 135.496094 152.210938 C 135.917969 152.035156 136.355469 151.949219 136.8125 151.949219 C 137.269531 151.949219 137.707031 152.035156 138.128906 152.210938 C 138.550781 152.382812 138.921875 152.632812 139.246094 152.953125 C 139.566406 153.277344 139.816406 153.648438 139.988281 154.070312 C 140.164062 154.492188 140.25 154.929688 140.25 155.386719 Z M 140.25 155.386719 " fill-opacity="1" fill-rule="nonzero"/><path fill="#000000" d="M 240.015625 155.140625 C 240.015625 155.59375 239.925781 156.035156 239.753906 156.457031 C 239.578125 156.875 239.328125 157.25 239.007812 157.570312 C 238.683594 157.894531 238.3125 158.140625 237.890625 158.316406 C 237.46875 158.492188 237.03125 158.578125 236.574219 158.578125 C 236.121094 158.578125 235.679688 158.492188 235.257812 158.316406 C 234.835938 158.140625 234.464844 157.894531 234.144531 157.570312 C 233.820312 157.25 233.574219 156.875 233.398438 156.457031 C 233.222656 156.035156 233.136719 155.59375 233.136719 155.140625 C 233.136719 154.683594 233.222656 154.246094 233.398438 153.824219 C 233.574219 153.402344 233.820312 153.03125 234.144531 152.707031 C 234.464844 152.382812 234.835938 152.136719 235.257812 151.960938 C 235.679688 151.789062 236.121094 151.699219 236.574219 151.699219 C 237.03125 151.699219 237.46875 151.789062 237.890625 151.960938 C 238.3125 152.136719 238.683594 152.382812 239.007812 152.707031 C 239.328125 153.03125 239.578125 153.402344 239.753906 153.824219 C 239.925781 154.246094 240.015625 154.683594 240.015625 155.140625 Z M 240.015625 155.140625 " fill-opacity="1" fill-rule="nonzero"/><g transform="matrix(1, 0, 0, 1, 122, 183)"><g clip-path="url(#4dea2dc30b)"><g fill="#000000" fill-opacity="1"><g transform="translate(0.504528, 14.841531)"><g><path d="M 2.753906 0.09375 C 4.355469 0.09375 5.710938 0.503906 6.996094 0.503906 C 9.75 0.503906 11.984375 -1.300781 11.984375 -3.871094 C 11.984375 -5.710938 10.886719 -6.902344 9.5625 -7.050781 L 9.5625 -7.089844 C 10.699219 -7.554688 11.441406 -8.875 11.441406 -10.195312 C 11.441406 -12.597656 9.15625 -13.65625 6.457031 -13.65625 C 5.003906 -13.65625 3.890625 -13.324219 2.382812 -13.324219 C 1.933594 -13.324219 1.542969 -13.339844 1.117188 -13.378906 C 1.117188 -13.378906 1.636719 -10.960938 1.636719 -6.699219 C 1.636719 -2.027344 1.152344 0.1875 1.152344 0.1875 C 1.675781 0.128906 2.269531 0.09375 2.753906 0.09375 Z M 5.527344 -9.84375 C 5.527344 -10.234375 5.582031 -10.71875 5.582031 -10.71875 C 5.582031 -10.71875 5.730469 -10.753906 5.953125 -10.753906 C 7.015625 -10.753906 7.722656 -10.328125 7.722656 -9.488281 C 7.722656 -8.632812 6.882812 -8.316406 5.953125 -8.316406 C 5.75 -8.316406 5.527344 -8.355469 5.527344 -8.355469 Z M 5.527344 -4.671875 C 5.527344 -4.914062 5.601562 -5.097656 5.601562 -5.097656 C 5.601562 -5.097656 5.75 -5.117188 5.859375 -5.117188 C 6.679688 -5.117188 7.628906 -4.875 7.628906 -4 C 7.628906 -2.957031 6.71875 -2.753906 5.859375 -2.753906 C 5.710938 -2.753906 5.636719 -2.753906 5.488281 -2.773438 C 5.527344 -2.921875 5.527344 -3.164062 5.527344 -3.292969 Z M 5.527344 -4.671875 "/></g></g></g><g fill="#000000" fill-opacity="1"><g transform="translate(13.2121, 14.841531)"><g><path d="M 1.078125 -13.414062 C 1.078125 -13.414062 1.65625 -10.417969 1.65625 -6.605469 C 1.65625 -1.003906 0.929688 0.277344 0.929688 0.277344 C 1.601562 0.1875 2.699219 0.0742188 3.554688 0.0742188 C 4.410156 0.0742188 5.453125 0.1875 6.140625 0.277344 C 6.140625 0.277344 5.542969 -2.957031 5.542969 -6.625 C 5.542969 -10.753906 6.195312 -13.472656 6.195312 -13.472656 C 5.433594 -13.398438 4.261719 -13.304688 3.144531 -13.304688 C 2.234375 -13.304688 1.542969 -13.359375 1.078125 -13.414062 Z M 1.078125 -13.414062 "/></g></g></g><g fill="#000000" fill-opacity="1"><g transform="translate(20.561287, 14.841531)"><g><path d="M 5.675781 -3.648438 C 5.675781 -3.648438 5.636719 -4.503906 5.636719 -5.0625 C 5.636719 -11.070312 6.214844 -13.453125 6.214844 -13.453125 C 6.214844 -13.453125 5.265625 -13.304688 3.589844 -13.304688 C 2.382812 -13.304688 1.023438 -13.472656 1.023438 -13.472656 C 1.023438 -13.472656 1.65625 -12.261719 1.65625 -6.328125 C 1.65625 -1.265625 0.949219 0.296875 0.949219 0.296875 C 0.949219 0.296875 3.21875 0.0546875 4.671875 0.0546875 C 7.722656 0.0546875 10.179688 0.503906 10.179688 0.503906 C 10.179688 0.503906 10.027344 -0.113281 10.027344 -1.785156 C 10.027344 -3.421875 10.34375 -5.0625 10.34375 -5.0625 C 10.34375 -5.0625 8.429688 -3.648438 5.75 -3.648438 Z M 5.675781 -3.648438 "/></g></g></g><g fill="#000000" fill-opacity="1"><g transform="translate(31.203649, 14.841531)"><g><path d="M 5.675781 -3.648438 C 5.675781 -3.648438 5.636719 -4.503906 5.636719 -5.0625 C 5.636719 -11.070312 6.214844 -13.453125 6.214844 -13.453125 C 6.214844 -13.453125 5.265625 -13.304688 3.589844 -13.304688 C 2.382812 -13.304688 1.023438 -13.472656 1.023438 -13.472656 C 1.023438 -13.472656 1.65625 -12.261719 1.65625 -6.328125 C 1.65625 -1.265625 0.949219 0.296875 0.949219 0.296875 C 0.949219 0.296875 3.21875 0.0546875 4.671875 0.0546875 C 7.722656 0.0546875 10.179688 0.503906 10.179688 0.503906 C 10.179688 0.503906 10.027344 -0.113281 10.027344 -1.785156 C 10.027344 -3.421875 10.34375 -5.0625 10.34375 -5.0625 C 10.34375 -5.0625 8.429688 -3.648438 5.75 -3.648438 Z M 5.675781 -3.648438 "/></g></g></g><g fill="#000000" fill-opacity="1"><g transform="translate(41.84601, 14.841531)"><g/></g></g><g fill="#000000" fill-opacity="1"><g transform="translate(47.427667, 14.841531)"><g><path d="M 2.753906 0.09375 C 4.355469 0.09375 5.710938 0.503906 6.996094 0.503906 C 9.75 0.503906 11.984375 -1.300781 11.984375 -3.871094 C 11.984375 -5.710938 10.886719 -6.902344 9.5625 -7.050781 L 9.5625 -7.089844 C 10.699219 -7.554688 11.441406 -8.875 11.441406 -10.195312 C 11.441406 -12.597656 9.15625 -13.65625 6.457031 -13.65625 C 5.003906 -13.65625 3.890625 -13.324219 2.382812 -13.324219 C 1.933594 -13.324219 1.542969 -13.339844 1.117188 -13.378906 C 1.117188 -13.378906 1.636719 -10.960938 1.636719 -6.699219 C 1.636719 -2.027344 1.152344 0.1875 1.152344 0.1875 C 1.675781 0.128906 2.269531 0.09375 2.753906 0.09375 Z M 5.527344 -9.84375 C 5.527344 -10.234375 5.582031 -10.71875 5.582031 -10.71875 C 5.582031 -10.71875 5.730469 -10.753906 5.953125 -10.753906 C 7.015625 -10.753906 7.722656 -10.328125 7.722656 -9.488281 C 7.722656 -8.632812 6.882812 -8.316406 5.953125 -8.316406 C 5.75 -8.316406 5.527344 -8.355469 5.527344 -8.355469 Z M 5.527344 -4.671875 C 5.527344 -4.914062 5.601562 -5.097656 5.601562 -5.097656 C 5.601562 -5.097656 5.75 -5.117188 5.859375 -5.117188 C 6.679688 -5.117188 7.628906 -4.875 7.628906 -4 C 7.628906 -2.957031 6.71875 -2.753906 5.859375 -2.753906 C 5.710938 -2.753906 5.636719 -2.753906 5.488281 -2.773438 C 5.527344 -2.921875 5.527344 -3.164062 5.527344 -3.292969 Z M 5.527344 -4.671875 "/></g></g></g><g fill="#000000" fill-opacity="1"><g transform="translate(60.13524, 14.841531)"><g><path d="M 14.550781 -6.585938 C 14.550781 -10.570312 11.5 -13.804688 7.515625 -13.804688 C 3.535156 -13.804688 0.484375 -10.570312 0.484375 -6.585938 C 0.484375 -2.605469 3.535156 0.613281 7.515625 0.613281 C 11.5 0.613281 14.550781 -2.605469 14.550781 -6.585938 Z M 10.382812 -6.585938 C 10.382812 -5.023438 9.117188 -3.777344 7.554688 -3.777344 C 5.992188 -3.777344 4.726562 -5.023438 4.726562 -6.585938 C 4.726562 -8.148438 5.992188 -9.414062 7.554688 -9.414062 C 9.117188 -9.414062 10.382812 -8.148438 10.382812 -6.585938 Z M 10.382812 -6.585938 "/></g></g></g><g clip-path="url(#b8d9b3678d)"><g fill="#000000" fill-opacity="1"><g transform="translate(75.391765, 14.841531)"><g><path d="M 6.996094 -13.84375 C 6.996094 -13.84375 5.394531 -10.253906 4.261719 -8 C 2.734375 -4.96875 0.578125 -0.96875 0 -0.355469 C 0.949219 -0.113281 2.605469 0.539062 4.128906 1.453125 C 4.28125 0.746094 4.894531 -1.117188 4.894531 -1.117188 C 4.894531 -1.117188 5.394531 -1.152344 6.402344 -1.152344 C 7.945312 -1.152344 9.824219 -1.097656 9.824219 -1.097656 C 9.824219 -1.097656 10.496094 0.855469 10.660156 1.5625 C 11.648438 0.761719 13.878906 -0.316406 15.128906 -0.800781 C 14.625 -1.339844 12.300781 -4.78125 10.308594 -8.222656 C 9.097656 -10.328125 7.332031 -13.84375 7.332031 -13.84375 Z M 7.238281 -7.183594 L 8.523438 -4.242188 C 8.523438 -4.242188 7.332031 -4.1875 6.585938 -4.1875 C 6.25 -4.1875 5.917969 -4.242188 5.917969 -4.242188 Z M 7.238281 -7.183594 "/></g></g></g></g><g fill="#000000" fill-opacity="1"><g transform="translate(90.518056, 14.841531)"><g><path d="M 13.007812 -2.808594 C 11.238281 -3.890625 10.382812 -5.023438 10.382812 -5.023438 L 10.382812 -5.0625 C 10.382812 -5.0625 12.820312 -6.753906 12.820312 -9.0625 C 12.820312 -12.316406 9.898438 -13.640625 6.808594 -13.640625 C 5.339844 -13.640625 3.871094 -13.324219 2.773438 -13.324219 C 2.25 -13.324219 1.617188 -13.378906 1.117188 -13.453125 C 1.117188 -13.453125 1.65625 -10.269531 1.65625 -6.308594 C 1.65625 -1.375 0.96875 0.277344 0.96875 0.277344 C 1.710938 0.203125 2.808594 0.113281 3.554688 0.113281 C 4.558594 0.113281 5.414062 0.1875 6.011719 0.261719 L 5.84375 -0.410156 C 5.84375 -0.410156 5.378906 -2.476562 5.378906 -5.042969 L 5.433594 -5.042969 C 8.335938 -2.160156 9.285156 0 9.453125 0.429688 C 9.5625 0.707031 9.695312 1.152344 9.695312 1.152344 C 10.140625 0.632812 11.515625 -0.929688 13.621094 -2.4375 Z M 5.414062 -7.332031 C 5.414062 -8.464844 5.601562 -9.9375 5.601562 -9.9375 L 5.878906 -9.9375 C 6.699219 -9.9375 8.167969 -9.75 8.167969 -8.503906 C 8.167969 -7.3125 7.109375 -6.53125 6.121094 -6.53125 C 5.769531 -6.53125 5.414062 -6.605469 5.414062 -6.605469 Z M 5.414062 -7.332031 "/></g></g></g><g fill="#000000" fill-opacity="1"><g transform="translate(104.230331, 14.841531)"><g><path d="M 1.675781 -6.605469 C 1.675781 -2.082031 1.0625 0.148438 1.0625 0.148438 C 1.0625 0.148438 2.457031 0.0742188 3.515625 0.0742188 C 5.003906 0.0742188 6.792969 0.242188 7.183594 0.242188 C 10.902344 0.242188 14.066406 -2.566406 14.066406 -6.976562 C 14.066406 -9.285156 13.324219 -10.808594 12.1875 -11.925781 C 11.035156 -13.0625 9.488281 -13.582031 7.351562 -13.582031 C 5.972656 -13.582031 4.167969 -13.339844 3.199219 -13.339844 C 2.027344 -13.339844 1.078125 -13.507812 1.078125 -13.507812 C 1.078125 -13.507812 1.675781 -10.101562 1.675781 -6.605469 Z M 5.730469 -9.5625 C 5.730469 -9.5625 6.175781 -9.695312 6.734375 -9.695312 C 8.523438 -9.695312 9.601562 -8.707031 9.601562 -6.808594 C 9.601562 -5.226562 8.597656 -3.980469 6.679688 -3.980469 C 6.269531 -3.980469 5.675781 -4.039062 5.675781 -4.039062 C 5.675781 -4.039062 5.5625 -4.355469 5.5625 -6.605469 C 5.5625 -7.757812 5.730469 -9.5625 5.730469 -9.5625 Z M 5.730469 -9.5625 "/></g></g></g><g clip-path="url(#174ff7425a)"><g fill="#000000" fill-opacity="1"><g transform="translate(118.854274, 14.841531)"><g><path d="M 2.789062 -8.671875 C 2.789062 -7.125 3.367188 -5.804688 3.367188 -4.914062 C 3.367188 -4.074219 2.660156 -3.589844 1.917969 -3.589844 C 1.359375 -3.589844 0.96875 -3.683594 0.355469 -3.925781 C 0.503906 -3.015625 0.746094 -1.488281 0.746094 -0.410156 C 0.746094 -0.09375 0.726562 0.222656 0.707031 0.503906 C 1.0625 0.558594 1.453125 0.558594 1.730469 0.558594 C 3.292969 0.558594 4.484375 0.261719 5.507812 -0.519531 C 6.773438 -1.488281 7.609375 -2.921875 7.609375 -4.96875 C 7.609375 -6.175781 7.257812 -7.109375 7.257812 -8.1875 C 7.257812 -9.507812 8.1875 -10.011719 9.210938 -10.011719 C 10.160156 -10.011719 11.257812 -9.546875 11.257812 -9.546875 C 11.050781 -10.382812 10.773438 -11.742188 10.773438 -13.082031 C 10.773438 -13.285156 10.792969 -13.789062 10.792969 -13.789062 C 10.792969 -13.789062 10.308594 -13.824219 9.992188 -13.824219 C 7.722656 -13.824219 5.488281 -13.339844 4.429688 -12.429688 C 3.21875 -11.386719 2.789062 -9.789062 2.789062 -8.671875 Z M 2.789062 -8.671875 "/></g></g></g></g></g></g></svg>