<svg xmlns="http://www.w3.org/2000/svg" xmlns:xlink="http://www.w3.org/1999/xlink" width="500" zoomAndPan="magnify" viewBox="0 0 375 374.999991" height="500" preserveAspectRatio="xMidYMid meet" version="1.0"><defs><g/><clipPath id="123bf126ed"><path d="M 107.640625 110.835938 L 267.390625 110.835938 L 267.390625 263.835938 L 107.640625 263.835938 Z M 107.640625 110.835938 " clip-rule="nonzero"/></clipPath><clipPath id="a560207de6"><path d="M 1 0.078125 L 11 0.078125 L 11 15 L 1 15 Z M 1 0.078125 " clip-rule="nonzero"/></clipPath><clipPath id="76d3857b4a"><path d="M 10 0.078125 L 25 0.078125 L 25 15 L 10 15 Z M 10 0.078125 " clip-rule="nonzero"/></clipPath><clipPath id="f44f7f7981"><path d="M 25 0.078125 L 38 0.078125 L 38 15 L 25 15 Z M 25 0.078125 " clip-rule="nonzero"/></clipPath><clipPath id="56d3d9f870"><path d="M 38 0.078125 L 53 0.078125 L 53 15 L 38 15 Z M 38 0.078125 " clip-rule="nonzero"/></clipPath><clipPath id="e933b2b0d2"><rect x="0" width="54" y="0" height="19"/></clipPath></defs><g clip-path="url(#123bf126ed)"><path fill="#000000" d="M 120.488281 122.515625 C 120.714844 121.785156 121.332031 121.285156 122.039062 121.167969 L 164.746094 110.976562 C 165.554688 110.726562 166.464844 111.023438 166.957031 111.761719 C 168.476562 114.050781 170.445312 115.941406 172.699219 117.433594 C 176.953125 120.25 182.234375 121.660156 187.535156 121.660156 C 192.832031 121.660156 198.117188 120.25 202.367188 117.433594 C 204.625 115.941406 206.59375 114.050781 208.113281 111.761719 L 208.117188 111.765625 C 208.554688 111.105469 209.375 110.753906 210.191406 110.945312 L 252.714844 121.144531 C 253.546875 121.144531 254.320312 121.679688 254.582031 122.515625 L 267.328125 162.925781 C 267.566406 163.683594 267.316406 164.480469 266.75 164.972656 C 262.765625 168.625 257.925781 171.226562 252.234375 172.773438 C 247.175781 174.148438 241.445312 174.683594 235.042969 174.386719 C 235.339844 187.429688 235.835938 199.621094 236.527344 210.964844 C 237.546875 227.636719 238.996094 242.417969 240.867188 255.304688 C 241.03125 256.324219 240.367188 257.300781 239.34375 257.519531 C 219.707031 261.71875 203.625 263.816406 187.535156 263.816406 C 171.441406 263.816406 155.363281 261.71875 135.722656 257.519531 C 134.726562 257.308594 134.050781 256.359375 134.195312 255.335938 C 135.800781 244.300781 137.097656 231.855469 138.074219 218.011719 C 139.015625 204.695312 139.667969 190.152344 140.027344 174.386719 C 133.621094 174.683594 127.890625 174.148438 122.832031 172.773438 C 117.140625 171.226562 112.304688 168.625 108.316406 164.96875 C 107.753906 164.476562 107.503906 163.683594 107.738281 162.925781 Z M 219.121094 117.085938 L 218.332031 118.316406 C 216.707031 120.851562 214.761719 123.117188 212.550781 125.085938 C 210.3125 127.082031 207.796875 128.773438 205.070312 130.136719 C 196.835938 134.25 186.703125 135.179688 177.566406 132.898438 C 168.972656 130.753906 161.222656 125.769531 156.679688 117.929688 L 156.15625 117.023438 L 123.886719 124.726562 L 111.851562 162.882812 C 115.191406 165.699219 119.195312 167.738281 123.855469 169.003906 C 128.59375 170.292969 134.011719 170.78125 140.109375 170.476562 C 140.152344 168.265625 140.1875 166.046875 140.21875 163.820312 C 140.261719 160.957031 140.292969 158.058594 140.316406 155.128906 C 140.324219 154.054688 141.203125 153.191406 142.28125 153.199219 C 143.359375 153.207031 144.222656 154.085938 144.214844 155.160156 C 144.191406 158.109375 144.160156 161.011719 144.121094 163.867188 C 144.078125 166.714844 144.03125 169.503906 143.976562 172.222656 C 143.980469 172.3125 143.976562 172.398438 143.96875 172.484375 C 143.617188 189.199219 142.953125 204.46875 141.976562 218.285156 C 141.042969 231.464844 139.824219 243.398438 138.320312 254.082031 C 156.867188 257.96875 172.207031 259.910156 187.535156 259.910156 C 202.863281 259.910156 218.203125 257.96875 236.746094 254.082031 C 234.980469 241.527344 233.605469 227.226562 232.628906 211.191406 C 231.902344 199.277344 231.390625 186.375 231.101562 172.484375 C 231.09375 172.398438 231.089844 172.3125 231.09375 172.226562 C 230.980469 166.691406 230.898438 161 230.855469 155.152344 C 230.851562 154.078125 231.71875 153.203125 232.796875 153.199219 C 233.871094 153.195312 234.75 154.0625 234.753906 155.136719 C 234.792969 160.371094 234.863281 165.484375 234.960938 170.476562 C 241.054688 170.78125 246.476562 170.292969 251.210938 169.003906 C 255.871094 167.738281 259.875 165.699219 263.21875 162.882812 L 251.199219 124.78125 Z M 160.121094 116.078125 C 164.101562 122.878906 170.921875 127.21875 178.515625 129.117188 C 186.785156 131.179688 195.925781 130.351562 203.328125 126.65625 C 205.746094 125.449219 207.972656 123.953125 209.953125 122.1875 C 211.898438 120.453125 213.613281 118.457031 215.042969 116.226562 L 215.109375 116.125 L 210.574219 115.035156 C 208.886719 117.277344 206.828125 119.160156 204.523438 120.683594 C 199.613281 123.9375 193.5625 125.566406 187.535156 125.566406 C 181.503906 125.566406 175.457031 123.9375 170.542969 120.683594 C 168.238281 119.160156 166.183594 117.277344 164.496094 115.035156 Z M 160.121094 116.078125 " fill-opacity="1" fill-rule="evenodd"/></g><g transform="matrix(1, 0, 0, 1, 161, 178)"><g clip-path="url(#e933b2b0d2)"><g clip-path="url(#a560207de6)"><g fill="#000000" fill-opacity="1"><g transform="translate(0.240809, 13.663381)"><g><path d="M 5.449219 -3.503906 C 5.449219 -3.503906 5.414062 -4.324219 5.414062 -4.859375 C 5.414062 -10.632812 5.96875 -12.921875 5.96875 -12.921875 C 5.96875 -12.921875 5.058594 -12.777344 3.449219 -12.777344 C 2.289062 -12.777344 0.984375 -12.9375 0.984375 -12.9375 C 0.984375 -12.9375 1.589844 -11.777344 1.589844 -6.074219 C 1.589844 -1.214844 0.910156 0.285156 0.910156 0.285156 C 0.910156 0.285156 3.089844 0.0546875 4.484375 0.0546875 C 7.417969 0.0546875 9.773438 0.484375 9.773438 0.484375 C 9.773438 0.484375 9.632812 -0.105469 9.632812 -1.714844 C 9.632812 -3.289062 9.9375 -4.859375 9.9375 -4.859375 C 9.9375 -4.859375 8.09375 -3.503906 5.523438 -3.503906 Z M 5.449219 -3.503906 "/></g></g></g></g><g clip-path="url(#76d3857b4a)"><g fill="#000000" fill-opacity="1"><g transform="translate(10.461839, 13.663381)"><g><path d="M 13.972656 -6.324219 C 13.972656 -10.148438 11.042969 -13.257812 7.21875 -13.257812 C 3.394531 -13.257812 0.464844 -10.148438 0.464844 -6.324219 C 0.464844 -2.5 3.394531 0.589844 7.21875 0.589844 C 11.042969 0.589844 13.972656 -2.5 13.972656 -6.324219 Z M 9.972656 -6.324219 C 9.972656 -4.824219 8.757812 -3.628906 7.253906 -3.628906 C 5.753906 -3.628906 4.539062 -4.824219 4.539062 -6.324219 C 4.539062 -7.828125 5.753906 -9.042969 7.253906 -9.042969 C 8.757812 -9.042969 9.972656 -7.828125 9.972656 -6.324219 Z M 9.972656 -6.324219 "/></g></g></g></g><g clip-path="url(#f44f7f7981)"><g fill="#000000" fill-opacity="1"><g transform="translate(25.114358, 13.663381)"><g><path d="M 7.96875 -3.339844 C 7.96875 -3.339844 7.648438 -3.289062 7.417969 -3.289062 C 5.609375 -3.289062 4.269531 -4.558594 4.269531 -6.683594 C 4.269531 -8.703125 5.863281 -9.863281 7.667969 -9.863281 C 9.433594 -9.863281 11.152344 -8.808594 11.152344 -8.808594 C 11.1875 -10.292969 11.527344 -11.652344 11.757812 -12.417969 C 11.757812 -12.417969 9.757812 -13.277344 7.488281 -13.277344 C 3.554688 -13.277344 0.445312 -10.652344 0.445312 -6.398438 C 0.445312 -2.464844 3.324219 0.519531 7.773438 0.519531 C 10.148438 0.519531 11.757812 -0.804688 11.757812 -0.804688 C 11.757812 -0.804688 11.703125 -1.699219 11.703125 -2.269531 C 11.703125 -4.699219 12.1875 -6.289062 12.1875 -6.289062 C 11.6875 -6.238281 10.8125 -6.164062 9.472656 -6.164062 C 8.882812 -6.164062 8.058594 -6.238281 7.558594 -6.289062 C 7.558594 -6.289062 7.96875 -4.609375 7.96875 -3.699219 Z M 7.96875 -3.339844 "/></g></g></g></g><g clip-path="url(#56d3d9f870)"><g fill="#000000" fill-opacity="1"><g transform="translate(38.105069, 13.663381)"><g><path d="M 13.972656 -6.324219 C 13.972656 -10.148438 11.042969 -13.257812 7.21875 -13.257812 C 3.394531 -13.257812 0.464844 -10.148438 0.464844 -6.324219 C 0.464844 -2.5 3.394531 0.589844 7.21875 0.589844 C 11.042969 0.589844 13.972656 -2.5 13.972656 -6.324219 Z M 9.972656 -6.324219 C 9.972656 -4.824219 8.757812 -3.628906 7.253906 -3.628906 C 5.753906 -3.628906 4.539062 -4.824219 4.539062 -6.324219 C 4.539062 -7.828125 5.753906 -9.042969 7.253906 -9.042969 C 8.757812 -9.042969 9.972656 -7.828125 9.972656 -6.324219 Z M 9.972656 -6.324219 "/></g></g></g></g></g></g></svg>