<svg xmlns="http://www.w3.org/2000/svg" xmlns:xlink="http://www.w3.org/1999/xlink" width="500" zoomAndPan="magnify" viewBox="0 0 375 374.999991" height="500" preserveAspectRatio="xMidYMid meet" version="1.0"><defs><g/><clipPath id="a89fe954d7"><path d="M 107.359375 111.46875 L 267.859375 111.46875 L 267.859375 263.71875 L 107.359375 263.71875 Z M 107.359375 111.46875 " clip-rule="nonzero"/></clipPath><clipPath id="651b20f856"><path d="M 1 0.078125 L 11 0.078125 L 11 15 L 1 15 Z M 1 0.078125 " clip-rule="nonzero"/></clipPath><clipPath id="adf1fea2ed"><path d="M 10 0.078125 L 25 0.078125 L 25 15 L 10 15 Z M 10 0.078125 " clip-rule="nonzero"/></clipPath><clipPath id="0000b848a6"><path d="M 25 0.078125 L 38 0.078125 L 38 15 L 25 15 Z M 25 0.078125 " clip-rule="nonzero"/></clipPath><clipPath id="8c07a8a0da"><path d="M 38 0.078125 L 53 0.078125 L 53 15 L 38 15 Z M 38 0.078125 " clip-rule="nonzero"/></clipPath><clipPath id="f6016e9a96"><rect x="0" width="54" y="0" height="19"/></clipPath></defs><g clip-path="url(#a89fe954d7)"><path fill="#232320" d="M 235.34375 257.820312 C 235.425781 260.738281 233.472656 261.1875 231.386719 261.476562 C 208.867188 264.632812 164.632812 264.488281 141.921875 260.816406 C 140.15625 259.378906 140.855469 256.0625 140.902344 253.84375 L 142.457031 178.175781 C 139.21875 179.183594 137.78125 181.765625 135.09375 183.089844 C 133.523438 184.632812 131.894531 183.976562 130.464844 182.625 C 122.566406 175.15625 115.023438 167.871094 107.398438 159.8125 C 116.203125 147.15625 126 136.285156 136.234375 124.867188 C 146.871094 119.414062 157.542969 115.066406 169.261719 111.46875 C 181.0625 117.707031 194.519531 117.863281 206.578125 111.492188 C 217.28125 114.8125 227.515625 118.699219 237.730469 123.675781 C 242.832031 126.160156 261.929688 150.914062 266.886719 157.03125 C 268.464844 158.980469 267.859375 161.019531 266.242188 162.59375 L 245.753906 182.550781 C 241.609375 186.585938 238.015625 179.859375 233.625 178.289062 L 234.398438 223.179688 Z M 201.15625 132.746094 C 197.167969 137.648438 192.835938 141.863281 187.476562 145.621094 C 177.582031 136.863281 170.65625 130.804688 167.648438 117.855469 C 167.324219 116.460938 166.0625 115.980469 165.425781 116.320312 C 162.609375 117.835938 168.65625 129.835938 171.152344 133.179688 C 175.710938 139.300781 181.023438 144.4375 187.554688 148.886719 C 199.582031 141.109375 209.058594 131.007812 211.308594 117.089844 C 206.765625 113.523438 209.648438 122.316406 201.15625 132.746094 Z M 202.039062 120.109375 C 203.90625 119.453125 205.335938 117.496094 204.097656 116.609375 C 193.195312 120.683594 181.890625 120.917969 171.335938 116.542969 C 170.601562 118.5625 172.152344 119.425781 173.597656 119.9375 C 182.585938 123.113281 192.605469 123.421875 202.039062 120.109375 Z M 231.511719 251.46875 L 231.160156 230.800781 L 230.117188 154.101562 C 229.988281 144.429688 232.117188 135.808594 235.910156 126.808594 C 228.519531 123.058594 221.53125 120.394531 214.09375 117.847656 L 210.566406 127.699219 C 206.785156 138.265625 197.632812 145.945312 187.722656 151.335938 C 177.816406 145.359375 170.300781 137.582031 165.269531 127.734375 C 163.558594 124.386719 163.695312 120.761719 161.546875 117.636719 C 154.027344 120.652344 147.199219 123.171875 140.09375 126.917969 C 143.707031 135.742188 145.894531 144.4375 145.773438 154.101562 L 144.800781 230.800781 C 144.710938 237.914062 144.496094 244.46875 144.675781 251.523438 C 159.035156 254.003906 171.855469 253.425781 185.234375 253.851562 L 215.941406 252.964844 C 221.1875 252.496094 226.007812 252.65625 231.511719 251.46875 Z M 202.632812 122.570312 C 191.941406 125.863281 181.554688 124.996094 172.921875 122.632812 C 175.894531 130.960938 181.613281 135.839844 187.40625 141.144531 C 192.085938 138.734375 202.464844 127.566406 202.632812 122.570312 Z M 143.53125 157.359375 C 143.589844 147.257812 142.179688 137.253906 137.707031 128.523438 L 111.707031 159.328125 L 133.078125 180.097656 C 144.273438 171.304688 143.4375 173.683594 143.53125 157.363281 Z M 242.765625 180.058594 L 264.089844 159.542969 C 256.082031 148.773438 247.628906 138.722656 237.867188 128.21875 C 233.277344 139.203125 232.066406 150.222656 232.4375 161.757812 C 232.835938 174.09375 231.921875 171.175781 242.765625 180.058594 Z M 147.34375 258.394531 L 173.609375 259.949219 C 185.253906 260.640625 196.511719 260.445312 208.265625 259.589844 C 212.816406 259.257812 231.257812 259.226562 231.621094 256.742188 C 231.710938 256.125 231.738281 254.4375 230.453125 254.511719 L 200.625 256.25 L 173.179688 256.140625 L 146.804688 254.664062 C 145.179688 254.574219 144.367188 255.3125 144.367188 256.617188 C 144.367188 257.75 145.125 258.261719 147.34375 258.390625 Z M 147.34375 258.394531 " fill-opacity="1" fill-rule="nonzero"/></g><g transform="matrix(1, 0, 0, 1, 161, 178)"><g clip-path="url(#f6016e9a96)"><g clip-path="url(#651b20f856)"><g fill="#000000" fill-opacity="1"><g transform="translate(0.240809, 13.663381)"><g><path d="M 5.449219 -3.503906 C 5.449219 -3.503906 5.414062 -4.324219 5.414062 -4.859375 C 5.414062 -10.632812 5.96875 -12.921875 5.96875 -12.921875 C 5.96875 -12.921875 5.058594 -12.777344 3.449219 -12.777344 C 2.289062 -12.777344 0.984375 -12.9375 0.984375 -12.9375 C 0.984375 -12.9375 1.589844 -11.777344 1.589844 -6.074219 C 1.589844 -1.214844 0.910156 0.285156 0.910156 0.285156 C 0.910156 0.285156 3.089844 0.0546875 4.484375 0.0546875 C 7.417969 0.0546875 9.773438 0.484375 9.773438 0.484375 C 9.773438 0.484375 9.632812 -0.105469 9.632812 -1.714844 C 9.632812 -3.289062 9.9375 -4.859375 9.9375 -4.859375 C 9.9375 -4.859375 8.09375 -3.503906 5.523438 -3.503906 Z M 5.449219 -3.503906 "/></g></g></g></g><g clip-path="url(#adf1fea2ed)"><g fill="#000000" fill-opacity="1"><g transform="translate(10.461839, 13.663381)"><g><path d="M 13.972656 -6.324219 C 13.972656 -10.148438 11.042969 -13.257812 7.21875 -13.257812 C 3.394531 -13.257812 0.464844 -10.148438 0.464844 -6.324219 C 0.464844 -2.5 3.394531 0.589844 7.21875 0.589844 C 11.042969 0.589844 13.972656 -2.5 13.972656 -6.324219 Z M 9.972656 -6.324219 C 9.972656 -4.824219 8.757812 -3.628906 7.253906 -3.628906 C 5.753906 -3.628906 4.539062 -4.824219 4.539062 -6.324219 C 4.539062 -7.828125 5.753906 -9.042969 7.253906 -9.042969 C 8.757812 -9.042969 9.972656 -7.828125 9.972656 -6.324219 Z M 9.972656 -6.324219 "/></g></g></g></g><g clip-path="url(#0000b848a6)"><g fill="#000000" fill-opacity="1"><g transform="translate(25.114358, 13.663381)"><g><path d="M 7.96875 -3.339844 C 7.96875 -3.339844 7.648438 -3.289062 7.417969 -3.289062 C 5.609375 -3.289062 4.269531 -4.558594 4.269531 -6.683594 C 4.269531 -8.703125 5.863281 -9.863281 7.667969 -9.863281 C 9.433594 -9.863281 11.152344 -8.808594 11.152344 -8.808594 C 11.1875 -10.292969 11.527344 -11.652344 11.757812 -12.417969 C 11.757812 -12.417969 9.757812 -13.277344 7.488281 -13.277344 C 3.554688 -13.277344 0.445312 -10.652344 0.445312 -6.398438 C 0.445312 -2.464844 3.324219 0.519531 7.773438 0.519531 C 10.148438 0.519531 11.757812 -0.804688 11.757812 -0.804688 C 11.757812 -0.804688 11.703125 -1.699219 11.703125 -2.269531 C 11.703125 -4.699219 12.1875 -6.289062 12.1875 -6.289062 C 11.6875 -6.238281 10.8125 -6.164062 9.472656 -6.164062 C 8.882812 -6.164062 8.058594 -6.238281 7.558594 -6.289062 C 7.558594 -6.289062 7.96875 -4.609375 7.96875 -3.699219 Z M 7.96875 -3.339844 "/></g></g></g></g><g clip-path="url(#8c07a8a0da)"><g fill="#000000" fill-opacity="1"><g transform="translate(38.105069, 13.663381)"><g><path d="M 13.972656 -6.324219 C 13.972656 -10.148438 11.042969 -13.257812 7.21875 -13.257812 C 3.394531 -13.257812 0.464844 -10.148438 0.464844 -6.324219 C 0.464844 -2.5 3.394531 0.589844 7.21875 0.589844 C 11.042969 0.589844 13.972656 -2.5 13.972656 -6.324219 Z M 9.972656 -6.324219 C 9.972656 -4.824219 8.757812 -3.628906 7.253906 -3.628906 C 5.753906 -3.628906 4.539062 -4.824219 4.539062 -6.324219 C 4.539062 -7.828125 5.753906 -9.042969 7.253906 -9.042969 C 8.757812 -9.042969 9.972656 -7.828125 9.972656 -6.324219 Z M 9.972656 -6.324219 "/></g></g></g></g></g></g></svg>